<svg xmlns="http://www.w3.org/2000/svg" viewBox="0 0 18 18"><g fill="currentColor" class="nc-icon-wrapper"><line x1="5.75" y1="2.75" x2="5.75" y2=".75" fill="none" stroke="currentColor" stroke-linecap="round" stroke-linejoin="round" stroke-width="1"></line><line x1="12.25" y1="2.75" x2="12.25" y2=".75" fill="none" stroke="currentColor" stroke-linecap="round" stroke-linejoin="round" stroke-width="1"></line><rect x="2.25" y="2.75" width="13.5" height="12.5" rx="2" ry="2" fill="none" stroke="currentColor" stroke-linecap="round" stroke-linejoin="round" stroke-width="1"></rect><line x1="2.25" y1="6.25" x2="15.75" y2="6.25" fill="none" stroke="currentColor" stroke-linecap="round" stroke-linejoin="round" stroke-width="1"></line><path d="M9,8.25c-.551,0-1,.449-1,1s.449,1,1,1,1-.449,1-1-.449-1-1-1Z" fill="currentColor" data-color="color-2" data-stroke="none" stroke="none"></path><path d="M12.5,10.25c.551,0,1-.449,1-1s-.449-1-1-1-1,.449-1,1,.449,1,1,1Z" fill="currentColor" data-color="color-2" data-stroke="none" stroke="none"></path><path d="M9,11.25c-.551,0-1,.449-1,1s.449,1,1,1,1-.449,1-1-.449-1-1-1Z" fill="currentColor" data-color="color-2" data-stroke="none" stroke="none"></path><path d="M5.5,11.25c-.551,0-1,.449-1,1s.449,1,1,1,1-.449,1-1-.449-1-1-1Z" fill="currentColor" data-color="color-2" data-stroke="none" stroke="none"></path><path d="M12.5,11.25c-.551,0-1,.449-1,1s.449,1,1,1,1-.449,1-1-.449-1-1-1Z" fill="currentColor" data-color="color-2" data-stroke="none" stroke="none"></path></g></svg>