<svg xmlns="http://www.w3.org/2000/svg" viewBox="0 0 18 18"><g fill="currentColor" class="nc-icon-wrapper"><path d="M14.75,8c-1.91,0-3.469-1.433-3.703-3.28-.099,.01-.195,.03-.297,.03-1.618,0-2.928-1.283-2.989-2.887-3.413,.589-6.011,3.556-6.011,7.137,0,4.004,3.246,7.25,7.25,7.25s7.25-3.246,7.25-7.25c0-.434-.045-.857-.118-1.271-.428,.17-.893,.271-1.382,.271Z" fill="none" stroke="currentColor" stroke-linecap="round" stroke-linejoin="round" stroke-width="1"></path><circle cx="12.25" cy="1.75" r=".75" fill="currentColor" data-color="color-2" data-stroke="none" stroke="none"></circle><circle cx="14.75" cy="4.25" r=".75" fill="currentColor" data-color="color-2" data-stroke="none" stroke="none"></circle><circle cx="11.25" cy="11.75" r=".75" fill="currentColor" data-color="color-2" data-stroke="none" stroke="none"></circle><circle cx="7" cy="7" r="1" fill="currentColor" data-color="color-2" data-stroke="none" stroke="none"></circle><circle cx="7.25" cy="11.25" r="1.25" fill="currentColor" data-color="color-2" data-stroke="none" stroke="none"></circle></g></svg>