<svg xmlns="http://www.w3.org/2000/svg" viewBox="0 0 18 18"><g fill="currentColor" class="nc-icon-wrapper"><circle cx="10.75" cy="8.75" r=".75" fill="currentColor" data-color="color-2" data-stroke="none" stroke="none"></circle><circle cx="12.25" cy="6.75" r=".75" fill="currentColor" data-color="color-2" data-stroke="none" stroke="none"></circle><line x1="6.25" y1="6.5" x2="6.25" y2="9" fill="none" stroke="currentColor" stroke-linecap="round" stroke-linejoin="round" stroke-width="1" data-color="color-2"></line><line x1="7.5" y1="7.75" x2="5" y2="7.75" fill="none" stroke="currentColor" stroke-linecap="round" stroke-linejoin="round" stroke-width="1" data-color="color-2"></line><path d="M16.914,11.986l-1.993-6.799c-.25-.852-1.031-1.438-1.919-1.438H4.998c-.888,0-1.669,.585-1.919,1.438l-1.993,6.799c-.051,.163-.086,.333-.086,.514,0,.967,.784,1.75,1.75,1.75,.584,0,1.098-.289,1.415-.728l1.272-1.772h7.124l1.272,1.772c.318,.439,.832,.728,1.415,.728,.966,0,1.75-.783,1.75-1.75,0-.18-.035-.35-.086-.514Z" fill="none" stroke="currentColor" stroke-linecap="round" stroke-linejoin="round" stroke-width="1"></path></g></svg>