<svg xmlns="http://www.w3.org/2000/svg" viewBox="0 0 18 18"><g fill="currentColor" class="nc-icon-wrapper"><line x1="6.25" y1="2.792" x2="6.25" y2="13.292" fill="none" stroke="currentColor" stroke-linecap="round" stroke-linejoin="round" stroke-width="1" data-color="color-2"></line><line x1="11.75" y1="4.708" x2="11.75" y2="15.208" fill="none" stroke="currentColor" stroke-linecap="round" stroke-linejoin="round" stroke-width="1" data-color="color-2"></line><path d="M2.533,3.576l3.432-.763c.186-.041,.38-.029,.559,.036l4.952,1.801c.179,.065,.373,.078,.559,.036l2.998-.666c.625-.139,1.217,.336,1.217,.976V13.448c0,.469-.326,.875-.783,.976l-3.432,.763c-.186,.041-.38,.029-.559-.036l-4.952-1.801c-.179-.065-.373-.078-.559-.036l-2.998,.666c-.625,.139-1.217-.336-1.217-.976V4.552c0-.469,.326-.875,.783-.976Z" fill="none" stroke="currentColor" stroke-linecap="round" stroke-linejoin="round" stroke-width="1"></path></g></svg>