<svg xmlns="http://www.w3.org/2000/svg" viewBox="0 0 18 18"><g fill="currentColor" class="nc-icon-wrapper"><path d="M9,12.25c-1.621,0-3.033-.912-3.749-2.25" fill="none" stroke="currentColor" stroke-linecap="round" stroke-linejoin="round" stroke-width="1" data-color="color-2"></path><path d="M16.237,9.267s.013-.177,.013-.267c0-4.004-3.246-7.25-7.25-7.25S1.75,4.996,1.75,9s3.246,7.25,7.25,7.25c.09,0,.267-.013,.267-.013,.982-.392,2.626-1.192,4.201-2.768,1.575-1.575,2.376-3.219,2.768-4.201Z" fill="none" stroke="currentColor" stroke-linecap="round" stroke-linejoin="round" stroke-width="1"></path><path d="M16.237,9.267h0c-.681-.323-1.433-.517-2.237-.517-2.899,0-5.25,2.351-5.25,5.25,0,.803,.195,1.556,.517,2.237" fill="none" stroke="currentColor" stroke-linecap="round" stroke-linejoin="round" stroke-width="1"></path><circle cx="7" cy="7" r="1" fill="currentColor" data-color="color-2" data-stroke="none" stroke="none"></circle><circle cx="11" cy="7" r="1" fill="currentColor" data-color="color-2" data-stroke="none" stroke="none"></circle></g></svg>