<svg xmlns="http://www.w3.org/2000/svg" viewBox="0 0 18 18"><g fill="currentColor" class="nc-icon-wrapper"><circle cx="4.25" cy="5.25" r=".75" fill="currentColor" data-color="color-2" data-stroke="none" stroke="none"></circle><circle cx="6.75" cy="5.25" r=".75" fill="currentColor" data-color="color-2" data-stroke="none" stroke="none"></circle><line x1="1.75" y1="7.75" x2="16.25" y2="7.75" fill="none" stroke="currentColor" stroke-linecap="round" stroke-linejoin="round" stroke-width="1"></line><path d="M16.25,9.978V4.75c0-1.104-.895-2-2-2H3.75c-1.105,0-2,.896-2,2V13.25c0,1.104,.895,2,2,2h5.862" fill="none" stroke="currentColor" stroke-linecap="round" stroke-linejoin="round" stroke-width="1"></path><path d="M11.126,10.768l5.94,2.17c.25,.091,.243,.448-.011,.529l-2.719,.87-.87,2.719c-.081,.254-.438,.261-.529,.011l-2.17-5.94c-.082-.223,.135-.44,.359-.359Z" fill="none" stroke="currentColor" stroke-linecap="round" stroke-linejoin="round" stroke-width="1" data-color="color-2"></path></g></svg>