<svg viewBox="0 0 112 112" fill="none" xmlns="http://www.w3.org/2000/svg">
<circle cx="56" cy="56" r="37.5" stroke="url(#paint0_linear_9430_101910)"/>
<circle opacity="0.8" cx="56" cy="56" r="43.5" stroke="url(#paint1_linear_9430_101910)"/>
<circle opacity="0.6" cx="56" cy="56" r="49.5" stroke="url(#paint2_linear_9430_101910)"/>
<circle opacity="0.4" cx="56" cy="56" r="55.5" stroke="url(#paint3_linear_9430_101910)"/>
<circle cx="96" cy="27" r="8" fill="#131316"/>
<circle cx="96" cy="27" r="8" fill="url(#paint4_radial_9430_101910)"/>
<path d="M96 27V24M96 27H93M96 27V30M96 27H99" stroke="url(#paint5_linear_9430_101910)" stroke-linecap="round"/>
<circle cx="16" cy="85" r="8" fill="#131316"/>
<circle cx="16" cy="85" r="8" fill="url(#paint6_radial_9430_101910)"/>
<g clip-path="url(#clip0_9430_101910)">
<path fill-rule="evenodd" clip-rule="evenodd" d="M17.604 83.1042C17.604 83.9901 16.8858 84.7083 15.9999 84.7083C15.1139 84.7083 14.3957 83.9901 14.3957 83.1042C14.3957 82.2182 15.1139 81.5 15.9999 81.5C16.8858 81.5 17.604 82.2182 17.604 83.1042ZM12.8227 88.1746C12.9884 86.5284 14.3546 85.2871 16.0001 85.2871C17.6457 85.2871 19.0113 86.5284 19.1776 88.1746C19.1863 88.2569 19.1595 88.3385 19.1041 88.3998C19.0486 88.461 18.9699 88.496 18.8876 88.496H13.1126C13.0304 88.496 12.9516 88.4604 12.8962 88.3998C12.8414 88.3385 12.8146 88.2569 12.8227 88.1746Z" fill="url(#paint7_linear_9430_101910)"/>
</g>
<mask id="mask0_9430_101910" style="mask-type:alpha" maskUnits="userSpaceOnUse" x="24" y="24" width="64" height="64">
<circle cx="56" cy="56" r="32" fill="#131316"/>
</mask>
<g mask="url(#mask0_9430_101910)">
<circle cx="56" cy="56" r="32" fill="#131316"/>
<g opacity="0.3" filter="url(#filter0_f_9430_101910)">
<circle cx="56" cy="81" r="21" fill="#93939F"/>
</g>
<g opacity="0.4" filter="url(#filter1_f_9430_101910)">
<ellipse cx="56" cy="88" rx="10" ry="13" fill="#93939F"/>
</g>
<circle cx="56" cy="56" r="31.5" stroke="url(#paint8_linear_9430_101910)"/>
<g style="mix-blend-mode:plus-lighter" opacity="0.16" filter="url(#filter2_f_9430_101910)">
<circle cx="38.5" cy="30.5" r="26.5" fill="#70DCD3"/>
</g>
</g>
<path fill-rule="evenodd" clip-rule="evenodd" d="M43 59H54C54.552 59 55 58.552 55 58V42C55 41.448 54.552 41 54 41H43C42.448 41 42 41.448 42 42V58C42 58.552 42.448 59 43 59ZM43 71H54C54.552 71 55 70.552 55 70V62C55 61.448 54.552 61 54 61H43C42.448 61 42 61.448 42 62V70C42 70.552 42.448 71 43 71ZM69 51H58C57.448 51 57 50.552 57 50V42C57 41.448 57.448 41 58 41H69C69.552 41 70 41.448 70 42V50C70 50.552 69.552 51 69 51ZM58 71H69C69.552 71 70 70.552 70 70V54C70 53.448 69.552 53 69 53H58C57.448 53 57 53.448 57 54V70C57 70.552 57.448 71 58 71Z" fill="url(#paint9_linear_9430_101910)"/>
<defs>
<filter id="filter0_f_9430_101910" x="11" y="36" width="90" height="90" filterUnits="userSpaceOnUse" color-interpolation-filters="sRGB">
<feFlood flood-opacity="0" result="BackgroundImageFix"/>
<feBlend mode="normal" in="SourceGraphic" in2="BackgroundImageFix" result="shape"/>
<feGaussianBlur stdDeviation="12" result="effect1_foregroundBlur_9430_101910"/>
</filter>
<filter id="filter1_f_9430_101910" x="36" y="65" width="40" height="46" filterUnits="userSpaceOnUse" color-interpolation-filters="sRGB">
<feFlood flood-opacity="0" result="BackgroundImageFix"/>
<feBlend mode="normal" in="SourceGraphic" in2="BackgroundImageFix" result="shape"/>
<feGaussianBlur stdDeviation="5" result="effect1_foregroundBlur_9430_101910"/>
</filter>
<filter id="filter2_f_9430_101910" x="-8" y="-16" width="93" height="93" filterUnits="userSpaceOnUse" color-interpolation-filters="sRGB">
<feFlood flood-opacity="0" result="BackgroundImageFix"/>
<feBlend mode="normal" in="SourceGraphic" in2="BackgroundImageFix" result="shape"/>
<feGaussianBlur stdDeviation="10" result="effect1_foregroundBlur_9430_101910"/>
</filter>
<linearGradient id="paint0_linear_9430_101910" x1="56" y1="18" x2="56" y2="94" gradientUnits="userSpaceOnUse">
<stop stop-color="#18181B" stop-opacity="0.3"/>
<stop offset="0.5" stop-color="#18181B"/>
<stop offset="1" stop-color="#18181B" stop-opacity="0.3"/>
</linearGradient>
<linearGradient id="paint1_linear_9430_101910" x1="56" y1="12" x2="56" y2="100" gradientUnits="userSpaceOnUse">
<stop stop-color="#18181B" stop-opacity="0.3"/>
<stop offset="0.5" stop-color="#18181B"/>
<stop offset="1" stop-color="#18181B" stop-opacity="0.3"/>
</linearGradient>
<linearGradient id="paint2_linear_9430_101910" x1="56" y1="6" x2="56" y2="106" gradientUnits="userSpaceOnUse">
<stop stop-color="#18181B" stop-opacity="0.3"/>
<stop offset="0.5" stop-color="#18181B"/>
<stop offset="1" stop-color="#18181B" stop-opacity="0.3"/>
</linearGradient>
<linearGradient id="paint3_linear_9430_101910" x1="56" y1="0" x2="56" y2="112" gradientUnits="userSpaceOnUse">
<stop stop-color="#18181B" stop-opacity="0.3"/>
<stop offset="0.5" stop-color="#18181B"/>
<stop offset="1" stop-color="#18181B" stop-opacity="0.3"/>
</linearGradient>
<radialGradient id="paint4_radial_9430_101910" cx="0" cy="0" r="1" gradientUnits="userSpaceOnUse" gradientTransform="translate(88 35) rotate(-45) scale(22.6274)">
<stop stop-color="#787887" stop-opacity="0.3"/>
<stop offset="1" stop-color="#787887" stop-opacity="0"/>
</radialGradient>
<linearGradient id="paint5_linear_9430_101910" x1="99" y1="24" x2="93" y2="30" gradientUnits="userSpaceOnUse">
<stop stop-color="#60606C"/>
<stop offset="1" stop-color="#93939F"/>
</linearGradient>
<radialGradient id="paint6_radial_9430_101910" cx="0" cy="0" r="1" gradientUnits="userSpaceOnUse" gradientTransform="translate(24 77) rotate(135) scale(22.6274)">
<stop stop-color="#787887" stop-opacity="0.3"/>
<stop offset="1" stop-color="#787887" stop-opacity="0"/>
</radialGradient>
<linearGradient id="paint7_linear_9430_101910" x1="13" y1="88" x2="19" y2="82" gradientUnits="userSpaceOnUse">
<stop stop-color="#60606C"/>
<stop offset="1" stop-color="#93939F"/>
</linearGradient>
<linearGradient id="paint8_linear_9430_101910" x1="56" y1="24" x2="56" y2="88" gradientUnits="userSpaceOnUse">
<stop stop-color="white" stop-opacity="0.1"/>
<stop offset="1" stop-color="white" stop-opacity="0"/>
</linearGradient>
<linearGradient id="paint9_linear_9430_101910" x1="69.9408" y1="41.1948" x2="52.2839" y2="68.6063" gradientUnits="userSpaceOnUse">
<stop stop-color="#EFEFF1"/>
<stop offset="1" stop-color="#93939F"/>
</linearGradient>
<clipPath id="clip0_9430_101910">
<rect width="7" height="7" fill="white" transform="translate(12.5 81.5)"/>
</clipPath>
</defs>
</svg>
