<svg width="112" height="112" viewBox="0 0 112 112" fill="none" xmlns="http://www.w3.org/2000/svg">
<circle cx="56" cy="56" r="37.5" stroke="url(#paint0_linear_16896_308690)"/>
<circle opacity="0.8" cx="56" cy="56" r="43.5" stroke="url(#paint1_linear_16896_308690)"/>
<circle opacity="0.6" cx="56" cy="56" r="49.5" stroke="url(#paint2_linear_16896_308690)"/>
<circle opacity="0.4" cx="56" cy="56" r="55.5" stroke="url(#paint3_linear_16896_308690)"/>
<mask id="mask0_16896_308690" style="mask-type:alpha" maskUnits="userSpaceOnUse" x="24" y="24" width="64" height="64">
<circle cx="56" cy="56" r="32" fill="#131316"/>
</mask>
<g mask="url(#mask0_16896_308690)">
<circle cx="56" cy="56" r="32" fill="#131316"/>
<g opacity="0.3" filter="url(#filter0_f_16896_308690)">
<circle cx="56" cy="81" r="21" fill="#93939F"/>
</g>
<g opacity="0.4" filter="url(#filter1_f_16896_308690)">
<ellipse cx="56" cy="88" rx="10" ry="13" fill="#93939F"/>
</g>
<circle cx="56" cy="56" r="31.5" stroke="url(#paint4_linear_16896_308690)"/>
</g>
<g clip-path="url(#clip0_16896_308690)">
<g clip-path="url(#clip1_16896_308690)">
<g filter="url(#filter2_i_16896_308690)">
<path fill-rule="evenodd" clip-rule="evenodd" d="M55.9985 51C53.2374 51 50.9989 53.2385 50.9989 56C50.9989 58.7615 53.2374 61 55.9985 61C58.7597 61 60.9982 58.7615 60.9982 56C60.9982 53.2385 58.7597 51 55.9985 51ZM55.9985 63C52.4722 63 49.555 60.3923 49.0698 57H40.9961C40.4438 57 39.9961 56.5523 39.9961 56C39.9961 55.4477 40.4438 55 40.9961 55H49.0698C49.555 51.6077 52.4722 49 55.9985 49C59.5249 49 62.4421 51.6077 62.9273 55H71.0008C71.5531 55 72.0008 55.4477 72.0008 56C72.0008 56.5523 71.5531 57 71.0008 57H62.9273C62.4421 60.3923 59.5249 63 55.9985 63Z" fill="url(#paint5_linear_16896_308690)"/>
</g>
</g>
</g>
<defs>
<filter id="filter0_f_16896_308690" x="11" y="36" width="90" height="90" filterUnits="userSpaceOnUse" color-interpolation-filters="sRGB">
<feFlood flood-opacity="0" result="BackgroundImageFix"/>
<feBlend mode="normal" in="SourceGraphic" in2="BackgroundImageFix" result="shape"/>
<feGaussianBlur stdDeviation="12" result="effect1_foregroundBlur_16896_308690"/>
</filter>
<filter id="filter1_f_16896_308690" x="36" y="65" width="40" height="46" filterUnits="userSpaceOnUse" color-interpolation-filters="sRGB">
<feFlood flood-opacity="0" result="BackgroundImageFix"/>
<feBlend mode="normal" in="SourceGraphic" in2="BackgroundImageFix" result="shape"/>
<feGaussianBlur stdDeviation="5" result="effect1_foregroundBlur_16896_308690"/>
</filter>
<filter id="filter2_i_16896_308690" x="39.9961" y="49" width="32.0039" height="14.8" filterUnits="userSpaceOnUse" color-interpolation-filters="sRGB">
<feFlood flood-opacity="0" result="BackgroundImageFix"/>
<feBlend mode="normal" in="SourceGraphic" in2="BackgroundImageFix" result="shape"/>
<feColorMatrix in="SourceAlpha" type="matrix" values="0 0 0 0 0 0 0 0 0 0 0 0 0 0 0 0 0 0 127 0" result="hardAlpha"/>
<feOffset dy="0.80003"/>
<feGaussianBlur stdDeviation="0.80003"/>
<feComposite in2="hardAlpha" operator="arithmetic" k2="-1" k3="1"/>
<feColorMatrix type="matrix" values="0 0 0 0 1 0 0 0 0 1 0 0 0 0 1 0 0 0 0.4 0"/>
<feBlend mode="normal" in2="shape" result="effect1_innerShadow_16896_308690"/>
</filter>
<linearGradient id="paint0_linear_16896_308690" x1="56" y1="18" x2="56" y2="94" gradientUnits="userSpaceOnUse">
<stop stop-color="#18181B" stop-opacity="0.3"/>
<stop offset="0.5" stop-color="#18181B"/>
<stop offset="1" stop-color="#18181B" stop-opacity="0.3"/>
</linearGradient>
<linearGradient id="paint1_linear_16896_308690" x1="56" y1="12" x2="56" y2="100" gradientUnits="userSpaceOnUse">
<stop stop-color="#18181B" stop-opacity="0.3"/>
<stop offset="0.5" stop-color="#18181B"/>
<stop offset="1" stop-color="#18181B" stop-opacity="0.3"/>
</linearGradient>
<linearGradient id="paint2_linear_16896_308690" x1="56" y1="6" x2="56" y2="106" gradientUnits="userSpaceOnUse">
<stop stop-color="#18181B" stop-opacity="0.3"/>
<stop offset="0.5" stop-color="#18181B"/>
<stop offset="1" stop-color="#18181B" stop-opacity="0.3"/>
</linearGradient>
<linearGradient id="paint3_linear_16896_308690" x1="56" y1="0" x2="56" y2="112" gradientUnits="userSpaceOnUse">
<stop stop-color="#18181B" stop-opacity="0.3"/>
<stop offset="0.5" stop-color="#18181B"/>
<stop offset="1" stop-color="#18181B" stop-opacity="0.3"/>
</linearGradient>
<linearGradient id="paint4_linear_16896_308690" x1="56" y1="24" x2="56" y2="88" gradientUnits="userSpaceOnUse">
<stop stop-color="white" stop-opacity="0.1"/>
<stop offset="1" stop-color="white" stop-opacity="0"/>
</linearGradient>
<linearGradient id="paint5_linear_16896_308690" x1="71.9332" y1="49.0909" x2="67.4812" y2="66.0198" gradientUnits="userSpaceOnUse">
<stop stop-color="#AEAEB7"/>
<stop offset="1" stop-color="#60606C"/>
</linearGradient>
<clipPath id="clip0_16896_308690">
<rect width="32" height="32" fill="white" transform="translate(40 40)"/>
</clipPath>
<clipPath id="clip1_16896_308690">
<rect width="32" height="32" fill="white" transform="translate(40 40)"/>
</clipPath>
</defs>
</svg>
