<svg width="112" height="112" viewBox="0 0 112 112" fill="none" xmlns="http://www.w3.org/2000/svg">
<circle cx="56" cy="56" r="37.5" stroke="url(#paint0_linear_6739_75762)"/>
<circle opacity="0.8" cx="56" cy="56" r="43.5" stroke="url(#paint1_linear_6739_75762)"/>
<circle opacity="0.6" cx="56" cy="56" r="49.5" stroke="url(#paint2_linear_6739_75762)"/>
<circle opacity="0.4" cx="56" cy="56" r="55.5" stroke="url(#paint3_linear_6739_75762)"/>
<mask id="mask0_6739_75762" style="mask-type:alpha" maskUnits="userSpaceOnUse" x="24" y="24" width="64" height="64">
<circle cx="56" cy="56" r="32" fill="#131316"/>
</mask>
<g mask="url(#mask0_6739_75762)">
<circle cx="56" cy="56" r="32" fill="#131316"/>
<g opacity="0.3" filter="url(#filter0_f_6739_75762)">
<circle cx="56" cy="81" r="21" fill="#93939F"/>
</g>
<g opacity="0.4" filter="url(#filter1_f_6739_75762)">
<ellipse cx="56" cy="88" rx="10" ry="13" fill="#93939F"/>
</g>
<circle cx="56" cy="56" r="31.5" stroke="url(#paint4_linear_6739_75762)"/>
</g>
<g clip-path="url(#clip0_6739_75762)">
<g filter="url(#filter2_i_6739_75762)">
<path fill-rule="evenodd" clip-rule="evenodd" d="M67 45C67 47.7614 64.7614 50 62 50C59.2386 50 57 47.7614 57 45C57 42.2386 59.2386 40 62 40C64.7614 40 67 42.2386 67 45ZM55 55C55 57.7614 52.7614 60 50 60C47.2386 60 45 57.7614 45 55C45 52.2386 47.2386 50 50 50C52.7614 50 55 52.2386 55 55ZM61.9991 52C60.1091 52 58.3341 52.527 56.8191 53.444C56.9331 53.945 56.9991 54.464 56.9991 55C56.9991 57.355 55.8271 59.437 54.0391 60.707C54.9561 61.035 55.8211 61.47 56.6221 62H70.9411C71.2251 62 71.4961 61.879 71.6861 61.667C71.8751 61.455 71.9661 61.173 71.9351 60.89C71.3741 55.822 67.1021 52 61.9991 52ZM40.0646 70.89C40.6256 65.822 44.8976 62 50.0006 62H49.9996C55.1026 62 59.3745 65.822 59.9356 70.89C59.9666 71.173 59.8756 71.455 59.6866 71.667C59.4966 71.879 59.2256 72 58.9416 72H41.0586C40.7746 72 40.5036 71.879 40.3136 71.667C40.1246 71.455 40.0336 71.173 40.0646 70.89Z" fill="url(#paint5_linear_6739_75762)"/>
</g>
</g>
<defs>
<filter id="filter0_f_6739_75762" x="11" y="36" width="90" height="90" filterUnits="userSpaceOnUse" color-interpolation-filters="sRGB">
<feFlood flood-opacity="0" result="BackgroundImageFix"/>
<feBlend mode="normal" in="SourceGraphic" in2="BackgroundImageFix" result="shape"/>
<feGaussianBlur stdDeviation="12" result="effect1_foregroundBlur_6739_75762"/>
</filter>
<filter id="filter1_f_6739_75762" x="36" y="65" width="40" height="46" filterUnits="userSpaceOnUse" color-interpolation-filters="sRGB">
<feFlood flood-opacity="0" result="BackgroundImageFix"/>
<feBlend mode="normal" in="SourceGraphic" in2="BackgroundImageFix" result="shape"/>
<feGaussianBlur stdDeviation="5" result="effect1_foregroundBlur_6739_75762"/>
</filter>
<filter id="filter2_i_6739_75762" x="40.0586" y="40" width="31.8828" height="32.8" filterUnits="userSpaceOnUse" color-interpolation-filters="sRGB">
<feFlood flood-opacity="0" result="BackgroundImageFix"/>
<feBlend mode="normal" in="SourceGraphic" in2="BackgroundImageFix" result="shape"/>
<feColorMatrix in="SourceAlpha" type="matrix" values="0 0 0 0 0 0 0 0 0 0 0 0 0 0 0 0 0 0 127 0" result="hardAlpha"/>
<feOffset dy="0.80003"/>
<feGaussianBlur stdDeviation="0.80003"/>
<feComposite in2="hardAlpha" operator="arithmetic" k2="-1" k3="1"/>
<feColorMatrix type="matrix" values="0 0 0 0 1 0 0 0 0 1 0 0 0 0 1 0 0 0 0.4 0"/>
<feBlend mode="normal" in2="shape" result="effect1_innerShadow_6739_75762"/>
</filter>
<linearGradient id="paint0_linear_6739_75762" x1="56" y1="18" x2="56" y2="94" gradientUnits="userSpaceOnUse">
<stop stop-color="#18181B" stop-opacity="0.3"/>
<stop offset="0.5" stop-color="#18181B"/>
<stop offset="1" stop-color="#18181B" stop-opacity="0.3"/>
</linearGradient>
<linearGradient id="paint1_linear_6739_75762" x1="56" y1="12" x2="56" y2="100" gradientUnits="userSpaceOnUse">
<stop stop-color="#18181B" stop-opacity="0.3"/>
<stop offset="0.5" stop-color="#18181B"/>
<stop offset="1" stop-color="#18181B" stop-opacity="0.3"/>
</linearGradient>
<linearGradient id="paint2_linear_6739_75762" x1="56" y1="6" x2="56" y2="106" gradientUnits="userSpaceOnUse">
<stop stop-color="#18181B" stop-opacity="0.3"/>
<stop offset="0.5" stop-color="#18181B"/>
<stop offset="1" stop-color="#18181B" stop-opacity="0.3"/>
</linearGradient>
<linearGradient id="paint3_linear_6739_75762" x1="56" y1="0" x2="56" y2="112" gradientUnits="userSpaceOnUse">
<stop stop-color="#18181B" stop-opacity="0.3"/>
<stop offset="0.5" stop-color="#18181B"/>
<stop offset="1" stop-color="#18181B" stop-opacity="0.3"/>
</linearGradient>
<linearGradient id="paint4_linear_6739_75762" x1="56" y1="24" x2="56" y2="88" gradientUnits="userSpaceOnUse">
<stop stop-color="white" stop-opacity="0.1"/>
<stop offset="1" stop-color="white" stop-opacity="0"/>
</linearGradient>
<linearGradient id="paint5_linear_6739_75762" x1="71.8736" y1="40.2078" x2="53.5733" y2="70.5358" gradientUnits="userSpaceOnUse">
<stop stop-color="#AEAEB7"/>
<stop offset="1" stop-color="#60606C"/>
</linearGradient>
<clipPath id="clip0_6739_75762">
<rect width="32" height="32" fill="white" transform="translate(40 40)"/>
</clipPath>
</defs>
</svg>
