<svg viewBox="0 0 112 112" fill="none" xmlns="http://www.w3.org/2000/svg">
<circle cx="56" cy="56" r="37.5" stroke="url(#paint0_linear_10510_55243)"/>
<circle opacity="0.8" cx="56" cy="56" r="43.5" stroke="url(#paint1_linear_10510_55243)"/>
<circle opacity="0.6" cx="56" cy="56" r="49.5" stroke="url(#paint2_linear_10510_55243)"/>
<circle opacity="0.4" cx="56" cy="56" r="55.5" stroke="url(#paint3_linear_10510_55243)"/>
<mask id="mask0_10510_55243" style="mask-type:alpha" maskUnits="userSpaceOnUse" x="24" y="24" width="64" height="64">
<circle cx="56" cy="56" r="32" fill="#131316"/>
</mask>
<g mask="url(#mask0_10510_55243)">
<circle cx="56" cy="56" r="32" fill="#131316"/>
<g opacity="0.3" filter="url(#filter0_f_10510_55243)">
<circle cx="56" cy="81" r="21" fill="#93939F"/>
</g>
<g opacity="0.4" filter="url(#filter1_f_10510_55243)">
<ellipse cx="56" cy="88" rx="10" ry="13" fill="#93939F"/>
</g>
<circle cx="56" cy="56" r="31.5" stroke="url(#paint4_linear_10510_55243)"/>
</g>
<g filter="url(#filter2_i_10510_55243)">
<path d="M53.6723 67.2172C51.4404 70.4322 47.0835 71.2398 43.9343 69.0033C40.8005 66.7668 40.0667 62.3094 42.268 59.0633C43.598 57.1219 45.6465 56.0813 47.7409 55.9882L47.8173 58.2091C46.4262 58.3178 45.0809 59.0478 44.2095 60.3214C42.6808 62.5579 43.1547 65.5709 45.249 67.0775C47.3587 68.5685 50.3091 67.9938 51.8379 65.7728C52.3118 65.0739 52.5869 64.3129 52.6939 63.5363V61.9677L61.2242 61.9056L61.3312 61.7347C62.1415 60.3058 63.8995 59.8088 65.2753 60.6165C66.6512 61.4241 67.1251 63.2257 66.3149 64.6546C65.5047 66.0679 63.7313 66.5649 62.3555 65.7573C61.7287 65.4001 61.2854 64.8254 61.0866 64.1731L54.8647 64.2042C54.6966 65.2448 54.2991 66.2543 53.6723 67.2172ZM64.8014 56.1279C68.6691 56.6094 71.4208 60.135 70.9469 64.0023C70.473 67.8851 66.9569 70.6341 63.0893 70.1526C60.8115 69.8731 58.9311 68.5529 57.8457 66.7202L59.7414 65.602C60.4904 66.7979 61.7593 67.6521 63.288 67.854C65.9633 68.1802 68.3328 66.332 68.6538 63.7382C68.9749 61.1445 67.0792 58.7682 64.4345 58.4421C63.609 58.3489 62.8141 58.4576 62.0956 58.7217L60.7962 59.405L56.8521 51.9966H56.5157C54.8953 51.9345 53.6417 50.5833 53.6876 48.968C53.7335 47.3528 55.1093 46.0948 56.7145 46.1569C58.3196 46.2501 59.5885 47.5702 59.5426 49.1855C59.5121 49.8688 59.2522 50.4901 58.8394 50.9716L61.744 56.423C62.6918 56.1124 63.7313 56.0037 64.8014 56.1279ZM50.2938 51.9034C48.7651 48.2536 50.3856 44.0757 53.9169 42.5536C57.4636 41.0316 61.5605 42.7555 63.0893 46.4054C63.9912 48.5332 63.8078 50.8628 62.7835 52.7266L60.8879 51.6083C61.53 50.3503 61.637 48.8127 61.0255 47.3683C59.986 44.8833 57.219 43.6874 54.8494 44.6969C52.4646 45.722 51.3945 48.5798 52.4341 51.0648C52.8621 52.0898 53.5806 52.8819 54.452 53.41L55.0482 53.7361L50.355 61.4862C50.4009 61.5639 50.462 61.6571 50.5079 61.7813C51.2569 63.1946 50.7372 64.9807 49.3307 65.7418C47.9396 66.5028 46.1816 65.9437 45.4172 64.4837C44.6681 63.0393 45.1879 61.2532 46.5943 60.4922C47.1905 60.1661 47.8479 60.0884 48.4747 60.2282L52.006 54.3729C51.2875 53.7051 50.676 52.8664 50.2938 51.9034Z" fill="url(#paint5_linear_10510_55243)"/>
</g>
<defs>
<filter id="filter0_f_10510_55243" x="11" y="36" width="90" height="90" filterUnits="userSpaceOnUse" color-interpolation-filters="sRGB">
<feFlood flood-opacity="0" result="BackgroundImageFix"/>
<feBlend mode="normal" in="SourceGraphic" in2="BackgroundImageFix" result="shape"/>
<feGaussianBlur stdDeviation="12" result="effect1_foregroundBlur_10510_55243"/>
</filter>
<filter id="filter1_f_10510_55243" x="36" y="65" width="40" height="46" filterUnits="userSpaceOnUse" color-interpolation-filters="sRGB">
<feFlood flood-opacity="0" result="BackgroundImageFix"/>
<feBlend mode="normal" in="SourceGraphic" in2="BackgroundImageFix" result="shape"/>
<feGaussianBlur stdDeviation="5" result="effect1_foregroundBlur_10510_55243"/>
</filter>
<filter id="filter2_i_10510_55243" x="41" y="42" width="30" height="29.0696" filterUnits="userSpaceOnUse" color-interpolation-filters="sRGB">
<feFlood flood-opacity="0" result="BackgroundImageFix"/>
<feBlend mode="normal" in="SourceGraphic" in2="BackgroundImageFix" result="shape"/>
<feColorMatrix in="SourceAlpha" type="matrix" values="0 0 0 0 0 0 0 0 0 0 0 0 0 0 0 0 0 0 127 0" result="hardAlpha"/>
<feOffset dy="0.80003"/>
<feGaussianBlur stdDeviation="0.80003"/>
<feComposite in2="hardAlpha" operator="arithmetic" k2="-1" k3="1"/>
<feColorMatrix type="matrix" values="0 0 0 0 1 0 0 0 0 1 0 0 0 0 1 0 0 0 0.4 0"/>
<feBlend mode="normal" in2="shape" result="effect1_innerShadow_10510_55243"/>
</filter>
<linearGradient id="paint0_linear_10510_55243" x1="56" y1="18" x2="56" y2="94" gradientUnits="userSpaceOnUse">
<stop stop-color="#18181B" stop-opacity="0.3"/>
<stop offset="0.5" stop-color="#18181B"/>
<stop offset="1" stop-color="#18181B" stop-opacity="0.3"/>
</linearGradient>
<linearGradient id="paint1_linear_10510_55243" x1="56" y1="12" x2="56" y2="100" gradientUnits="userSpaceOnUse">
<stop stop-color="#18181B" stop-opacity="0.3"/>
<stop offset="0.5" stop-color="#18181B"/>
<stop offset="1" stop-color="#18181B" stop-opacity="0.3"/>
</linearGradient>
<linearGradient id="paint2_linear_10510_55243" x1="56" y1="6" x2="56" y2="106" gradientUnits="userSpaceOnUse">
<stop stop-color="#18181B" stop-opacity="0.3"/>
<stop offset="0.5" stop-color="#18181B"/>
<stop offset="1" stop-color="#18181B" stop-opacity="0.3"/>
</linearGradient>
<linearGradient id="paint3_linear_10510_55243" x1="56" y1="0" x2="56" y2="112" gradientUnits="userSpaceOnUse">
<stop stop-color="#18181B" stop-opacity="0.3"/>
<stop offset="0.5" stop-color="#18181B"/>
<stop offset="1" stop-color="#18181B" stop-opacity="0.3"/>
</linearGradient>
<linearGradient id="paint4_linear_10510_55243" x1="56" y1="24" x2="56" y2="88" gradientUnits="userSpaceOnUse">
<stop stop-color="white" stop-opacity="0.1"/>
<stop offset="1" stop-color="white" stop-opacity="0"/>
</linearGradient>
<linearGradient id="paint5_linear_10510_55243" x1="70.9366" y1="42.1836" x2="55.2624" y2="69.8514" gradientUnits="userSpaceOnUse">
<stop stop-color="#AEAEB7"/>
<stop offset="1" stop-color="#60606C"/>
</linearGradient>
</defs>
</svg>
