<svg width="112" height="112" viewBox="0 0 112 112" fill="none" xmlns="http://www.w3.org/2000/svg">
<circle cx="56" cy="56" r="37.5" stroke="url(#paint0_linear_15924_23838)"/>
<circle opacity="0.8" cx="56" cy="56" r="43.5" stroke="url(#paint1_linear_15924_23838)"/>
<circle opacity="0.6" cx="56" cy="56" r="49.5" stroke="url(#paint2_linear_15924_23838)"/>
<circle opacity="0.4" cx="56" cy="56" r="55.5" stroke="url(#paint3_linear_15924_23838)"/>
<mask id="mask0_15924_23838" style="mask-type:alpha" maskUnits="userSpaceOnUse" x="24" y="24" width="64" height="64">
<circle cx="56" cy="56" r="32" fill="#131316"/>
</mask>
<g mask="url(#mask0_15924_23838)">
<circle cx="56" cy="56" r="32" fill="#131316"/>
<g opacity="0.3" filter="url(#filter0_f_15924_23838)">
<circle cx="56" cy="81" r="21" fill="#93939F"/>
</g>
<g opacity="0.4" filter="url(#filter1_f_15924_23838)">
<ellipse cx="56" cy="88" rx="10" ry="13" fill="#93939F"/>
</g>
<circle cx="56" cy="56" r="31.5" stroke="url(#paint4_linear_15924_23838)"/>
</g>
<g filter="url(#filter2_i_15924_23838)">
<path d="M67 41H45C43.9391 41 42.9217 41.4214 42.1716 42.1716C41.4214 42.9217 41 43.9391 41 45V67C41 68.0609 41.4214 69.0783 42.1716 69.8284C42.9217 70.5786 43.9391 71 45 71H67C68.0609 71 69.0783 70.5786 69.8284 69.8284C70.5786 69.0783 71 68.0609 71 67V45C71 43.9391 70.5786 42.9217 69.8284 42.1716C69.0783 41.4214 68.0609 41 67 41ZM45 43H67C67.5304 43 68.0391 43.2107 68.4142 43.5858C68.7893 43.9609 69 44.4696 69 45V59H62C61.7348 59 61.4804 59.1054 61.2929 59.2929C61.1054 59.4804 61 59.7348 61 60V63H51V60C51 59.7348 50.8946 59.4804 50.7071 59.2929C50.5196 59.1054 50.2652 59 50 59H43V45C43 44.4696 43.2107 43.9609 43.5858 43.5858C43.9609 43.2107 44.4696 43 45 43Z" fill="url(#paint5_linear_15924_23838)"/>
</g>
<defs>
<filter id="filter0_f_15924_23838" x="11" y="36" width="90" height="90" filterUnits="userSpaceOnUse" color-interpolation-filters="sRGB">
<feFlood flood-opacity="0" result="BackgroundImageFix"/>
<feBlend mode="normal" in="SourceGraphic" in2="BackgroundImageFix" result="shape"/>
<feGaussianBlur stdDeviation="12" result="effect1_foregroundBlur_15924_23838"/>
</filter>
<filter id="filter1_f_15924_23838" x="36" y="65" width="40" height="46" filterUnits="userSpaceOnUse" color-interpolation-filters="sRGB">
<feFlood flood-opacity="0" result="BackgroundImageFix"/>
<feBlend mode="normal" in="SourceGraphic" in2="BackgroundImageFix" result="shape"/>
<feGaussianBlur stdDeviation="5" result="effect1_foregroundBlur_15924_23838"/>
</filter>
<filter id="filter2_i_15924_23838" x="41" y="41" width="30" height="30.8" filterUnits="userSpaceOnUse" color-interpolation-filters="sRGB">
<feFlood flood-opacity="0" result="BackgroundImageFix"/>
<feBlend mode="normal" in="SourceGraphic" in2="BackgroundImageFix" result="shape"/>
<feColorMatrix in="SourceAlpha" type="matrix" values="0 0 0 0 0 0 0 0 0 0 0 0 0 0 0 0 0 0 127 0" result="hardAlpha"/>
<feOffset dy="0.80003"/>
<feGaussianBlur stdDeviation="0.80003"/>
<feComposite in2="hardAlpha" operator="arithmetic" k2="-1" k3="1"/>
<feColorMatrix type="matrix" values="0 0 0 0 1 0 0 0 0 1 0 0 0 0 1 0 0 0 0.4 0"/>
<feBlend mode="normal" in2="shape" result="effect1_innerShadow_15924_23838"/>
</filter>
<linearGradient id="paint0_linear_15924_23838" x1="56" y1="18" x2="56" y2="94" gradientUnits="userSpaceOnUse">
<stop stop-color="#18181B" stop-opacity="0.3"/>
<stop offset="0.5" stop-color="#18181B"/>
<stop offset="1" stop-color="#18181B" stop-opacity="0.3"/>
</linearGradient>
<linearGradient id="paint1_linear_15924_23838" x1="56" y1="12" x2="56" y2="100" gradientUnits="userSpaceOnUse">
<stop stop-color="#18181B" stop-opacity="0.3"/>
<stop offset="0.5" stop-color="#18181B"/>
<stop offset="1" stop-color="#18181B" stop-opacity="0.3"/>
</linearGradient>
<linearGradient id="paint2_linear_15924_23838" x1="56" y1="6" x2="56" y2="106" gradientUnits="userSpaceOnUse">
<stop stop-color="#18181B" stop-opacity="0.3"/>
<stop offset="0.5" stop-color="#18181B"/>
<stop offset="1" stop-color="#18181B" stop-opacity="0.3"/>
</linearGradient>
<linearGradient id="paint3_linear_15924_23838" x1="56" y1="0" x2="56" y2="112" gradientUnits="userSpaceOnUse">
<stop stop-color="#18181B" stop-opacity="0.3"/>
<stop offset="0.5" stop-color="#18181B"/>
<stop offset="1" stop-color="#18181B" stop-opacity="0.3"/>
</linearGradient>
<linearGradient id="paint4_linear_15924_23838" x1="56" y1="24" x2="56" y2="88" gradientUnits="userSpaceOnUse">
<stop stop-color="white" stop-opacity="0.1"/>
<stop offset="1" stop-color="white" stop-opacity="0"/>
</linearGradient>
<linearGradient id="paint5_linear_15924_23838" x1="70.9366" y1="41.1948" x2="53.8095" y2="69.6831" gradientUnits="userSpaceOnUse">
<stop stop-color="#AEAEB7"/>
<stop offset="1" stop-color="#60606C"/>
</linearGradient>
</defs>
</svg>
