<svg width="112" height="112" viewBox="0 0 112 112" fill="none" xmlns="http://www.w3.org/2000/svg">
<circle cx="56" cy="56" r="37.5" stroke="url(#paint0_linear_24994_169420)" style=""/>
<circle opacity="0.8" cx="56" cy="56" r="43.5" stroke="url(#paint1_linear_24994_169420)" style=""/>
<circle opacity="0.6" cx="56" cy="56" r="49.5" stroke="url(#paint2_linear_24994_169420)" style=""/>
<circle opacity="0.4" cx="56" cy="56" r="55.5" stroke="url(#paint3_linear_24994_169420)" style=""/>
<mask id="mask0_24994_169420" style="mask-type:alpha" maskUnits="userSpaceOnUse" x="24" y="24" width="64" height="64">
<circle cx="56" cy="56" r="32" fill="#131316" style="fill:#131316;fill:color(display-p3 0.0748 0.0748 0.0860);fill-opacity:1;"/>
</mask>
<g mask="url(#mask0_24994_169420)">
<circle cx="56" cy="56" r="32" fill="#FCFCFD" style="fill:#FCFCFD;fill:color(display-p3 0.9882 0.9882 0.9922);fill-opacity:1;"/>
<g opacity="0.3" filter="url(#filter0_f_24994_169420)">
<circle cx="56" cy="81" r="21" fill="#DEDEED" style="fill:#DEDEED;fill:color(display-p3 0.8706 0.8706 0.9294);fill-opacity:1;"/>
</g>
<g opacity="0.4" filter="url(#filter1_f_24994_169420)">
<ellipse cx="56" cy="88" rx="10" ry="13" fill="#DEDEED" style="fill:#DEDEED;fill:color(display-p3 0.8706 0.8706 0.9294);fill-opacity:1;"/>
</g>
<circle cx="56" cy="56" r="31.5" stroke="url(#paint4_linear_24994_169420)" style=""/>
</g>
<g filter="url(#filter2_i_24994_169420)">
<path fill-rule="evenodd" clip-rule="evenodd" d="M44 46.75C44 45.2312 45.2312 44 46.75 44C48.2688 44 49.5 45.2312 49.5 46.75C49.5 48.2688 48.2688 49.5 46.75 49.5C45.2312 49.5 44 48.2688 44 46.75ZM46.75 42C44.1266 42 42 44.1266 42 46.75C42 49.0303 43.6068 50.9353 45.75 51.3946L45.75 61.1054C43.6068 61.5647 42 63.4697 42 65.75C42 68.3734 44.1266 70.5 46.75 70.5C49.3734 70.5 51.5 68.3734 51.5 65.75C51.5 63.4697 49.8932 61.5647 47.75 61.1054L47.75 51.3946C49.8932 50.9353 51.5 49.0303 51.5 46.75C51.5 44.1266 49.3734 42 46.75 42ZM46.75 63C45.2312 63 44 64.2312 44 65.75C44 67.2688 45.2312 68.5 46.75 68.5C48.2688 68.5 49.5 67.2688 49.5 65.75C49.5 64.2312 48.2688 63 46.75 63ZM65.75 61.1054V53C65.75 49.134 62.616 46 58.75 46L57.0902 46L59.0287 44.0616C59.4192 43.6711 59.4193 43.038 59.0288 42.6474C58.6383 42.2569 58.0051 42.2568 57.6146 42.6474L54.0429 46.2187C53.8554 46.4062 53.75 46.6606 53.75 46.9258C53.75 47.1911 53.8554 47.4454 54.0429 47.633L57.6146 51.2043C58.0051 51.5948 58.6383 51.5948 59.0288 51.2042C59.4193 50.8137 59.4192 50.1805 59.0287 49.79L57.2385 48H58.75C61.5114 48 63.75 50.2386 63.75 53V61.1054C61.6068 61.5647 60 63.4697 60 65.75C60 68.3734 62.1266 70.5 64.75 70.5C67.3734 70.5 69.5 68.3734 69.5 65.75C69.5 63.4697 67.8932 61.5647 65.75 61.1054ZM62 65.75C62 64.2312 63.2312 63 64.75 63C66.2688 63 67.5 64.2312 67.5 65.75C67.5 67.2688 66.2688 68.5 64.75 68.5C63.2312 68.5 62 67.2688 62 65.75Z" fill="url(#paint5_linear_24994_169420)" style=""/>
</g>
<defs>
<filter id="filter0_f_24994_169420" x="11" y="36" width="90" height="90" filterUnits="userSpaceOnUse" color-interpolation-filters="sRGB">
<feFlood flood-opacity="0" result="BackgroundImageFix"/>
<feBlend mode="normal" in="SourceGraphic" in2="BackgroundImageFix" result="shape"/>
<feGaussianBlur stdDeviation="12" result="effect1_foregroundBlur_24994_169420"/>
</filter>
<filter id="filter1_f_24994_169420" x="36" y="65" width="40" height="46" filterUnits="userSpaceOnUse" color-interpolation-filters="sRGB">
<feFlood flood-opacity="0" result="BackgroundImageFix"/>
<feBlend mode="normal" in="SourceGraphic" in2="BackgroundImageFix" result="shape"/>
<feGaussianBlur stdDeviation="5" result="effect1_foregroundBlur_24994_169420"/>
</filter>
<filter id="filter2_i_24994_169420" x="42" y="42" width="27.5" height="29.3" filterUnits="userSpaceOnUse" color-interpolation-filters="sRGB">
<feFlood flood-opacity="0" result="BackgroundImageFix"/>
<feBlend mode="normal" in="SourceGraphic" in2="BackgroundImageFix" result="shape"/>
<feColorMatrix in="SourceAlpha" type="matrix" values="0 0 0 0 0 0 0 0 0 0 0 0 0 0 0 0 0 0 127 0" result="hardAlpha"/>
<feOffset dy="0.80003"/>
<feGaussianBlur stdDeviation="0.80003"/>
<feComposite in2="hardAlpha" operator="arithmetic" k2="-1" k3="1"/>
<feColorMatrix type="matrix" values="0 0 0 0 1 0 0 0 0 1 0 0 0 0 1 0 0 0 0.4 0"/>
<feBlend mode="normal" in2="shape" result="effect1_innerShadow_24994_169420"/>
</filter>
<linearGradient id="paint0_linear_24994_169420" x1="56" y1="18" x2="56" y2="94" gradientUnits="userSpaceOnUse">
<stop stop-color="#EFEFF6" stop-opacity="0.5" style="stop-color:#EFEFF6;stop-color:color(display-p3 0.9373 0.9373 0.9647);stop-opacity:0.5;"/>
<stop offset="0.5" stop-color="#EFEFF6" style="stop-color:#EFEFF6;stop-color:color(display-p3 0.9373 0.9373 0.9647);stop-opacity:1;"/>
<stop offset="1" stop-color="#EFEFF6" stop-opacity="0.5" style="stop-color:#EFEFF6;stop-color:color(display-p3 0.9373 0.9373 0.9647);stop-opacity:0.5;"/>
</linearGradient>
<linearGradient id="paint1_linear_24994_169420" x1="56" y1="12" x2="56" y2="100" gradientUnits="userSpaceOnUse">
<stop stop-color="#EFEFF6" stop-opacity="0.5" style="stop-color:#EFEFF6;stop-color:color(display-p3 0.9373 0.9373 0.9647);stop-opacity:0.5;"/>
<stop offset="0.5" stop-color="#EFEFF6" style="stop-color:#EFEFF6;stop-color:color(display-p3 0.9373 0.9373 0.9647);stop-opacity:1;"/>
<stop offset="1" stop-color="#EFEFF6" stop-opacity="0.5" style="stop-color:#EFEFF6;stop-color:color(display-p3 0.9373 0.9373 0.9647);stop-opacity:0.5;"/>
</linearGradient>
<linearGradient id="paint2_linear_24994_169420" x1="56" y1="6" x2="56" y2="106" gradientUnits="userSpaceOnUse">
<stop stop-color="#EFEFF6" stop-opacity="0.5" style="stop-color:#EFEFF6;stop-color:color(display-p3 0.9373 0.9373 0.9647);stop-opacity:0.5;"/>
<stop offset="0.5" stop-color="#EFEFF6" style="stop-color:#EFEFF6;stop-color:color(display-p3 0.9373 0.9373 0.9647);stop-opacity:1;"/>
<stop offset="1" stop-color="#EFEFF6" stop-opacity="0.5" style="stop-color:#EFEFF6;stop-color:color(display-p3 0.9373 0.9373 0.9647);stop-opacity:0.5;"/>
</linearGradient>
<linearGradient id="paint3_linear_24994_169420" x1="56" y1="0" x2="56" y2="112" gradientUnits="userSpaceOnUse">
<stop stop-color="#EFEFF6" stop-opacity="0.5" style="stop-color:#EFEFF6;stop-color:color(display-p3 0.9373 0.9373 0.9647);stop-opacity:0.5;"/>
<stop offset="0.5" stop-color="#EFEFF6" style="stop-color:#EFEFF6;stop-color:color(display-p3 0.9373 0.9373 0.9647);stop-opacity:1;"/>
<stop offset="1" stop-color="#EFEFF6" stop-opacity="0.5" style="stop-color:#EFEFF6;stop-color:color(display-p3 0.9373 0.9373 0.9647);stop-opacity:0.5;"/>
</linearGradient>
<linearGradient id="paint4_linear_24994_169420" x1="56" y1="24" x2="56" y2="88" gradientUnits="userSpaceOnUse">
<stop stop-color="#DEDEED" style="stop-color:#DEDEED;stop-color:color(display-p3 0.8706 0.8706 0.9294);stop-opacity:1;"/>
<stop offset="1" stop-color="#EFEFF6" style="stop-color:#EFEFF6;stop-color:color(display-p3 0.9373 0.9373 0.9647);stop-opacity:1;"/>
</linearGradient>
<linearGradient id="paint5_linear_24994_169420" x1="69.4419" y1="42.1851" x2="52.9046" y2="68.7271" gradientUnits="userSpaceOnUse">
<stop stop-color="#C6C6D3" style="stop-color:#C6C6D3;stop-color:color(display-p3 0.7765 0.7765 0.8275);stop-opacity:1;"/>
<stop offset="1" stop-color="#686775" style="stop-color:#686775;stop-color:color(display-p3 0.4078 0.4039 0.4588);stop-opacity:1;"/>
</linearGradient>
</defs>
</svg>
