<svg width="112" height="112" viewBox="0 0 112 112" fill="none" xmlns="http://www.w3.org/2000/svg">
<circle cx="56" cy="56" r="37.5" stroke="url(#paint0_linear_9596_43714)"/>
<circle opacity="0.8" cx="56" cy="56" r="43.5" stroke="url(#paint1_linear_9596_43714)"/>
<circle opacity="0.6" cx="56" cy="56" r="49.5" stroke="url(#paint2_linear_9596_43714)"/>
<circle opacity="0.4" cx="56" cy="56" r="55.5" stroke="url(#paint3_linear_9596_43714)"/>
<mask id="mask0_9596_43714" style="mask-type:alpha" maskUnits="userSpaceOnUse" x="24" y="24" width="64" height="64">
<circle cx="56" cy="56" r="32" fill="#131316"/>
</mask>
<g mask="url(#mask0_9596_43714)">
<circle cx="56" cy="56" r="32" fill="#131316"/>
<g opacity="0.3" filter="url(#filter0_f_9596_43714)">
<circle cx="56" cy="81" r="21" fill="#93939F"/>
</g>
<g opacity="0.4" filter="url(#filter1_f_9596_43714)">
<ellipse cx="56" cy="88" rx="10" ry="13" fill="#93939F"/>
</g>
<circle cx="56" cy="56" r="31.5" stroke="url(#paint4_linear_9596_43714)"/>
</g>
<g filter="url(#filter2_i_9596_43714)">
<path fill-rule="evenodd" clip-rule="evenodd" d="M45 46.5C45 44.9812 46.2312 43.75 47.75 43.75C49.2689 43.75 50.5001 44.9812 50.5001 46.5C50.5001 48.0188 49.2689 49.25 47.75 49.25C46.2312 49.25 45 48.0188 45 46.5ZM47.75 41.75C45.1267 41.75 43 43.8766 43 46.5C43 48.7622 44.5814 50.655 46.699 51.1333V56.1812V61.4009C44.5814 61.8792 43 63.772 43 66.0342C43 68.6575 45.1267 70.7842 47.75 70.7842C50.3734 70.7842 52.5001 68.6575 52.5001 66.0342C52.5001 63.7358 50.8677 61.8187 48.699 61.379V57.1812H59.4203C62.67 57.1812 65.3044 54.5468 65.3044 51.2971V51.1326C67.4203 50.653 69.0001 48.761 69.0001 46.5C69.0001 43.8766 66.8734 41.75 64.25 41.75C61.6267 41.75 59.5 43.8766 59.5 46.5C59.5 48.7996 61.1341 50.7174 63.3044 51.1559V51.2971C63.3044 53.4422 61.5654 55.1812 59.4203 55.1812H48.699V51.1552C50.8677 50.7155 52.5001 48.7984 52.5001 46.5C52.5001 43.8766 50.3734 41.75 47.75 41.75ZM47.75 63.2842C46.2312 63.2842 45 64.5154 45 66.0342C45 67.553 46.2312 68.7842 47.75 68.7842C49.2689 68.7842 50.5001 67.553 50.5001 66.0342C50.5001 64.5154 49.2689 63.2842 47.75 63.2842ZM61.5 46.5C61.5 44.9812 62.7312 43.75 64.25 43.75C65.7689 43.75 67.0001 44.9812 67.0001 46.5C67.0001 48.0188 65.7689 49.25 64.25 49.25C62.7312 49.25 61.5 48.0188 61.5 46.5Z" fill="url(#paint5_linear_9596_43714)"/>
</g>
<defs>
<filter id="filter0_f_9596_43714" x="11" y="36" width="90" height="90" filterUnits="userSpaceOnUse" color-interpolation-filters="sRGB">
<feFlood flood-opacity="0" result="BackgroundImageFix"/>
<feBlend mode="normal" in="SourceGraphic" in2="BackgroundImageFix" result="shape"/>
<feGaussianBlur stdDeviation="12" result="effect1_foregroundBlur_9596_43714"/>
</filter>
<filter id="filter1_f_9596_43714" x="36" y="65" width="40" height="46" filterUnits="userSpaceOnUse" color-interpolation-filters="sRGB">
<feFlood flood-opacity="0" result="BackgroundImageFix"/>
<feBlend mode="normal" in="SourceGraphic" in2="BackgroundImageFix" result="shape"/>
<feGaussianBlur stdDeviation="5" result="effect1_foregroundBlur_9596_43714"/>
</filter>
<filter id="filter2_i_9596_43714" x="43" y="41.75" width="26" height="29.8352" filterUnits="userSpaceOnUse" color-interpolation-filters="sRGB">
<feFlood flood-opacity="0" result="BackgroundImageFix"/>
<feBlend mode="normal" in="SourceGraphic" in2="BackgroundImageFix" result="shape"/>
<feColorMatrix in="SourceAlpha" type="matrix" values="0 0 0 0 0 0 0 0 0 0 0 0 0 0 0 0 0 0 127 0" result="hardAlpha"/>
<feOffset dy="0.80003"/>
<feGaussianBlur stdDeviation="0.80003"/>
<feComposite in2="hardAlpha" operator="arithmetic" k2="-1" k3="1"/>
<feColorMatrix type="matrix" values="0 0 0 0 1 0 0 0 0 1 0 0 0 0 1 0 0 0 0.4 0"/>
<feBlend mode="normal" in2="shape" result="effect1_innerShadow_9596_43714"/>
</filter>
<linearGradient id="paint0_linear_9596_43714" x1="56" y1="18" x2="56" y2="94" gradientUnits="userSpaceOnUse">
<stop stop-color="#18181B" stop-opacity="0.3"/>
<stop offset="0.5" stop-color="#18181B"/>
<stop offset="1" stop-color="#18181B" stop-opacity="0.3"/>
</linearGradient>
<linearGradient id="paint1_linear_9596_43714" x1="56" y1="12" x2="56" y2="100" gradientUnits="userSpaceOnUse">
<stop stop-color="#18181B" stop-opacity="0.3"/>
<stop offset="0.5" stop-color="#18181B"/>
<stop offset="1" stop-color="#18181B" stop-opacity="0.3"/>
</linearGradient>
<linearGradient id="paint2_linear_9596_43714" x1="56" y1="6" x2="56" y2="106" gradientUnits="userSpaceOnUse">
<stop stop-color="#18181B" stop-opacity="0.3"/>
<stop offset="0.5" stop-color="#18181B"/>
<stop offset="1" stop-color="#18181B" stop-opacity="0.3"/>
</linearGradient>
<linearGradient id="paint3_linear_9596_43714" x1="56" y1="0" x2="56" y2="112" gradientUnits="userSpaceOnUse">
<stop stop-color="#18181B" stop-opacity="0.3"/>
<stop offset="0.5" stop-color="#18181B"/>
<stop offset="1" stop-color="#18181B" stop-opacity="0.3"/>
</linearGradient>
<linearGradient id="paint4_linear_9596_43714" x1="56" y1="24" x2="56" y2="88" gradientUnits="userSpaceOnUse">
<stop stop-color="white" stop-opacity="0.1"/>
<stop offset="1" stop-color="white" stop-opacity="0"/>
</linearGradient>
<linearGradient id="paint5_linear_9596_43714" x1="68.9451" y1="41.9385" x2="51.5742" y2="67.8129" gradientUnits="userSpaceOnUse">
<stop stop-color="#AEAEB7"/>
<stop offset="1" stop-color="#60606C"/>
</linearGradient>
</defs>
</svg>
