<svg width="112" height="112" viewBox="0 0 112 112" fill="none" xmlns="http://www.w3.org/2000/svg">
<circle cx="56" cy="56" r="37.5" stroke="url(#paint0_linear_6_22)"/>
<circle opacity="0.8" cx="56" cy="56" r="43.5" stroke="url(#paint1_linear_6_22)"/>
<circle opacity="0.6" cx="56" cy="56" r="49.5" stroke="url(#paint2_linear_6_22)"/>
<circle opacity="0.4" cx="56" cy="56" r="55.5" stroke="url(#paint3_linear_6_22)"/>
<mask id="mask0_6_22" style="mask-type:alpha" maskUnits="userSpaceOnUse" x="24" y="24" width="64" height="64">
<circle cx="56" cy="56" r="32" fill="#131316"/>
</mask>
<g mask="url(#mask0_6_22)">
<circle cx="56" cy="56" r="32" fill="#131316"/>
<g opacity="0.3" filter="url(#filter0_f_6_22)">
<circle cx="56" cy="81" r="21" fill="#93939F"/>
</g>
<g opacity="0.4" filter="url(#filter1_f_6_22)">
<ellipse cx="56" cy="88" rx="10" ry="13" fill="#93939F"/>
</g>
<circle cx="56" cy="56" r="31.5" stroke="url(#paint4_linear_6_22)"/>
</g>
<g filter="url(#filter2_i_6_22)">
<path fill-rule="evenodd" clip-rule="evenodd" d="M44.25 46.3008C44.25 44.782 45.4812 43.5508 47 43.5508C48.5188 43.5508 49.75 44.782 49.75 46.3008C49.75 47.8196 48.5188 49.0508 47 49.0508C45.4812 49.0508 44.25 47.8196 44.25 46.3008ZM47 41.5508C44.3766 41.5508 42.25 43.6774 42.25 46.3008C42.25 48.5811 43.8568 50.4861 46 50.9453L46 60.6562C43.8568 61.1155 42.25 63.0205 42.25 65.3008C42.25 67.9241 44.3766 70.0508 47 70.0508C49.6234 70.0508 51.75 67.9241 51.75 65.3008C51.75 63.0205 50.1432 61.1155 48 60.6562L48 50.9453C50.1432 50.4861 51.75 48.5811 51.75 46.3008C51.75 43.6774 49.6234 41.5508 47 41.5508ZM47 62.5508C45.4812 62.5508 44.25 63.782 44.25 65.3008C44.25 66.8196 45.4812 68.0508 47 68.0508C48.5188 68.0508 49.75 66.8196 49.75 65.3008C49.75 63.782 48.5188 62.5508 47 62.5508ZM66 60.6562V52.5508C66 48.8529 63.1326 45.8247 59.5 45.5684V42.3545C59.5 42.0459 59.1337 41.8838 58.9053 42.0914L54.2894 46.2877C54.1342 46.4288 54.1342 46.6728 54.2894 46.8139L58.9053 51.0101C59.1337 51.2178 59.5 51.0557 59.5 50.747V47.5755C62.0267 47.8263 64 49.9581 64 52.5508V60.6562C61.8568 61.1155 60.25 63.0205 60.25 65.3008C60.25 67.9241 62.3766 70.0508 65 70.0508C67.6234 70.0508 69.75 67.9241 69.75 65.3008C69.75 63.0205 68.1432 61.1155 66 60.6562ZM62.25 65.3008C62.25 63.782 63.4812 62.5508 65 62.5508C66.5188 62.5508 67.75 63.782 67.75 65.3008C67.75 66.8196 66.5188 68.0508 65 68.0508C63.4812 68.0508 62.25 66.8196 62.25 65.3008Z" fill="url(#paint5_linear_6_22)"/>
</g>
<defs>
<filter id="filter0_f_6_22" x="11" y="36" width="90" height="90" filterUnits="userSpaceOnUse" color-interpolation-filters="sRGB">
<feFlood flood-opacity="0" result="BackgroundImageFix"/>
<feBlend mode="normal" in="SourceGraphic" in2="BackgroundImageFix" result="shape"/>
<feGaussianBlur stdDeviation="12" result="effect1_foregroundBlur_6_22"/>
</filter>
<filter id="filter1_f_6_22" x="36" y="65" width="40" height="46" filterUnits="userSpaceOnUse" color-interpolation-filters="sRGB">
<feFlood flood-opacity="0" result="BackgroundImageFix"/>
<feBlend mode="normal" in="SourceGraphic" in2="BackgroundImageFix" result="shape"/>
<feGaussianBlur stdDeviation="5" result="effect1_foregroundBlur_6_22"/>
</filter>
<filter id="filter2_i_6_22" x="42.25" y="41.5508" width="27.5" height="29.3" filterUnits="userSpaceOnUse" color-interpolation-filters="sRGB">
<feFlood flood-opacity="0" result="BackgroundImageFix"/>
<feBlend mode="normal" in="SourceGraphic" in2="BackgroundImageFix" result="shape"/>
<feColorMatrix in="SourceAlpha" type="matrix" values="0 0 0 0 0 0 0 0 0 0 0 0 0 0 0 0 0 0 127 0" result="hardAlpha"/>
<feOffset dy="0.80003"/>
<feGaussianBlur stdDeviation="0.80003"/>
<feComposite in2="hardAlpha" operator="arithmetic" k2="-1" k3="1"/>
<feColorMatrix type="matrix" values="0 0 0 0 1 0 0 0 0 1 0 0 0 0 1 0 0 0 0.4 0"/>
<feBlend mode="normal" in2="shape" result="effect1_innerShadow_6_22"/>
</filter>
<linearGradient id="paint0_linear_6_22" x1="56" y1="18" x2="56" y2="94" gradientUnits="userSpaceOnUse">
<stop stop-color="#18181B" stop-opacity="0.3"/>
<stop offset="0.5" stop-color="#18181B"/>
<stop offset="1" stop-color="#18181B" stop-opacity="0.3"/>
</linearGradient>
<linearGradient id="paint1_linear_6_22" x1="56" y1="12" x2="56" y2="100" gradientUnits="userSpaceOnUse">
<stop stop-color="#18181B" stop-opacity="0.3"/>
<stop offset="0.5" stop-color="#18181B"/>
<stop offset="1" stop-color="#18181B" stop-opacity="0.3"/>
</linearGradient>
<linearGradient id="paint2_linear_6_22" x1="56" y1="6" x2="56" y2="106" gradientUnits="userSpaceOnUse">
<stop stop-color="#18181B" stop-opacity="0.3"/>
<stop offset="0.5" stop-color="#18181B"/>
<stop offset="1" stop-color="#18181B" stop-opacity="0.3"/>
</linearGradient>
<linearGradient id="paint3_linear_6_22" x1="56" y1="0" x2="56" y2="112" gradientUnits="userSpaceOnUse">
<stop stop-color="#18181B" stop-opacity="0.3"/>
<stop offset="0.5" stop-color="#18181B"/>
<stop offset="1" stop-color="#18181B" stop-opacity="0.3"/>
</linearGradient>
<linearGradient id="paint4_linear_6_22" x1="56" y1="24" x2="56" y2="88" gradientUnits="userSpaceOnUse">
<stop stop-color="white" stop-opacity="0.1"/>
<stop offset="1" stop-color="white" stop-opacity="0"/>
</linearGradient>
<linearGradient id="paint5_linear_6_22" x1="69.9429" y1="42.7261" x2="54.5285" y2="68.3655" gradientUnits="userSpaceOnUse">
<stop stop-color="#AEAEB7"/>
<stop offset="1" stop-color="#60606C"/>
</linearGradient>
</defs>
</svg>
