<svg viewBox="0 0 12 12" fill="none" xmlns="http://www.w3.org/2000/svg">
<g>
<path d="M5.99935 6.36686C7.01187 6.36686 7.83268 5.54605 7.83268 4.53353C7.83268 3.52101 7.01187 2.7002 5.99935 2.7002C4.98683 2.7002 4.16602 3.52101 4.16602 4.53353C4.16602 5.54605 4.98683 6.36686 5.99935 6.36686Z" stroke="currentColor" stroke-linecap="round" stroke-linejoin="round"/>
<path d="M9.63159 10.1215C8.67165 8.11587 6.26705 7.2674 4.26139 8.22734C3.43272 8.62407 2.76392 9.29214 2.36719 10.1215" stroke="currentColor" stroke-linecap="round" stroke-linejoin="round"/>
<path d="M6 11.5C9.03757 11.5 11.5 9.03757 11.5 6C11.5 2.96243 9.03757 0.5 6 0.5C2.96243 0.5 0.5 2.96243 0.5 6C0.5 9.03757 2.96243 11.5 6 11.5Z" stroke="currentColor" stroke-linecap="round" stroke-linejoin="round"/>
</g>
</svg>
