<svg xmlns="http://www.w3.org/2000/svg" height="12" width="12" viewBox="0 0 12 12"><g fill="currentColor" class="nc-icon-wrapper"><line x1=".75" y1="6" x2="5" y2="6" fill="none" stroke="currentColor" stroke-linecap="round" stroke-linejoin="round" stroke-width="1" data-color="color-2"></line><polyline points="3 3.75 5.25 6 3 8.25" fill="none" stroke="currentColor" stroke-linecap="round" stroke-linejoin="round" stroke-width="1" data-color="color-2"></polyline><path d="m10.77,1.15l-2.16,1.8c-.228.19-.36.471-.36.768v4.563c0,.297.132.578.36.768l2.16,1.8" fill="none" stroke="currentColor" stroke-linecap="round" stroke-linejoin="round" stroke-width="1"></path><path d="m4.776,10.009c.123.704.734,1.241,1.474,1.241h3.5c.828,0,1.5-.672,1.5-1.5V2.25c0-.828-.672-1.5-1.5-1.5h-3.5c-.74,0-1.351.537-1.474,1.241" fill="none" stroke="currentColor" stroke-linecap="round" stroke-linejoin="round" stroke-width="1"></path></g></svg>