<svg viewBox="0 0 18 18" fill="none" xmlns="http://www.w3.org/2000/svg">
<path fill-rule="evenodd" clip-rule="evenodd" d="M9.20218 0.667698C9.0734 0.610767 8.9266 0.610767 8.79782 0.667698L1.29782 3.98349C1.11678 4.06353 1 4.24284 1 4.44079V4.4997C1 4.49972 1 4.49974 1 4.49975V13.5592C1 13.7571 1.11678 13.9364 1.29782 14.0165L8.78783 17.3279C8.84488 17.3547 8.90782 17.371 8.97417 17.3743C8.98278 17.3748 8.99139 17.375 9 17.375C9.00955 17.375 9.01911 17.3747 9.02865 17.3742C9.09397 17.3705 9.15593 17.3543 9.21218 17.3279L16.7022 14.0165C16.8832 13.9364 17 13.7571 17 13.5592V4.51451C17.0003 4.50467 17.0003 4.49481 17 4.48493V4.44079C17 4.24284 16.8832 4.06353 16.7022 3.98349L9.20218 0.667698ZM15.3894 4.49646L9 1.67168L2.61074 4.49641L9.00011 7.69109L15.3894 4.49646ZM2 5.30908V13.2335L8.5 16.1073V8.55907L2 5.30908ZM9.5 16.1073L16 13.2335V5.30918L9.5 8.55918V16.1073Z" fill="currentColor"/>
</svg>
