<svg viewBox="0 0 18 18" fill="none" xmlns="http://www.w3.org/2000/svg">
<g clip-path="url(#clip0_9309_36459)">
<path fill-rule="evenodd" clip-rule="evenodd" d="M1.97839 1.97839C2.2847 1.67208 2.70015 1.5 3.13333 1.5H3.69995V8.46667C3.69995 8.65887 3.81012 8.83406 3.98336 8.91732C4.15659 9.00058 4.36221 8.97717 4.5123 8.8571L6.86662 6.97365L9.22094 8.8571C9.37102 8.97717 9.57665 9.00058 9.74988 8.91732C9.92311 8.83406 10.0333 8.65887 10.0333 8.46667V1.5H14.8667C15.2999 1.5 15.7153 1.67208 16.0216 1.97839C16.3279 2.2847 16.5 2.70015 16.5 3.13333V15.4C16.5 15.6761 16.7239 15.9 17 15.9C17.2761 15.9 17.5 15.6761 17.5 15.4V3.13333C17.5 2.43493 17.2226 1.76513 16.7287 1.27129C16.2349 0.77744 15.5651 0.5 14.8667 0.5H9.53329H4.19995H3.13333C2.43493 0.5 1.76513 0.77744 1.27129 1.27129C0.77744 1.76513 0.5 2.43493 0.5 3.13333V15.4C0.5 15.6761 0.723858 15.9 1 15.9C1.27614 15.9 1.5 15.6761 1.5 15.4V3.13333C1.5 2.70015 1.67208 2.2847 1.97839 1.97839ZM4.69995 1.5V7.42635L6.55427 5.9429C6.73688 5.79681 6.99636 5.79681 7.17897 5.9429L9.03329 7.42635V1.5H4.69995Z" fill="url(#paint0_linear_9309_36459)"/>
<path fill-rule="evenodd" clip-rule="evenodd" d="M2.6 14.3008C1.99249 14.3008 1.5 14.7933 1.5 15.4008C1.5 16.0083 1.99249 16.5008 2.6 16.5008H15.4C16.0075 16.5008 16.5 16.0083 16.5 15.4008C16.5 14.7933 16.0075 14.3008 15.4 14.3008H2.6ZM0.5 15.4008C0.5 14.241 1.4402 13.3008 2.6 13.3008H15.4C16.5598 13.3008 17.5 14.241 17.5 15.4008C17.5 16.5606 16.5598 17.5008 15.4 17.5008H2.6C1.4402 17.5008 0.5 16.5606 0.5 15.4008Z" fill="url(#paint1_linear_9309_36459)"/>
</g>
<defs>
<linearGradient id="paint0_linear_9309_36459" x1="9" y1="0.5" x2="9" y2="15.9" gradientUnits="userSpaceOnUse">
<stop stop-color="currentColor"/>
<stop offset="1" stop-color="currentColor"/>
</linearGradient>
<linearGradient id="paint1_linear_9309_36459" x1="9" y1="0.500733" x2="9" y2="15.5007" gradientUnits="userSpaceOnUse">
<stop stop-color="currentColor"/>
<stop offset="1" stop-color="currentColor"/>
</linearGradient>
<clipPath id="clip0_9309_36459">
<rect width="100%" height="100%" fill="currentColor"/>
</clipPath>
</defs>
</svg>
