<svg viewBox="0 0 14 15" fill="none" xmlns="http://www.w3.org/2000/svg">
<path fill-rule="evenodd" clip-rule="evenodd" d="M1.08203 2.58203C1.08203 1.7536 1.7536 1.08203 2.58203 1.08203C3.41046 1.08203 4.08203 1.7536 4.08203 2.58203C4.08203 3.41046 3.41046 4.08203 2.58203 4.08203C1.7536 4.08203 1.08203 3.41046 1.08203 2.58203ZM2.83203 5.06969C4.09536 4.94426 5.08203 3.87837 5.08203 2.58203C5.08203 1.20132 3.96274 0.0820312 2.58203 0.0820312C1.20132 0.0820312 0.0820312 1.20132 0.0820312 2.58203C0.0820312 3.70144 0.817755 4.64901 1.83203 4.96758V6.9987V9.52851C0.817755 9.84708 0.0820312 10.7947 0.0820312 11.9141C0.0820312 13.2948 1.20132 14.4141 2.58203 14.4141C3.96274 14.4141 5.08203 13.2948 5.08203 11.9141C5.08203 10.6177 4.09536 9.55184 2.83203 9.42641V7.4987H8.16537C9.59192 7.4987 10.7722 6.44442 10.9697 5.07251C12.2475 4.96127 13.25 3.88873 13.25 2.58203C13.25 1.20132 12.1307 0.0820312 10.75 0.0820312C9.36929 0.0820312 8.25 1.20132 8.25 2.58203C8.25 3.6923 8.97376 4.63352 9.9752 4.95965C9.83441 5.83227 9.07771 6.4987 8.16537 6.4987H2.83203V5.06969ZM10.75 4.08203C11.5784 4.08203 12.25 3.41046 12.25 2.58203C12.25 1.7536 11.5784 1.08203 10.75 1.08203C9.92157 1.08203 9.25 1.7536 9.25 2.58203C9.25 3.41046 9.92157 4.08203 10.75 4.08203ZM2.58203 10.4141C1.7536 10.4141 1.08203 11.0856 1.08203 11.9141C1.08203 12.7425 1.7536 13.4141 2.58203 13.4141C3.41046 13.4141 4.08203 12.7425 4.08203 11.9141C4.08203 11.0856 3.41046 10.4141 2.58203 10.4141Z" fill="currentColor"/>
</svg>
