<svg viewBox="0 0 12 13" fill="none" xmlns="http://www.w3.org/2000/svg">
<g>
<path fill-rule="evenodd" clip-rule="evenodd" d="M5.99909 0.542969L6.35264 0.896522L7.35264 1.89652C7.54791 2.09178 7.54791 2.40837 7.35264 2.60363C7.15738 2.79889 6.8408 2.79889 6.64554 2.60363L6.49909 2.45718V5.08543C6.67464 5.14748 6.83519 5.24127 6.97384 5.35992L9.24614 4.04801L9.00366 3.98304C8.73692 3.91157 8.57863 3.6374 8.6501 3.37067C8.72157 3.10393 8.99574 2.94564 9.26248 3.01711L10.6285 3.38314L11.1115 3.51255L10.9821 3.99551L10.616 5.36154C10.5446 5.62827 10.2704 5.78656 10.0037 5.71509C9.73692 5.64362 9.57863 5.36945 9.6501 5.10272L9.69234 4.9451L7.47408 6.22581C7.4905 6.31473 7.49909 6.4064 7.49909 6.50008C7.49909 6.59375 7.4905 6.68542 7.47408 6.77434L9.69234 8.05505L9.6501 7.89743C9.57863 7.6307 9.73692 7.35653 10.0037 7.28506C10.2704 7.21359 10.5446 7.37188 10.616 7.63862L10.9821 9.00464L11.1115 9.4876L10.6285 9.61701L9.26248 9.98304C8.99574 10.0545 8.72157 9.89622 8.6501 9.62949C8.57863 9.36275 8.73692 9.08858 9.00366 9.01711L9.24614 8.95214L6.97384 7.64023C6.83519 7.75888 6.67464 7.85267 6.49909 7.91472V10.543L6.64554 10.3965C6.8408 10.2013 7.15738 10.2013 7.35264 10.3965C7.54791 10.5918 7.54791 10.9084 7.35264 11.1036L6.35264 12.1036L5.99909 12.4572L5.64554 12.1036L4.64554 11.1036C4.45028 10.9084 4.45028 10.5918 4.64554 10.3965C4.8408 10.2013 5.15738 10.2013 5.35264 10.3965L5.49909 10.543V7.91472C5.32353 7.85267 5.16296 7.75886 5.0243 7.64019L2.75197 8.95212L2.99453 9.01711C3.26126 9.08858 3.41955 9.36275 3.34808 9.62949C3.27661 9.89622 3.00244 10.0545 2.73571 9.98304L1.36968 9.61701L0.886719 9.4876L1.01613 9.00464L1.38215 7.63862C1.45362 7.37188 1.72779 7.21359 1.99453 7.28506C2.26126 7.35653 2.41955 7.6307 2.34808 7.89743L2.30586 8.05498L4.5241 6.77428C4.50767 6.68538 4.49909 6.59373 4.49909 6.50008C4.49909 6.40642 4.50767 6.31477 4.5241 6.22587L2.30586 4.94517L2.34808 5.10272C2.41955 5.36945 2.26126 5.64362 1.99453 5.71509C1.72779 5.78656 1.45362 5.62827 1.38215 5.36154L1.01613 3.99551L0.886719 3.51255L1.36968 3.38314L2.73571 3.01711C3.00244 2.94564 3.27661 3.10393 3.34808 3.37067C3.41955 3.6374 3.26126 3.91157 2.99453 3.98304L2.75198 4.04803L5.0243 5.35996C5.16296 5.24129 5.32353 5.14748 5.49909 5.08543V2.45718L5.35264 2.60363C5.15738 2.79889 4.8408 2.79889 4.64554 2.60363C4.45028 2.40837 4.45028 2.09178 4.64554 1.89652L5.64554 0.896522L5.99909 0.542969Z" fill="currentColor"/>
</g>
</svg>
