<svg xmlns="http://www.w3.org/2000/svg" viewBox="0 0 18 18" fill="none">
  <path fill-rule="evenodd" clip-rule="evenodd" d="M8.99909 0.417969L9.35264 0.771522L10.8526 2.27152C11.0479 2.46678 11.0479 2.78337 10.8526 2.97863C10.6574 3.17389 10.3408 3.17389 10.1455 2.97863L9.49909 2.33218V6.80583C9.94823 6.90774 10.3463 7.14402 10.6489 7.47016L14.5174 5.23671L13.5706 4.98304C13.3039 4.91157 13.1456 4.6374 13.2171 4.37067C13.2886 4.10393 13.5627 3.94564 13.8295 4.01711L15.8785 4.56615L16.3615 4.69556L16.2321 5.17852L15.683 7.22756C15.6115 7.49429 15.3374 7.65259 15.0706 7.58111C14.8039 7.50964 14.6456 7.23548 14.7171 6.96874L14.9367 6.14933L11.1494 8.33588C11.2142 8.54582 11.2491 8.76887 11.2491 9.00008C11.2491 9.23128 11.2142 9.45434 11.1494 9.66428L14.9367 11.8508L14.7171 11.0314C14.6456 10.7647 14.8039 10.4905 15.0706 10.419C15.3374 10.3476 15.6115 10.5059 15.683 10.7726L16.2321 12.8216L16.3615 13.3046L15.8785 13.434L13.8295 13.983C13.5627 14.0545 13.2886 13.8962 13.2171 13.6295C13.1456 13.3628 13.3039 13.0886 13.5706 13.0171L14.5174 12.7634L10.6489 10.53C10.3463 10.8561 9.94823 11.0924 9.49909 11.1943V15.668L10.1455 15.0215C10.3408 14.8263 10.6574 14.8263 10.8526 15.0215C11.0479 15.2168 11.0479 15.5334 10.8526 15.7286L9.35264 17.2286L8.99909 17.5822L8.64554 17.2286L7.14554 15.7286C6.95028 15.5334 6.95028 15.2168 7.14554 15.0215C7.3408 14.8263 7.65738 14.8263 7.85264 15.0215L8.49909 15.668V11.1943C8.04993 11.0924 7.65181 10.8561 7.34922 10.5299L3.48072 12.7634L4.42754 13.0171C4.69427 13.0886 4.85256 13.3628 4.78109 13.6295C4.70962 13.8962 4.43545 14.0545 4.16872 13.983L2.11968 13.434L1.63672 13.3046L1.76613 12.8216L2.31517 10.7726C2.38664 10.5059 2.66081 10.3476 2.92754 10.419C3.19427 10.4905 3.35256 10.7647 3.28109 11.0314L3.06156 11.8507L6.84871 9.6642C6.78396 9.45429 6.74909 9.23125 6.74909 9.00008C6.74909 8.7689 6.78396 8.54587 6.84871 8.33595L3.06156 6.14943L3.28109 6.96874C3.35256 7.23548 3.19427 7.50964 2.92754 7.58111C2.66081 7.65259 2.38664 7.49429 2.31517 7.22756L1.76613 5.17852L1.63672 4.69556L2.11968 4.56615L4.16872 4.01711C4.43545 3.94564 4.70962 4.10393 4.78109 4.37067C4.85256 4.6374 4.69427 4.91157 4.42754 4.98304L3.48073 5.23674L7.34922 7.47021C7.65181 7.14404 8.04993 6.90775 8.49909 6.80583V2.33218L7.85264 2.97863C7.65738 3.17389 7.3408 3.17389 7.14554 2.97863C6.95028 2.78337 6.95028 2.46678 7.14554 2.27152L8.64554 0.771522L8.99909 0.417969Z" fill="url(#paint0_linear_16731_78963)"/>
  <defs>
    <linearGradient id="paint0_linear_16731_78963" x1="8.99909" y1="0.417969" x2="8.99909" y2="17.5822" gradientUnits="userSpaceOnUse">
      <stop stop-color="currentColor"/>
      <stop offset="1" stop-color="currentColor"/>
    </linearGradient>
  </defs>
</svg>
