<svg viewBox="0 0 12 12" fill="none" xmlns="http://www.w3.org/2000/svg">
  <g clip-path="url(#clip0_9839_14730)">
    <path fill-rule="evenodd" clip-rule="evenodd" d="M6.00007 0.0429688L6.35362 0.396522L7.35362 1.39652C7.54888 1.59178 7.54888 1.90837 7.35362 2.10363C7.15836 2.29889 6.84178 2.29889 6.64651 2.10363L6.50007 1.95718V4.58543C6.67562 4.64748 6.83617 4.74127 6.97482 4.85992L9.24712 3.54801L9.00463 3.48304C8.7379 3.41157 8.57961 3.1374 8.65108 2.87067C8.72255 2.60393 8.99672 2.44564 9.26345 2.51711L10.6295 2.88314L11.1124 3.01255L10.983 3.49551L10.617 4.86154C10.5455 5.12827 10.2714 5.28656 10.0046 5.21509C9.7379 5.14362 9.57961 4.86945 9.65108 4.60272L9.69331 4.4451L7.47505 5.72581C7.49148 5.81473 7.50007 5.9064 7.50007 6.00008C7.50007 6.09375 7.49148 6.18542 7.47505 6.27434L9.69331 7.55505L9.65108 7.39743C9.57961 7.1307 9.7379 6.85653 10.0046 6.78506C10.2714 6.71359 10.5455 6.87188 10.617 7.13862L10.983 8.50464L11.1124 8.9876L10.6295 9.11701L9.26345 9.48304C8.99672 9.55451 8.72255 9.39622 8.65108 9.12949C8.57961 8.86275 8.7379 8.58858 9.00463 8.51711L9.24712 8.45214L6.97482 7.14023C6.83617 7.25888 6.67562 7.35267 6.50007 7.41472V10.043L6.64651 9.89652C6.84178 9.70126 7.15836 9.70126 7.35362 9.89652C7.54888 10.0918 7.54888 10.4084 7.35362 10.6036L6.35362 11.6036L6.00007 11.9572L5.64651 11.6036L4.64651 10.6036C4.45125 10.4084 4.45125 10.0918 4.64651 9.89652C4.84178 9.70126 5.15836 9.70126 5.35362 9.89652L5.50007 10.043V7.41472C5.3245 7.35267 5.16394 7.25886 5.02528 7.14019L2.75295 8.45212L2.9955 8.51711C3.26224 8.58858 3.42053 8.86275 3.34906 9.12949C3.27759 9.39622 3.00342 9.55451 2.73668 9.48304L1.37066 9.11701L0.887695 8.9876L1.0171 8.50464L1.38313 7.13862C1.4546 6.87188 1.72877 6.71359 1.9955 6.78506C2.26224 6.85653 2.42053 7.1307 2.34906 7.39743L2.30684 7.55498L4.52507 6.27428C4.50865 6.18538 4.50007 6.09373 4.50007 6.00008C4.50007 5.90642 4.50865 5.81477 4.52507 5.72587L2.30684 4.44517L2.34906 4.60272C2.42053 4.86945 2.26224 5.14362 1.9955 5.21509C1.72877 5.28656 1.4546 5.12827 1.38313 4.86154L1.0171 3.49551L0.887695 3.01255L1.37066 2.88314L2.73668 2.51711C3.00342 2.44564 3.27759 2.60393 3.34906 2.87067C3.42053 3.1374 3.26224 3.41157 2.9955 3.48304L2.75295 3.54803L5.02528 4.85996C5.16394 4.74129 5.3245 4.64748 5.50007 4.58543V1.95718L5.35362 2.10363C5.15836 2.29889 4.84178 2.29889 4.64651 2.10363C4.45125 1.90837 4.45125 1.59178 4.64651 1.39652L5.64651 0.396522L6.00007 0.0429688Z" fill="currentColor"/>
  </g>
  <defs>
    <clipPath id="clip0_9839_14730">
      <rect width="100%" height="100%" fill="currentColor"/>
    </clipPath>
  </defs>
</svg>