<svg viewBox="0 0 6 6" fill="none" xmlns="http://www.w3.org/2000/svg">
<path d="M5.96799 2.07679C5.9463 2.05353 5.91468 2.03414 5.87636 2.02065C5.83805 2.00715 5.79443 2.00002 5.75 2H0.250252C0.205805 1.99997 0.162149 2.00705 0.123782 2.02052C0.085415 2.03398 0.0537242 2.05334 0.0319747 2.07659C0.0102251 2.09985 -0.000796661 2.12616 4.48161e-05 2.15283C0.000886294 2.17949 0.0135606 2.20553 0.036762 2.22828L2.78663 4.92805C2.80894 4.95002 2.8403 4.96818 2.87769 4.98078C2.91508 4.99338 2.95724 5 3.00012 5C3.04301 5 3.08517 4.99338 3.12256 4.98078C3.15995 4.96818 3.1913 4.95002 3.21361 4.92805L5.96349 2.22828C5.98658 2.20554 5.99917 2.17953 5.99996 2.1529C6.00075 2.12628 5.98971 2.10001 5.96799 2.07679Z" fill="currentColor"/>
</svg>
