<svg viewBox="0 0 12 12" fill="none" xmlns="http://www.w3.org/2000/svg">
<g clip-path="url(#clip0_5318_292406)">
<path fill-rule="evenodd" clip-rule="evenodd" d="M4.23299 1.61084C3.95684 1.61084 3.73299 1.8347 3.73299 2.11084C3.73299 2.38698 3.95684 2.61084 4.23299 2.61084L8.68115 2.61084L1.75736 9.53463C1.5621 9.72989 1.5621 10.0465 1.75736 10.2417C1.95262 10.437 2.26921 10.437 2.46447 10.2417L9.38984 3.31637L9.38984 7.76769C9.38984 8.04384 9.6137 8.26769 9.88984 8.26769C10.166 8.26769 10.3898 8.04384 10.3898 7.76769V2.11084C10.3898 1.98259 10.3416 1.86562 10.2622 1.77711C10.2559 1.77009 10.2494 1.7632 10.2426 1.75646C10.1377 1.65147 9.99761 1.60293 9.86019 1.61084L4.23299 1.61084Z" fill="currentColor"/>
</g>
<defs>
<clipPath id="clip0_5318_292406">
<rect width="100%" height="100%" fill="currentColor"/>
</clipPath>
</defs>
</svg>
