<svg width="16" height="16" viewBox="0 0 16 16" fill="none" xmlns="http://www.w3.org/2000/svg">
<g clip-path="url(#clip0_8822_87137)">
<rect x="6.41602" y="6.41797" width="8.54962" height="8.54962" rx="1" stroke="#C9C9CF" stroke-linejoin="round"/>
<path fill-rule="evenodd" clip-rule="evenodd" d="M1 2.5C1 1.67157 1.67157 1 2.5 1H9.04962C9.87805 1 10.5496 1.67157 10.5496 2.5V4.5C10.5496 4.77614 10.3258 5 10.0496 5C9.77348 5 9.54962 4.77614 9.54962 4.5V2.5C9.54962 2.22386 9.32576 2 9.04962 2H2.5C2.22386 2 2 2.22386 2 2.5V9.04962C2 9.32576 2.22386 9.54962 2.5 9.54962H4.5C4.77614 9.54962 5 9.77348 5 10.0496C5 10.3258 4.77614 10.5496 4.5 10.5496H2.5C1.67157 10.5496 1 9.87805 1 9.04962V2.5Z" fill="#C9C9CF"/>
</g>
<defs>
<clipPath id="clip0_8822_87137">
<rect width="16" height="16" fill="white"/>
</clipPath>
</defs>
</svg>
