<svg viewBox="0 0 12 13" fill="none" xmlns="http://www.w3.org/2000/svg">
<g>
<path d="M1.41666 12.0003C1.92292 12.0003 2.33332 11.5899 2.33332 11.0837C2.33332 10.5774 1.92292 10.167 1.41666 10.167C0.910402 10.167 0.5 10.5774 0.5 11.0837C0.5 11.5899 0.910402 12.0003 1.41666 12.0003Z" fill="currentColor" stroke="currentColor" stroke-width="0.5" stroke-linecap="round" stroke-linejoin="round"/>
<path d="M6.00064 12.0003C6.5069 12.0003 6.9173 11.5899 6.9173 11.0837C6.9173 10.5774 6.5069 10.167 6.00064 10.167C5.49439 10.167 5.08398 10.5774 5.08398 11.0837C5.08398 11.5899 5.49439 12.0003 6.00064 12.0003Z" fill="currentColor" stroke="currentColor" stroke-width="0.5" stroke-linecap="round" stroke-linejoin="round"/>
<path d="M10.5827 12.0003C11.0889 12.0003 11.4993 11.5899 11.4993 11.0837C11.4993 10.5774 11.0889 10.167 10.5827 10.167C10.0764 10.167 9.66602 10.5774 9.66602 11.0837C9.66602 11.5899 10.0764 12.0003 10.5827 12.0003Z" fill="currentColor" stroke="currentColor" stroke-width="0.5" stroke-linecap="round" stroke-linejoin="round"/>
<path d="M6 10.1663V7.59961" stroke="currentColor" stroke-linecap="round" stroke-linejoin="round"/>
<path d="M9.93605 10.4354L8.93359 9.43293V7.59961" stroke="currentColor" stroke-linecap="round" stroke-linejoin="round"/>
<path d="M2.06445 10.4347L3.06618 9.43293V7.59961" stroke="currentColor" stroke-linecap="round" stroke-linejoin="round"/>
<path d="M9.29993 3.20007C9.23613 3.20007 9.17379 3.20447 9.11146 3.20961C8.88614 2.56402 8.46559 2.0045 7.90808 1.6086C7.35058 1.21269 6.68373 1 5.99995 1C5.31618 1 4.64933 1.21269 4.09182 1.6086C3.53432 2.0045 3.11377 2.56402 2.88845 3.20961C2.82611 3.20447 2.76378 3.20007 2.69998 3.20007C2.11651 3.20007 1.55694 3.43186 1.14436 3.84443C0.731783 4.25701 0.5 4.81658 0.5 5.40006C0.5 5.98353 0.731783 6.5431 1.14436 6.95568C1.55694 7.36825 2.11651 7.60004 2.69998 7.60004H9.29993C9.8834 7.60004 10.443 7.36825 10.8555 6.95568C11.2681 6.5431 11.4999 5.98353 11.4999 5.40006C11.4999 4.81658 11.2681 4.25701 10.8555 3.84443C10.443 3.43186 9.8834 3.20007 9.29993 3.20007Z" stroke="currentColor" stroke-linecap="round" stroke-linejoin="round"/>
</g>
</svg>
