<svg viewBox="0 0 12 12" fill="none" xmlns="http://www.w3.org/2000/svg">
<g clip-path="url(#clip0_11801_8706)">
<path fill-rule="evenodd" clip-rule="evenodd" d="M5.24933 0C5.00869 0 4.80219 0.171407 4.75788 0.407927L4.50235 1.77184C3.98043 1.95391 3.49658 2.23085 3.07523 2.58867L1.77846 2.12876C1.55118 2.04815 1.29874 2.14126 1.17824 2.35014L0.428235 3.65014C0.308119 3.85834 0.353147 4.12255 0.535445 4.27921L1.58472 5.18093C1.53133 5.44848 1.50272 5.72061 1.49937 5.99387L1.49922 5.99387L1.49937 6.00613C1.50272 6.27939 1.53133 6.55152 1.58472 6.81907L0.535445 7.72079C0.353147 7.87745 0.308119 8.14166 0.428235 8.34986L1.17824 9.64986C1.29848 9.85828 1.55012 9.9515 1.77713 9.87171L3.07449 9.4157C3.49606 9.77387 3.98024 10.051 4.50253 10.2332L4.75793 11.5923C4.80235 11.8287 5.0088 12 5.24933 12H6.74933C6.98996 12 7.19647 11.8286 7.24078 11.5921L7.4963 10.2282C8.01853 10.046 8.50265 9.76883 8.92417 9.4107L10.2215 9.86671C10.4485 9.9465 10.7002 9.85328 10.8204 9.64486L11.5704 8.34486C11.6907 8.13629 11.6453 7.87159 11.4624 7.71506L10.4141 6.8183C10.4674 6.551 10.4959 6.27913 10.4993 6.00613L10.4994 6.00613L10.4993 5.99387C10.4959 5.72061 10.4673 5.44848 10.4139 5.18093L11.4632 4.27921C11.6455 4.12255 11.6905 3.85834 11.5704 3.65014L10.8204 2.35014C10.7001 2.14162 10.4483 2.04843 10.2213 2.12838L8.92402 2.58517C8.5025 2.22708 8.01838 1.94995 7.49616 1.76779L7.24074 0.407712C7.19634 0.171293 6.98988 0 6.74933 0H5.24933ZM5.42978 2.25207L5.66435 1H6.33449L6.56892 2.24829C6.60433 2.43682 6.74448 2.58848 6.92964 2.63862C7.50569 2.79461 8.03209 3.09576 8.45853 3.51327C8.59466 3.64655 8.7947 3.69089 8.9744 3.62762L10.1617 3.20953L10.4971 3.7909L9.53144 4.62079C9.38458 4.747 9.3238 4.94666 9.37542 5.13329C9.45354 5.41573 9.49517 5.707 9.49928 6C9.49517 6.293 9.45354 6.58427 9.37542 6.86671C9.32369 7.05373 9.38485 7.2538 9.5323 7.37994L10.4967 8.20493L10.1616 8.78568L8.97413 8.36829C8.79449 8.30515 8.59459 8.34952 8.45853 8.48273C8.03209 8.90024 7.50569 9.20139 6.92964 9.35738C6.7444 9.40754 6.60422 9.5593 6.56888 9.74793L6.3343 11H5.66412L5.42973 9.75266C5.3943 9.56415 5.25416 9.41252 5.06902 9.36238C4.49297 9.20639 3.96656 8.90524 3.54012 8.48773C3.40407 8.35452 3.20416 8.31015 3.02453 8.37329L1.83704 8.79068L1.50152 8.2091L2.46721 7.37921C2.61407 7.253 2.67486 7.05334 2.62323 6.86671C2.54511 6.58427 2.50349 6.293 2.49937 6C2.50349 5.707 2.54511 5.41573 2.62323 5.13329C2.67486 4.94666 2.61407 4.747 2.46721 4.62079L1.50152 3.7909L1.83645 3.21035L3.0232 3.63124C3.20314 3.69506 3.4037 3.65084 3.54012 3.51727C3.96656 3.09976 4.49297 2.79861 5.06902 2.64262C5.25426 2.59246 5.39444 2.4407 5.42978 2.25207ZM5 6C5 5.44772 5.44772 5 6 5C6.55228 5 7 5.44772 7 6C7 6.55228 6.55228 7 6 7C5.44772 7 5 6.55228 5 6ZM6 4C4.89543 4 4 4.89543 4 6C4 7.10457 4.89543 8 6 8C7.10457 8 8 7.10457 8 6C8 4.89543 7.10457 4 6 4Z" fill="currentColor"/>
</g>
<defs>
<clipPath id="clip0_11801_8706">
<rect width="100%" height="100%" fill="currentColor"/>
</clipPath>
</defs>
</svg>
