<svg viewBox="0 0 12 12" fill="none" xmlns="http://www.w3.org/2000/svg">
  <g>
    <path d="M4.58984 5.02802L7.34791 3.30469" stroke="currentColor" stroke-linecap="round" stroke-linejoin="round"/>
    <path d="M4.58984 6.97266L7.34791 8.69599" stroke="currentColor" stroke-linecap="round" stroke-linejoin="round"/>
    <path d="M8.90169 4.16667C9.91421 4.16667 10.735 3.34586 10.735 2.33333C10.735 1.32081 9.91421 0.5 8.90169 0.5C7.88917 0.5 7.06836 1.32081 7.06836 2.33333C7.06836 3.34586 7.88917 4.16667 8.90169 4.16667Z" stroke="currentColor" stroke-linecap="round" stroke-linejoin="round"/>
    <path d="M8.90169 11.4987C9.91421 11.4987 10.735 10.6779 10.735 9.66536C10.735 8.65284 9.91421 7.83203 8.90169 7.83203C7.88917 7.83203 7.06836 8.65284 7.06836 9.66536C7.06836 10.6779 7.88917 11.4987 8.90169 11.4987Z" stroke="currentColor" stroke-linecap="round" stroke-linejoin="round"/>
    <path d="M3.03451 7.83464C4.04703 7.83464 4.86784 7.01382 4.86784 6.0013C4.86784 4.98878 4.04703 4.16797 3.03451 4.16797C2.02198 4.16797 1.20117 4.98878 1.20117 6.0013C1.20117 7.01382 2.02198 7.83464 3.03451 7.83464Z" stroke="currentColor" stroke-linecap="round" stroke-linejoin="round"/>
  </g>
</svg>
