<svg viewBox="0 0 18 18" fill="none" xmlns="http://www.w3.org/2000/svg">
<path fill-rule="evenodd" clip-rule="evenodd" d="M2.8753 2.85852C2.56795 3.10074 2.5 3.2875 2.5 3.4C2.5 3.5125 2.56795 3.69926 2.8753 3.94148C3.17701 4.17926 3.64459 4.41526 4.26695 4.62271C5.50643 5.03588 7.25056 5.3 9.2 5.3C11.1494 5.3 12.8936 5.03588 14.1331 4.62271C14.7554 4.41526 15.223 4.17926 15.5247 3.94148C15.8321 3.69926 15.9 3.5125 15.9 3.4C15.9 3.2875 15.8321 3.10074 15.5247 2.85852C15.223 2.62074 14.7554 2.38474 14.1331 2.17729C12.8936 1.76412 11.1494 1.5 9.2 1.5C7.25056 1.5 5.50643 1.76412 4.26695 2.17729C3.64459 2.38474 3.17701 2.62074 2.8753 2.85852ZM3.95072 1.2286C5.31712 0.773134 7.17299 0.5 9.2 0.5C11.227 0.5 13.0829 0.773134 14.4493 1.2286C15.1299 1.45547 15.7167 1.73662 16.1437 2.07311C16.565 2.40515 16.9 2.84976 16.9 3.4C16.9 3.95024 16.565 4.39485 16.1437 4.72689C15.7167 5.06338 15.1299 5.34453 14.4493 5.5714C13.0829 6.02687 11.227 6.3 9.2 6.3C7.17299 6.3 5.31712 6.02687 3.95072 5.5714C3.27013 5.34453 2.68329 5.06338 2.25632 4.72689C1.835 4.39485 1.5 3.95024 1.5 3.4C1.5 2.84976 1.835 2.40515 2.25632 2.07311C2.68329 1.73662 3.27013 1.45547 3.95072 1.2286Z" fill="currentColor"/>
<path fill-rule="evenodd" clip-rule="evenodd" d="M2.5 3.4C2.5 3.12386 2.27614 2.89941 2 2.89941C1.72386 2.89941 1.5 3.12386 1.5 3.4V14.5994C1.5 15.1532 1.82768 15.6021 2.25098 15.9393C2.67731 16.2789 3.26339 16.5593 3.94298 16.7841C5.30727 17.2354 7.16321 17.4994 9.2 17.4994C11.2368 17.4994 13.0927 17.2354 14.457 16.7841C15.1366 16.5593 15.7227 16.2789 16.149 15.9393C16.5723 15.6021 16.9 15.1532 16.9 14.5994V3.4C16.9 3.12386 16.6761 2.89941 16.4 2.89941C16.1239 2.89941 15.9 3.12386 15.9 3.4V9C15.9 9.12621 15.8277 9.31734 15.526 9.55766C15.2273 9.79556 14.7634 10.0301 14.143 10.2353C12.9073 10.644 11.1632 10.9 9.2 10.9C7.23679 10.9 5.49273 10.644 4.25702 10.2353C3.63661 10.0301 3.17269 9.79556 2.87402 9.55766C2.57232 9.31734 2.5 9.12621 2.5 9V3.4ZM2.5 10.5199V14.5994C2.5 14.7256 2.57232 14.9167 2.87402 15.1571C3.17269 15.395 3.63661 15.6295 4.25702 15.8347C5.49273 16.2434 7.23679 16.4994 9.2 16.4994C11.1632 16.4994 12.9073 16.2434 14.143 15.8347C14.7634 15.6295 15.2273 15.395 15.526 15.1571C15.8277 14.9167 15.9 14.7256 15.9 14.5994V10.5199C15.5056 10.78 15.0126 11.0009 14.457 11.1847C13.0927 11.636 11.2368 11.9 9.2 11.9C7.16321 11.9 5.30727 11.636 3.94298 11.1847C3.38744 11.0009 2.89438 10.78 2.5 10.5199Z" fill="currentColor"/>
</svg>
