<svg width="16" height="16" viewBox="0 0 16 16" fill="none" xmlns="http://www.w3.org/2000/svg">
<g clip-path="url(#clip0_8660_63698)">
<path fill-rule="evenodd" clip-rule="evenodd" d="M16 8C16 12.4183 12.4183 16 8 16C3.58172 16 0 12.4183 0 8C0 3.58172 3.58172 0 8 0C12.4183 0 16 3.58172 16 8ZM4.07574 4.07574C4.31005 3.84142 4.68995 3.84142 4.92426 4.07574L8 7.15147L11.0757 4.07574C11.3101 3.84142 11.6899 3.84142 11.9243 4.07574C12.1586 4.31005 12.1586 4.68995 11.9243 4.92426L8.84853 8L11.9243 11.0757C12.1586 11.3101 12.1586 11.6899 11.9243 11.9243C11.6899 12.1586 11.3101 12.1586 11.0757 11.9243L8 8.84853L4.92426 11.9243C4.68995 12.1586 4.31005 12.1586 4.07574 11.9243C3.84142 11.6899 3.84142 11.3101 4.07574 11.0757L7.15147 8L4.07574 4.92426C3.84142 4.68995 3.84142 4.31005 4.07574 4.07574Z" fill="#ED5E5E"/>
</g>
<defs>
<clipPath id="clip0_8660_63698">
<rect width="16" height="16" fill="white"/>
</clipPath>
</defs>
</svg>
