<svg viewBox="0 0 12 13" fill="none" xmlns="http://www.w3.org/2000/svg">
<g>
<path fill-rule="evenodd" clip-rule="evenodd" d="M3 1C3 0.723858 2.77614 0.5 2.5 0.5C2.22386 0.5 2 0.723858 2 1V12C2 12.2761 2.22386 12.5 2.5 12.5C2.77614 12.5 3 12.2761 3 12V1ZM4.72361 1.55279C4.56861 1.47529 4.38454 1.48357 4.23713 1.57467C4.08973 1.66578 4 1.82671 4 2V8C4 8.17329 4.08973 8.33422 4.23713 8.42533C4.38454 8.51643 4.56861 8.52471 4.72361 8.44721L10.7236 5.44721C10.893 5.36252 11 5.18939 11 5C11 4.81061 10.893 4.63748 10.7236 4.55279L4.72361 1.55279ZM9.38197 5L5 7.19098V2.80902L9.38197 5Z" fill="currentColor"/>
</g>
</svg>
