<svg xmlns="http://www.w3.org/2000/svg" viewBox="0 0 12 12"><g fill="currentColor" class="nc-icon-wrapper"><line x1="6" y1="3.75" x2="6" y2="10.75" fill="none" stroke="currentColor" stroke-linecap="round" stroke-linejoin="round" stroke-width="1" data-color="color-2"></line><path d="m1.75,2.25c0-.828.635-1.5,1.417-1.5,2.096,0,2.833,3,2.833,3h-2.833c-.782,0-1.417-.672-1.417-1.5Z" fill="none" stroke="currentColor" stroke-linecap="round" stroke-linejoin="round" stroke-width="1" data-color="color-2"></path><path d="m8.833,3.75h-2.833s.737-3,2.833-3c.782,0,1.417.672,1.417,1.5,0,.828-.635,1.5-1.417,1.5Z" fill="none" stroke="currentColor" stroke-linecap="round" stroke-linejoin="round" stroke-width="1" data-color="color-2"></path><line x1="11.25" y1="3.75" x2=".75" y2="3.75" fill="none" stroke="currentColor" stroke-linecap="round" stroke-linejoin="round" stroke-width="1"></line><path d="m10.25,3.75v5c0,1.105-.895,2-2,2H3.75c-1.105,0-2-.895-2-2V3.75" fill="none" stroke="currentColor" stroke-linecap="round" stroke-linejoin="round" stroke-width="1"></path></g></svg>