<svg viewBox="0 0 12 12" fill="none" xmlns="http://www.w3.org/2000/svg">
<path fill-rule="evenodd" clip-rule="evenodd" d="M9.44685 1.10526C9.44685 1.71568 8.95201 2.21053 8.34159 2.21053C7.73117 2.21053 7.23633 1.71568 7.23633 1.10526C7.23633 0.494843 7.73117 0 8.34159 0C8.95201 0 9.44685 0.494843 9.44685 1.10526ZM9.44685 5.99979C9.44685 6.61021 8.95201 7.10506 8.34159 7.10506C7.73117 7.10506 7.23633 6.61021 7.23633 5.99979C7.23633 5.38937 7.73117 4.89453 8.34159 4.89453C8.95201 4.89453 9.44685 5.38937 9.44685 5.99979ZM4.71053 6C4.71053 6.61042 4.21568 7.10526 3.60526 7.10526C2.99484 7.10526 2.5 6.61042 2.5 6C2.5 5.38958 2.99484 4.89474 3.60526 4.89474C4.21568 4.89474 4.71053 5.38958 4.71053 6ZM8.34159 11.9996C8.95201 11.9996 9.44685 11.5047 9.44685 10.8943C9.44685 10.2839 8.95201 9.78906 8.34159 9.78906C7.73117 9.78906 7.23633 10.2839 7.23633 10.8943C7.23633 11.5047 7.73117 11.9996 8.34159 11.9996ZM3.60526 11.9996C4.21568 11.9996 4.71053 11.5047 4.71053 10.8943C4.71053 10.2839 4.21568 9.78906 3.60526 9.78906C2.99484 9.78906 2.5 10.2839 2.5 10.8943C2.5 11.5047 2.99484 11.9996 3.60526 11.9996ZM4.71053 1.10526C4.71053 1.71568 4.21568 2.21053 3.60526 2.21053C2.99484 2.21053 2.5 1.71568 2.5 1.10526C2.5 0.494843 2.99484 0 3.60526 0C4.21568 0 4.71053 0.494843 4.71053 1.10526Z" fill="currentColor"/>
</svg>
