<svg xmlns="http://www.w3.org/2000/svg" viewBox="0 0 12 12"><g fill="currentColor" class="nc-icon-wrapper"><path d="m7.724,5.482l-2.308-1.385c-.403-.242-.916.048-.916.518v2.771c0,.47.513.76.916.518l2.308-1.385c.391-.235.391-.802,0-1.037Z" fill="currentColor" stroke-width="0" data-color="color-2"></path><path d="m7.282,11.093l-.009-.002.009.002Z" stroke-width="0" fill="currentColor"></path><path d="m6,.75c2.899,0,5.25,2.35,5.25,5.25,0,2.899-2.35,5.25-5.25,5.25" fill="none" stroke="currentColor" stroke-linecap="round" stroke-linejoin="round" stroke-width="1"></path><circle cx=".75" cy="6" r=".75" fill="currentColor" stroke-width="0" data-color="color-2"></circle><circle cx="1.453" cy="3.375" r=".75" fill="currentColor" stroke-width="0" data-color="color-2"></circle><circle cx="3.375" cy="1.453" r=".75" fill="currentColor" stroke-width="0" data-color="color-2"></circle><circle cx="1.453" cy="8.625" r=".75" fill="currentColor" stroke-width="0" data-color="color-2"></circle><circle cx="3.375" cy="10.547" r=".75" fill="currentColor" stroke-width="0" data-color="color-2"></circle></g></svg>