<svg viewBox="0 0 65 15" fill="none" xmlns="http://www.w3.org/2000/svg">
<path d="M6.50078 14.3948H8.90346V7.89144C8.90346 5.88566 7.65362 4.40501 5.52115 4.40501C4.48245 4.40501 3.36962 4.85402 2.7913 5.67971V0.855469H0.390625V14.3893H2.7913V9.25894C2.7913 8.0603 3.40764 6.56107 4.84774 6.56107C6.11653 6.56107 6.50078 7.25316 6.50078 8.37944V14.3948ZM16.2026 10.5485C16.2026 11.979 15.1544 12.7602 13.6687 12.7602C12.9249 12.7602 12.2572 12.2964 12.2572 11.5523C12.2572 10.7711 12.9629 10.3444 13.6878 10.2887L16.2026 10.1032V10.5485ZM18.2037 14.5452C18.6138 14.5582 19.0205 14.4689 19.3851 14.2855V12.5746C19.2853 12.5976 19.1833 12.61 19.0808 12.6118C18.6813 12.6118 18.5291 12.4448 18.5291 11.9976V8.41098C18.5591 7.74854 18.4617 7.08648 18.2419 6.45901C17.6712 5.00803 16.2216 4.48849 14.5267 4.48849C12.3142 4.48849 10.5412 5.4552 10.4082 7.62982H12.7156C12.7727 6.73734 13.4194 6.25492 14.5267 6.25492C15.8792 6.25492 16.2026 6.86721 16.2026 7.77826V8.37387L13.2844 8.57241C11.3973 8.70228 9.93063 9.76175 9.93063 11.6024C9.93063 13.1832 11.1501 14.6324 13.5146 14.6324C14.9242 14.6324 16.0675 13.9644 16.5259 13.1832C16.6021 13.9087 17.1728 14.5396 18.2018 14.5396L18.2037 14.5452ZM25.6894 6.78743C25.8166 6.78834 25.9435 6.79639 26.0698 6.81155V4.62209C25.9671 4.62209 25.8643 4.59983 25.7635 4.59983C24.5994 4.59983 23.418 5.0637 22.9615 6.17884L22.7503 4.72971H20.7282V14.3968H23.1308V9.52612C23.1308 7.96381 24.0077 6.793 25.6837 6.793L25.6894 6.78743ZM33.2073 14.4005H35.5909V7.94526C35.5909 5.93762 34.3506 4.48849 32.2352 4.48849C31.0939 4.48849 29.9106 4.95236 29.319 5.97288L29.1477 4.72785H27.1523V14.3948H29.5339V10.4557C29.5339 9.63745 29.5149 8.63364 29.8592 7.87103C30.1826 7.1641 30.7362 6.64455 31.5713 6.64455C32.8287 6.64455 33.2092 7.33294 33.2092 8.46664L33.2073 14.4005ZM43.4132 8.60023H39.1292C39.1187 8.05519 39.3007 7.52321 39.6447 7.09359C39.8428 6.85238 40.096 6.65965 40.384 6.53079C40.672 6.40194 40.9869 6.3405 41.3035 6.3514C41.5802 6.33698 41.857 6.37903 42.1161 6.47488C42.3752 6.57073 42.6109 6.71826 42.8083 6.90804C43.1887 7.3181 43.3998 7.87474 43.4189 8.60023H43.4132ZM45.8005 9.64115C45.8386 8.43325 45.6674 7.33665 44.9426 6.27532C44.1246 5.06741 42.7892 4.49221 41.3282 4.49221C40.7428 4.47554 40.16 4.57574 39.6157 4.78665C39.0714 4.99755 38.5769 5.31471 38.1628 5.71868C37.2116 6.66682 36.7341 8.04174 36.7341 9.58549C36.7341 11.1664 37.2668 12.5227 38.256 13.4523C38.6696 13.8438 39.1595 14.1508 39.6966 14.355C40.2336 14.5593 40.8072 14.6568 41.3834 14.6417C42.6409 14.6417 43.8793 14.252 44.7182 13.2853C45.0986 12.8382 45.5 12.0774 45.5571 11.5003H43.2743C43.1941 11.8103 43.0291 12.0932 42.7968 12.3186C42.4544 12.6526 42.0359 12.7825 41.3491 12.7825C40.7986 12.7807 40.271 12.5674 39.8806 12.1887C39.6338 11.9374 39.4423 11.6396 39.3176 11.3135C39.193 10.9874 39.138 10.6399 39.1557 10.2924H45.7815C45.7815 10.0865 45.8005 9.64115 45.8005 9.64115ZM49.0003 7.42943C49.0059 7.20389 49.0817 6.98535 49.2176 6.80276C49.3535 6.62019 49.543 6.48219 49.7611 6.40706C50.0895 6.28696 50.4404 6.23637 50.7903 6.25862C51.2637 6.24576 51.7253 6.4044 52.0858 6.70393C52.3349 6.94567 52.4781 7.27229 52.4853 7.61498H54.7547C54.7262 6.86863 54.4135 6.15944 53.8777 5.6259C53.1549 4.86144 51.9545 4.49035 50.7732 4.49035C49.5329 4.49035 48.4904 4.84289 47.7619 5.45705C47.4365 5.722 47.1768 6.05516 47.0018 6.4317C46.8269 6.80823 46.7414 7.21842 46.7517 7.63167C46.7517 8.85814 47.6667 9.93614 49.0192 10.2163C49.8962 10.4019 50.8873 10.4576 51.7643 10.5874C52.373 10.6802 52.7554 11.0513 52.7554 11.6098C52.7554 12.6693 51.536 12.8363 50.7351 12.8363C50.0484 12.8363 49.6109 12.7064 49.2285 12.4096C48.965 12.1794 48.7883 11.8697 48.7263 11.53H46.4815C46.5738 12.2926 46.9388 12.999 47.5126 13.5247C48.3325 14.2873 49.4568 14.638 50.7161 14.638C52.0686 14.638 53.307 14.304 54.1079 13.5247C54.3924 13.2473 54.6157 12.9161 54.764 12.5513C54.9121 12.1866 54.9822 11.7961 54.9697 11.4039C54.9697 9.87865 53.8283 8.91196 52.2627 8.67074C51.2906 8.5223 51.0433 8.50375 50.1473 8.39242C49.6147 8.31821 49.006 8.11224 49.006 7.42572L49.0003 7.42943ZM61.6296 7.61127H63.8915C63.863 6.86493 63.5503 6.15574 63.0145 5.6222C62.2898 4.86144 61.0894 4.49035 59.9157 4.49035C58.6773 4.49035 57.6329 4.84289 56.9043 5.45705C56.579 5.722 56.3192 6.05516 56.1443 6.4317C55.9693 6.80823 55.8839 7.21842 55.8942 7.63167C55.8942 8.85814 56.8092 9.93614 58.1617 10.2163C59.0387 10.4019 60.0298 10.4576 60.9067 10.5874C61.5154 10.6802 61.8979 11.0513 61.8979 11.6098C61.8979 12.6693 60.6765 12.8363 59.8777 12.8363C59.1909 12.8363 58.7534 12.7064 58.371 12.4096C58.1075 12.1794 57.9307 11.8697 57.8688 11.53H55.6164C55.7084 12.2931 56.0744 12.9996 56.6494 13.5247C57.4674 14.2873 58.5916 14.638 59.851 14.638C61.2035 14.638 62.4419 14.304 63.2428 13.5247C63.5267 13.247 63.7491 12.9156 63.8968 12.5509C64.0443 12.1861 64.1137 11.7958 64.1008 11.4039C64.1008 9.87865 62.9594 8.91196 61.3938 8.67074C60.4217 8.5223 60.1744 8.50375 59.2784 8.39242C58.7458 8.31821 58.137 8.11224 58.137 7.42572C58.1427 7.20017 58.2185 6.98163 58.3543 6.79906C58.4903 6.61648 58.6798 6.47849 58.8979 6.40334C59.2263 6.28325 59.5771 6.23265 59.9271 6.25492C60.4005 6.24205 60.8621 6.4007 61.2226 6.70023C61.4723 6.94178 61.616 7.26836 61.6239 7.61127" fill="currentColor"/>
</svg>
