<svg viewBox="0 0 18 18" fill="none" xmlns="http://www.w3.org/2000/svg">
<path fill-rule="evenodd" clip-rule="evenodd" d="M3 3.25C1.89511 3.25 1 4.14511 1 5.25V11.25C1 12.3549 1.89511 13.25 3 13.25H10.5C10.7761 13.25 11 13.0261 11 12.75C11 12.4739 10.7761 12.25 10.5 12.25H3C2.44739 12.25 2 11.8026 2 11.25V5.25C2 4.69739 2.44739 4.25 3 4.25H15C15.5526 4.25 16 4.69739 16 5.25V9C16 9.27614 16.2239 9.5 16.5 9.5C16.7761 9.5 17 9.27614 17 9V5.25C17 4.14511 16.1049 3.25 15 3.25H3ZM5.4375 9.1875C5.95527 9.1875 6.375 8.76777 6.375 8.25C6.375 7.73223 5.95527 7.3125 5.4375 7.3125C4.91973 7.3125 4.5 7.73223 4.5 8.25C4.5 8.76777 4.91973 9.1875 5.4375 9.1875ZM9 9.1875C9.51777 9.1875 9.9375 8.76777 9.9375 8.25C9.9375 7.73223 9.51777 7.3125 9 7.3125C8.48223 7.3125 8.0625 7.73223 8.0625 8.25C8.0625 8.76777 8.48223 9.1875 9 9.1875ZM13.5 7.5C13.7761 7.5 14 7.72386 14 8V12.375C14 12.6511 13.7761 12.875 13.5 12.875C13.2239 12.875 13 12.6511 13 12.375V8C13 7.72386 13.2239 7.5 13.5 7.5ZM14.4375 15.5625C14.4375 16.0803 14.0178 16.5 13.5 16.5C12.9822 16.5 12.5625 16.0803 12.5625 15.5625C12.5625 15.0447 12.9822 14.625 13.5 14.625C14.0178 14.625 14.4375 15.0447 14.4375 15.5625Z" fill="url(#paint0_linear_17614_128232)"/>
<defs>
<linearGradient id="paint0_linear_17614_128232" x1="9" y1="3.25" x2="9" y2="16.5" gradientUnits="userSpaceOnUse">
<stop stop-color="currentColor"/>
<stop offset="1" stop-color="currentColor"/>
</linearGradient>
</defs>
</svg>
