<svg viewBox="0 0 12 13" fill="none" xmlns="http://www.w3.org/2000/svg">
<path d="M6.00039 9.9998C6.33176 9.9998 6.60039 9.73118 6.60039 9.3998C6.60039 9.06843 6.33176 8.7998 6.00039 8.7998C5.66902 8.7998 5.40039 9.06843 5.40039 9.3998C5.40039 9.73118 5.66902 9.9998 6.00039 9.9998Z" fill="currentColor"/>
<path d="M6 4.5L6 7.5" stroke="currentColor" stroke-linecap="round" stroke-linejoin="round"/>
<path d="M0.954374 10.0449L5.2843 2.20212C5.35394 2.07606 5.45727 1.97074 5.58333 1.89733C5.70938 1.82392 5.85346 1.78516 6.00028 1.78516C6.1471 1.78516 6.29118 1.82392 6.41723 1.89733C6.54329 1.97074 6.64662 2.07606 6.71626 2.20212L11.0462 10.0449C11.1128 10.1657 11.1461 10.3013 11.1429 10.4385C11.1397 10.5756 11.1002 10.7096 11.028 10.8273C10.9559 10.9451 10.8537 11.0426 10.7314 11.1103C10.6091 11.178 10.4708 11.2137 10.3302 11.2137H1.67035C1.52971 11.2137 1.39149 11.178 1.26918 11.1103C1.14688 11.0426 1.04467 10.9451 0.972537 10.8273C0.900405 10.7096 0.860814 10.5756 0.85763 10.4385C0.854447 10.3013 0.887779 10.1657 0.954374 10.0449Z" stroke="currentColor" stroke-linecap="round" stroke-linejoin="round"/>
</svg>
