<svg viewBox="0 0 18 18" fill="none" xmlns="http://www.w3.org/2000/svg">
<g>
<path fill-rule="evenodd" clip-rule="evenodd" d="M0.998566 0.5C1.27471 0.5 1.49857 0.723858 1.49857 1V5.83425H4.19914C4.47528 5.83425 4.69914 6.05811 4.69914 6.33425C4.69914 6.61039 4.47528 6.83425 4.19914 6.83425H1.49857V14.3692H4.19914C4.47528 14.3692 4.69914 14.593 4.69914 14.8692C4.69914 15.1453 4.47528 15.3692 4.19914 15.3692H0.998566C0.722423 15.3692 0.498566 15.1453 0.498566 14.8692V6.33425V1C0.498566 0.723858 0.722423 0.5 0.998566 0.5ZM7.39981 3.70062C7.12367 3.70062 6.89981 3.92448 6.89981 4.20062V8.46806C6.89981 8.7442 7.12367 8.96806 7.39981 8.96806H17.0015C17.2777 8.96806 17.5015 8.7442 17.5015 8.46806V4.20062C17.5015 3.92448 17.2777 3.70062 17.0015 3.70062H7.39981ZM16.5015 7.96806H7.89981V4.70062H16.5015V7.96806ZM7.39981 12.2355C7.12367 12.2355 6.89981 12.4594 6.89981 12.7355V17.0029C6.89981 17.2791 7.12367 17.5029 7.39981 17.5029H17.0015C17.2777 17.5029 17.5015 17.2791 17.5015 17.0029V12.7355C17.5015 12.4594 17.2777 12.2355 17.0015 12.2355H7.39981ZM7.89981 16.5029V13.2355H16.5015V16.5029H7.89981Z" fill="url(#paint0_linear_9309_36401)"/>
</g>
<defs>
<linearGradient id="paint0_linear_9309_36401" x1="9.00005" y1="0.5" x2="9.00005" y2="17.5029" gradientUnits="userSpaceOnUse">
<stop stop-color="currentColor"/>
<stop offset="1" stop-color="currentColor"/>
</linearGradient>
</defs>
</svg>
