<svg width="12" height="14" viewBox="0 0 12 14" fill="none" xmlns="http://www.w3.org/2000/svg">
	<mask id="path-1-inside-1_11146_33540" fill="white">
		<path d="M11.6065 5.57607C11.5085 5.37659 11.3056 5.2506 11.0833 5.2506H6.48522L6.99618 0.648411C7.02535 0.388262 6.87719 0.140946 6.63454 0.0429526C6.39131 -0.0562073 6.11308 0.0207875 5.95384 0.227857L0.120903 7.81067C-0.014421 7.98683 -0.0383361 8.22481 0.0602405 8.4243C0.158817 8.62437 0.361803 8.75036 0.584038 8.75036H5.18214L4.67118 13.3525C4.64201 13.6127 4.79017 13.86 5.03282 13.958C5.1034 13.9866 5.17747 14 5.25039 14C5.42771 14 5.60036 13.9189 5.71294 13.7725L11.5459 6.1897C11.6812 6.01355 11.7045 5.77556 11.6065 5.57607Z" />
	</mask>
	<path d="M11.6065 5.57607C11.5085 5.37659 11.3056 5.2506 11.0833 5.2506H6.48522L6.99618 0.648411C7.02535 0.388262 6.87719 0.140946 6.63454 0.0429526C6.39131 -0.0562073 6.11308 0.0207875 5.95384 0.227857L0.120903 7.81067C-0.014421 7.98683 -0.0383361 8.22481 0.0602405 8.4243C0.158817 8.62437 0.361803 8.75036 0.584038 8.75036H5.18214L4.67118 13.3525C4.64201 13.6127 4.79017 13.86 5.03282 13.958C5.1034 13.9866 5.17747 14 5.25039 14C5.42771 14 5.60036 13.9189 5.71294 13.7725L11.5459 6.1897C11.6812 6.01355 11.7045 5.77556 11.6065 5.57607Z" stroke="#070709" stroke-width="2" mask="url(#path-1-inside-1_11146_33540)" />
</svg>
