<svg width="44" height="44" viewBox="0 0 44 44" fill="none" xmlns="http://www.w3.org/2000/svg">
<mask id="mask0_13279_129641" style="mask-type:alpha" maskUnits="userSpaceOnUse" x="0" y="0" width="44" height="44">
<path fill-rule="evenodd" clip-rule="evenodd" d="M29.5862 3.1423C25.3965 -1.04743 18.6036 -1.04743 14.4138 3.14229L3.1423 14.4138C-1.04743 18.6036 -1.04743 25.3964 3.14229 29.5862L14.4138 40.8577C18.6036 45.0474 25.3964 45.0475 29.5862 40.8577L40.8577 29.5862C45.0474 25.3965 45.0475 18.6036 40.8577 14.4138L29.5862 3.1423ZM18.7488 7.47725C20.5444 5.68165 23.4556 5.68165 25.2512 7.47725L36.5228 18.7488C38.3184 20.5444 38.3184 23.4556 36.5228 25.2512L25.2512 36.5228C23.4556 38.3184 20.5444 38.3184 18.7488 36.5228L7.47724 25.2512C5.68165 23.4556 5.68165 20.5444 7.47725 18.7488L18.7488 7.47725ZM17.3921 15.1837C16.963 14.7546 16.2673 14.7547 15.8382 15.1838C15.409 15.6129 15.409 16.3086 15.838 16.7377C18.4122 19.3119 18.4119 23.4865 15.8373 26.0611C15.4082 26.4902 15.4081 27.1859 15.8372 27.615C16.2663 28.0441 16.962 28.044 17.3911 27.6149C19.9657 25.0403 24.1403 25.04 26.7145 27.6142C27.1436 28.0432 27.8393 28.0432 28.2684 27.614C28.6975 27.1849 28.6976 26.4892 28.2685 26.0601C25.6943 23.4859 25.6946 19.3113 28.2692 16.7367C28.6984 16.3076 28.6984 15.6119 28.2693 15.1828C27.8403 14.7538 27.1446 14.7538 26.7154 15.183C24.1409 17.7576 19.9663 17.7579 17.3921 15.1837Z" fill="#60606C"/>
</mask>
<g mask="url(#mask0_13279_129641)">
<path fill-rule="evenodd" clip-rule="evenodd" d="M29.5862 3.1423C25.3965 -1.04743 18.6036 -1.04743 14.4138 3.14229L3.1423 14.4138C-1.04743 18.6036 -1.04743 25.3964 3.14229 29.5862L14.4138 40.8577C18.6036 45.0474 25.3964 45.0475 29.5862 40.8577L40.8577 29.5862C45.0474 25.3965 45.0475 18.6036 40.8577 14.4138L29.5862 3.1423ZM18.7488 7.47725C20.5444 5.68165 23.4556 5.68165 25.2512 7.47725L36.5228 18.7488C38.3184 20.5444 38.3184 23.4556 36.5228 25.2512L25.2512 36.5228C23.4556 38.3184 20.5444 38.3184 18.7488 36.5228L7.47724 25.2512C5.68165 23.4556 5.68165 20.5444 7.47725 18.7488L18.7488 7.47725ZM17.3921 15.1837C16.963 14.7546 16.2673 14.7547 15.8382 15.1838C15.409 15.6129 15.409 16.3086 15.838 16.7377C18.4122 19.3119 18.4119 23.4865 15.8373 26.0611C15.4082 26.4902 15.4081 27.1859 15.8372 27.615C16.2663 28.0441 16.962 28.044 17.3911 27.6149C19.9657 25.0403 24.1403 25.04 26.7145 27.6142C27.1436 28.0432 27.8393 28.0432 28.2684 27.614C28.6975 27.1849 28.6976 26.4892 28.2685 26.0601C25.6943 23.4859 25.6946 19.3113 28.2692 16.7367C28.6984 16.3076 28.6984 15.6119 28.2693 15.1828C27.8403 14.7538 27.1446 14.7538 26.7154 15.183C24.1409 17.7576 19.9663 17.7579 17.3921 15.1837Z" fill="#60606C"/>
<g style="mix-blend-mode:plus-lighter" opacity="0.7" filter="url(#filter0_f_13279_129641)">
<circle cx="25" cy="17.999" r="24" fill="url(#paint0_linear_13279_129641)"/>
</g>
</g>
<defs>
<filter id="filter0_f_13279_129641" x="-14.4178" y="-21.4187" width="78.8355" height="78.8355" filterUnits="userSpaceOnUse" color-interpolation-filters="sRGB">
<feFlood flood-opacity="0" result="BackgroundImageFix"/>
<feBlend mode="normal" in="SourceGraphic" in2="BackgroundImageFix" result="shape"/>
<feGaussianBlur stdDeviation="7.70888" result="effect1_foregroundBlur_13279_129641"/>
</filter>
<linearGradient id="paint0_linear_13279_129641" x1="1" y1="-6.00098" x2="52.2102" y2="-2.28899" gradientUnits="userSpaceOnUse">
<stop stop-color="#FAF4EB"/>
<stop offset="0.334154" stop-color="#E6A0BD"/>
<stop offset="0.690299" stop-color="#9188E7"/>
<stop offset="1" stop-color="#C6F7FE"/>
</linearGradient>
</defs>
</svg>
