<svg viewBox="0 0 12 12" fill="none" xmlns="http://www.w3.org/2000/svg">
<g>
<path fill-rule="evenodd" clip-rule="evenodd" d="M0.5 0C0.223858 0 0 0.223858 0 0.5V4.5C0 4.77614 0.223858 5 0.5 5H4.5C4.77614 5 5 4.77614 5 4.5V0.5C5 0.223858 4.77614 0 4.5 0H0.5ZM1 4V1H4V4H1ZM0.5 7C0.223858 7 0 7.22386 0 7.5V11.5C0 11.7761 0.223858 12 0.5 12H4.5C4.77614 12 5 11.7761 5 11.5V7.5C5 7.22386 4.77614 7 4.5 7H0.5ZM1 11V8H4V11H1ZM6 0.5C6 0.223858 6.22386 0 6.5 0H11.5C11.7761 0 12 0.223858 12 0.5C12 0.776142 11.7761 1 11.5 1H6.5C6.22386 1 6 0.776142 6 0.5ZM6.5 3C6.22386 3 6 3.22386 6 3.5C6 3.77614 6.22386 4 6.5 4H11.5C11.7761 4 12 3.77614 12 3.5C12 3.22386 11.7761 3 11.5 3H6.5ZM6 7.5C6 7.22386 6.22386 7 6.5 7H11.5C11.7761 7 12 7.22386 12 7.5C12 7.77614 11.7761 8 11.5 8H6.5C6.22386 8 6 7.77614 6 7.5ZM6.5 10C6.22386 10 6 10.2239 6 10.5C6 10.7761 6.22386 11 6.5 11H11.5C11.7761 11 12 10.7761 12 10.5C12 10.2239 11.7761 10 11.5 10H6.5Z" fill="currentColor"/>
</g>
</svg>
