<svg width="112" height="112" viewBox="0 0 112 112" fill="none" xmlns="http://www.w3.org/2000/svg">
<circle cx="56" cy="56" r="37.5" stroke="url(#paint0_linear_2_19)"/>
<circle opacity="0.8" cx="56" cy="56" r="43.5" stroke="url(#paint1_linear_2_19)"/>
<circle opacity="0.6" cx="56" cy="56" r="49.5" stroke="url(#paint2_linear_2_19)"/>
<circle opacity="0.4" cx="56" cy="56" r="55.5" stroke="url(#paint3_linear_2_19)"/>
<mask id="mask0_2_19" style="mask-type:alpha" maskUnits="userSpaceOnUse" x="24" y="24" width="64" height="64">
<circle cx="56" cy="56" r="32" fill="#131316"/>
</mask>
<g mask="url(#mask0_2_19)">
<circle cx="56" cy="56" r="32" fill="#131316"/>
<g opacity="0.3" filter="url(#filter0_f_2_19)">
<circle cx="56" cy="81" r="21" fill="#93939F"/>
</g>
<g opacity="0.4" filter="url(#filter1_f_2_19)">
<ellipse cx="56" cy="88" rx="10" ry="13" fill="#93939F"/>
</g>
<circle cx="56" cy="56" r="31.5" stroke="url(#paint4_linear_2_19)"/>
</g>
<g filter="url(#filter2_i_2_19)">
<path d="M70.4137 67.5877L62.7697 59.9437C64.5202 57.484 65.2826 54.4563 64.9057 51.461C64.5288 48.4656 63.0401 45.7212 60.7349 43.7718C58.4297 41.8224 55.4761 40.8103 52.4597 40.9363C49.4434 41.0622 46.5844 42.3169 44.4497 44.4516C42.3149 46.5864 41.0602 49.4453 40.9343 52.4617C40.8084 55.478 41.8204 58.4316 43.7698 60.7369C45.7192 63.0421 48.4636 64.5307 51.459 64.9076C54.4544 65.2845 57.482 64.5222 59.9417 62.7717L67.5857 70.4157C67.9629 70.78 68.4681 70.9816 68.9925 70.977C69.5169 70.9725 70.0185 70.7621 70.3894 70.3913C70.7602 70.0205 70.9705 69.5189 70.9751 68.9945C70.9796 68.4701 70.778 67.9649 70.4137 67.5877ZM42.9997 53.0017C42.9997 51.0239 43.5862 49.0905 44.685 47.446C45.7838 45.8015 47.3456 44.5198 49.1729 43.7629C51.0001 43.006 53.0108 42.808 54.9506 43.1938C56.8904 43.5797 58.6723 44.5321 60.0708 45.9306C61.4693 47.3291 62.4217 49.111 62.8076 51.0508C63.1934 52.9906 62.9954 55.0012 62.2385 56.8285C61.4816 58.6558 60.1999 60.2176 58.5554 61.3164C56.9109 62.4152 54.9775 63.0017 52.9997 63.0017C50.3485 62.9988 47.8066 61.9443 45.9319 60.0695C44.0571 58.1948 43.0026 55.6529 42.9997 53.0017Z" fill="url(#paint5_linear_2_19)"/>
</g>
<defs>
<filter id="filter0_f_2_19" x="11" y="36" width="90" height="90" filterUnits="userSpaceOnUse" color-interpolation-filters="sRGB">
<feFlood flood-opacity="0" result="BackgroundImageFix"/>
<feBlend mode="normal" in="SourceGraphic" in2="BackgroundImageFix" result="shape"/>
<feGaussianBlur stdDeviation="12" result="effect1_foregroundBlur_2_19"/>
</filter>
<filter id="filter1_f_2_19" x="36" y="65" width="40" height="46" filterUnits="userSpaceOnUse" color-interpolation-filters="sRGB">
<feFlood flood-opacity="0" result="BackgroundImageFix"/>
<feBlend mode="normal" in="SourceGraphic" in2="BackgroundImageFix" result="shape"/>
<feGaussianBlur stdDeviation="5" result="effect1_foregroundBlur_2_19"/>
</filter>
<filter id="filter2_i_2_19" x="40.9238" y="40.9258" width="30.0513" height="30.8513" filterUnits="userSpaceOnUse" color-interpolation-filters="sRGB">
<feFlood flood-opacity="0" result="BackgroundImageFix"/>
<feBlend mode="normal" in="SourceGraphic" in2="BackgroundImageFix" result="shape"/>
<feColorMatrix in="SourceAlpha" type="matrix" values="0 0 0 0 0 0 0 0 0 0 0 0 0 0 0 0 0 0 127 0" result="hardAlpha"/>
<feOffset dy="0.80003"/>
<feGaussianBlur stdDeviation="0.80003"/>
<feComposite in2="hardAlpha" operator="arithmetic" k2="-1" k3="1"/>
<feColorMatrix type="matrix" values="0 0 0 0 1 0 0 0 0 1 0 0 0 0 1 0 0 0 0.4 0"/>
<feBlend mode="normal" in2="shape" result="effect1_innerShadow_2_19"/>
</filter>
<linearGradient id="paint0_linear_2_19" x1="56" y1="18" x2="56" y2="94" gradientUnits="userSpaceOnUse">
<stop stop-color="#18181B" stop-opacity="0.3"/>
<stop offset="0.5" stop-color="#18181B"/>
<stop offset="1" stop-color="#18181B" stop-opacity="0.3"/>
</linearGradient>
<linearGradient id="paint1_linear_2_19" x1="56" y1="12" x2="56" y2="100" gradientUnits="userSpaceOnUse">
<stop stop-color="#18181B" stop-opacity="0.3"/>
<stop offset="0.5" stop-color="#18181B"/>
<stop offset="1" stop-color="#18181B" stop-opacity="0.3"/>
</linearGradient>
<linearGradient id="paint2_linear_2_19" x1="56" y1="6" x2="56" y2="106" gradientUnits="userSpaceOnUse">
<stop stop-color="#18181B" stop-opacity="0.3"/>
<stop offset="0.5" stop-color="#18181B"/>
<stop offset="1" stop-color="#18181B" stop-opacity="0.3"/>
</linearGradient>
<linearGradient id="paint3_linear_2_19" x1="56" y1="0" x2="56" y2="112" gradientUnits="userSpaceOnUse">
<stop stop-color="#18181B" stop-opacity="0.3"/>
<stop offset="0.5" stop-color="#18181B"/>
<stop offset="1" stop-color="#18181B" stop-opacity="0.3"/>
</linearGradient>
<linearGradient id="paint4_linear_2_19" x1="56" y1="24" x2="56" y2="88" gradientUnits="userSpaceOnUse">
<stop stop-color="white" stop-opacity="0.1"/>
<stop offset="1" stop-color="white" stop-opacity="0"/>
</linearGradient>
<linearGradient id="paint5_linear_2_19" x1="70.9116" y1="41.1209" x2="53.7552" y2="69.6579" gradientUnits="userSpaceOnUse">
<stop stop-color="#AEAEB7"/>
<stop offset="1" stop-color="#60606C"/>
</linearGradient>
</defs>
</svg>
