<svg viewBox="0 0 12 12" fill="none" xmlns="http://www.w3.org/2000/svg">
<g>
    <path d="M4.5918 10.5C4.69362 10.7923 4.88387 11.0456 5.13617 11.2249C5.38846 11.4042 5.6903 11.5005 5.9998 11.5005C6.3093 11.5005 6.61113 11.4042 6.86342 11.2249C7.11572 11.0456 7.30597 10.7923 7.4078 10.5" stroke="currentColor" stroke-linecap="round" stroke-linejoin="round"/>
    <path d="M0.5 8.5H11.5" stroke="currentColor" stroke-linecap="round" stroke-linejoin="round"/>
    <path d="M11.5 8.5C10.9812 8.4647 10.4927 8.24265 10.1251 7.87495C9.75735 7.50725 9.5353 7.0188 9.5 6.5V4C9.5 3.07174 9.13125 2.1815 8.47487 1.52513C7.8185 0.868749 6.92826 0.5 6 0.5C5.07174 0.5 4.1815 0.868749 3.52513 1.52513C2.86875 2.1815 2.5 3.07174 2.5 4V6.5C2.4647 7.0188 2.24265 7.50725 1.87495 7.87495C1.50725 8.24265 1.0188 8.4647 0.5 8.5" stroke="currentColor" stroke-linecap="round" stroke-linejoin="round"/>
</g>
</svg>
