<svg xmlns="http://www.w3.org/2000/svg" height="12" width="12" viewBox="0 0 12 12"><g fill="currentColor" class="nc-icon-wrapper"><path d="m3.75,3.25v-1.5c0-.552.448-1,1-1h2.5c.552,0,1,.448,1,1v1.5" fill="none" stroke="currentColor" stroke-linecap="round" stroke-linejoin="round" stroke-width="1" data-color="color-2"></path><path d="m3.75,8.75h-1.5c-.828,0-1.5-.672-1.5-1.5v-2.5c0-.828.672-1.5,1.5-1.5h7.5c.828,0,1.5.672,1.5,1.5v2.5c0,.828-.672,1.5-1.5,1.5h-1.5" fill="none" stroke="currentColor" stroke-linecap="round" stroke-linejoin="round" stroke-width="1"></path><path d="m3.75,6.25h4.5v4c0,.552-.448,1-1,1h-2.5c-.552,0-1-.448-1-1v-4h0Z" fill="none" stroke="currentColor" stroke-linecap="round" stroke-linejoin="round" stroke-width="1" data-color="color-2"></path></g></svg>