<svg viewBox="0 0 12 13" fill="none" xmlns="http://www.w3.org/2000/svg">
<g>
<path fill-rule="evenodd" clip-rule="evenodd" d="M1 2.49991C1 1.94767 1.44767 1.5 1.99991 1.5H9.9994C10.5516 1.5 10.9993 1.94767 10.9993 2.49991V6.50026H8.49949C8.22335 6.50026 7.9995 6.72412 7.9995 7.00026V8.50013H3.99981V7.00026C3.99981 6.72412 3.77595 6.50026 3.49981 6.50026H1V2.49991ZM0 7.00026V2.49991C0 1.39539 0.895388 0.5 1.99991 0.5H9.9994C11.1039 0.5 11.9993 1.39539 11.9993 2.49991V7.00026V10.4994C11.9993 11.6039 11.1039 12.4993 9.9994 12.4993H1.99991C0.895388 12.4993 0 11.6039 0 10.4994V7.00026ZM10.9993 7.50026V10.4994C10.9993 11.0516 10.5516 11.4993 9.9994 11.4993H1.99991C1.44767 11.4993 1 11.0516 1 10.4994V7.50026H2.99981V9.00013C2.99981 9.27627 3.22367 9.50013 3.49981 9.50013H8.49949C8.77564 9.50013 8.99949 9.27627 8.99949 9.00013V7.50026H10.9993Z" fill="currentColor"/>
</g>
</svg>
