<svg xmlns="http://www.w3.org/2000/svg" viewBox="0 0 12 12"><g fill="currentColor" class="nc-icon-wrapper"><path d="m4.981,3.405l.032-.056h-1.579c-.316,0-.615.144-.812.391l-1.872,2.344,2.366.566c.329-1.198.951-2.308,1.865-3.245Z" stroke-width="0" fill="currentColor"></path><path d="m8.595,7.019l.056-.032v1.579c0,.316-.144.615-.391.812l-2.344,1.872-.566-2.366c1.198-.329,2.308-.951,3.245-1.865Z" stroke-width="0" fill="currentColor"></path><path d="m3.25,10.481c-.205.453-.662.769-1.192.769H.75v-1.307c0-.53.315-.987.769-1.192" fill="none" stroke="currentColor" stroke-linecap="round" stroke-linejoin="round" stroke-width="1" data-color="color-2"></path><path d="m5.013,3.349h-1.579c-.316,0-.615.144-.812.391l-1.872,2.344,2.366.566" fill="none" stroke="currentColor" stroke-linecap="round" stroke-linejoin="round" stroke-width="1"></path><path d="m8.651,6.987v1.579c0,.316-.144.615-.391.812l-2.344,1.872-.566-2.366" fill="none" stroke="currentColor" stroke-linecap="round" stroke-linejoin="round" stroke-width="1"></path><path d="m5.351,8.884c2.995-.823,5.491-3.381,5.899-8.134C6.497,1.159,3.939,3.655,3.116,6.649l2.234,2.234Z" fill="none" stroke="currentColor" stroke-linecap="round" stroke-linejoin="round" stroke-width="1"></path><circle cx="7.75" cy="4.25" r=".75" fill="currentColor" stroke-width="0" data-color="color-2"></circle></g></svg>