<svg viewBox="0 0 12 12" fill="none" xmlns="http://www.w3.org/2000/svg">
<g clip-path="url(#clip0_14657_109606)">
<path d="M11.5 6.9V5.1L9.832 4.915C9.7474 4.6165 9.62826 4.32889 9.477 4.058L10.526 2.747L9.253 1.474L7.942 2.523C7.67111 2.37174 7.3835 2.2526 7.085 2.168L6.9 0.5H5.1L4.915 2.168C4.6165 2.2526 4.32889 2.37174 4.058 2.523L2.747 1.474L1.474 2.747L2.523 4.058C2.37174 4.32889 2.2526 4.6165 2.168 4.915L0.5 5.1V6.9L2.168 7.085C2.2526 7.3835 2.37174 7.67111 2.523 7.942L1.474 9.253L2.747 10.525L4.058 9.477C4.32889 9.62826 4.6165 9.7474 4.915 9.832L5.1 11.5H6.9L7.085 9.832C7.3835 9.7474 7.67111 9.62826 7.942 9.477L9.253 10.525L10.526 9.253L9.477 7.942C9.62826 7.67111 9.7474 7.3835 9.832 7.085L11.5 6.9Z" stroke="currentColor" stroke-linecap="round" stroke-linejoin="round"/>
<path d="M6 7.5C6.82843 7.5 7.5 6.82843 7.5 6C7.5 5.17157 6.82843 4.5 6 4.5C5.17157 4.5 4.5 5.17157 4.5 6C4.5 6.82843 5.17157 7.5 6 7.5Z" stroke="currentColor" stroke-linecap="round" stroke-linejoin="round"/>
</g>
<defs>
<clipPath id="clip0_14657_109606">
<rect width="12" height="12" fill="currentColor"/>
</clipPath>
</defs>
</svg>
