<svg width="12" height="12" viewBox="0 0 12 12" fill="none" xmlns="http://www.w3.org/2000/svg">
<g clip-path="url(#clip0_8653_94589)">
<g clip-path="url(#clip1_8653_94589)">
<path fill-rule="evenodd" clip-rule="evenodd" d="M5 0C5.27614 0 5.5 0.223858 5.5 0.5V2.25H8.75C8.88261 2.25 9.00979 2.30268 9.10355 2.39645L10.9786 4.27145C11.1738 4.46671 11.1738 4.78329 10.9786 4.97855L9.10355 6.85355C9.00979 6.94732 8.88261 7 8.75 7H5.5V11C5.5 11.2761 5.27614 11.5 5 11.5C4.72386 11.5 4.5 11.2761 4.5 11V7H0.5C0.223858 7 0 6.77614 0 6.5V2.75C0 2.47386 0.223858 2.25 0.5 2.25H4.5V0.5C4.5 0.223858 4.72386 0 5 0ZM5 6H8.54289L9.91789 4.625L8.54289 3.25H5H1V6H5Z" fill="#AEAEB7"/>
</g>
</g>
<defs>
<clipPath id="clip0_8653_94589">
<rect width="12" height="12" fill="white"/>
</clipPath>
<clipPath id="clip1_8653_94589">
<rect width="12" height="12" fill="white"/>
</clipPath>
</defs>
</svg>
