<svg viewBox="0 0 12 12" fill="none" xmlns="http://www.w3.org/2000/svg">
<g>
<path d="M9.08124 4.8L10.9312 5.3C10.9812 5.3 11.0312 5.3 11.0812 5.3C11.2812 5.3 11.4812 5.15 11.5812 4.95C11.6312 4.7 11.4812 4.4 11.2312 4.35L10.3312 4.1L10.9812 3.7C11.2312 3.55 11.2812 3.25 11.1812 3C11.0812 2.75 10.7312 2.7 10.4812 2.8L9.78124 3.2L10.0312 2.3C10.0812 2.05 9.93124 1.75 9.68124 1.7C9.43124 1.65 9.13124 1.8 9.08124 2.05L8.58124 3.9L6.48124 5.15V2.7L7.83124 1.35C8.03124 1.15 8.03124 0.85 7.83124 0.65C7.63124 0.45 7.33124 0.45 7.13124 0.65L6.48124 1.3V0.5C6.48124 0.2 6.28124 0 5.98124 0C5.68124 0 5.48124 0.2 5.48124 0.5V1.3L4.83124 0.65C4.63124 0.45 4.33124 0.45 4.13124 0.65C3.93124 0.85 3.93124 1.15 4.13124 1.35L5.48124 2.7V5.15L3.38124 3.9L2.88124 2.05C2.83124 1.8 2.53124 1.65 2.28124 1.7C1.98124 1.8 1.83124 2.05 1.93124 2.35L2.18124 3.25L1.48124 2.8C1.23124 2.7 0.931243 2.75 0.781243 3C0.631243 3.25 0.731243 3.55 0.981243 3.7L1.68124 4.1L0.781243 4.3C0.481243 4.4 0.331243 4.65 0.431243 4.95C0.481243 5.15 0.681243 5.3 0.931243 5.3C0.981243 5.3 1.03124 5.3 1.08124 5.3L2.93124 4.8L4.98124 6L2.88124 7.2L1.03124 6.7C0.781243 6.65 0.481243 6.8 0.431243 7.05C0.381243 7.3 0.531243 7.6 0.781243 7.65L1.68124 7.9L0.981243 8.3C0.731243 8.45 0.681243 8.75 0.781243 9C0.881243 9.15 1.03124 9.25 1.23124 9.25C1.33124 9.25 1.38124 9.25 1.48124 9.2L2.18124 8.8L1.93124 9.7C1.88124 9.95 2.03124 10.25 2.28124 10.3C2.33124 10.3 2.38124 10.3 2.43124 10.3C2.63124 10.3 2.83124 10.15 2.93124 9.95L3.43124 8.1L5.53124 6.9V9.35L4.18124 10.7C3.98124 10.9 3.98124 11.2 4.18124 11.4C4.38124 11.6 4.68124 11.6 4.88124 11.4L5.53124 10.75V11.5C5.53124 11.8 5.73124 12 6.03124 12C6.33124 12 6.53124 11.8 6.53124 11.5V10.7L7.18124 11.35C7.28124 11.45 7.43124 11.5 7.53124 11.5C7.63124 11.5 7.78124 11.45 7.88124 11.35C8.08124 11.15 8.08124 10.85 7.88124 10.65L6.48124 9.3V6.85L8.58124 8.05L9.08124 9.9C9.13124 10.1 9.33124 10.25 9.58124 10.25C9.63124 10.25 9.68124 10.25 9.73124 10.25C9.98124 10.2 10.1312 9.9 10.0812 9.65L9.83124 8.75L10.5312 9.15C10.6312 9.2 10.6812 9.2 10.7812 9.2C10.9312 9.2 11.1312 9.1 11.2312 8.95C11.3812 8.7 11.2812 8.4 11.0312 8.25L10.3312 7.85L11.2312 7.6C11.4812 7.55 11.6312 7.25 11.5812 7C11.5312 6.75 11.2312 6.55 10.9812 6.65L9.13124 7.15L6.98124 6L9.08124 4.8Z" fill="currentColor"/>
</g>
</svg>
