<svg xmlns="http://www.w3.org/2000/svg" viewBox="0 0 12 12"><g fill="currentColor" class="nc-icon-wrapper"><polygon points="6.5 1.75 7.845 5.154 11.25 6.5 7.845 7.846 6.5 11.25 5.154 7.846 1.75 6.5 5.154 5.154 6.5 1.75" fill="none" stroke="currentColor" stroke-linecap="round" stroke-linejoin="round" stroke-width="1"></polygon><path d="m3.492,1.492l-.946-.315-.316-.947c-.102-.306-.609-.306-.711,0l-.316.947-.946.315c-.153.051-.257.194-.257.356s.104.305.257.356l.946.315.316.947c.051.153.194.256.355.256s.305-.104.355-.256l.316-.947.946-.315c.153-.051.257-.194.257-.356s-.104-.305-.257-.356h0Z" fill="currentColor" stroke-width="0" data-color="color-2"></path></g></svg>