<svg viewBox="0 0 12 12" fill="none" xmlns="http://www.w3.org/2000/svg">
    <path fill-rule="evenodd" clip-rule="evenodd" d="M10 0.5C10 0.223858 9.77614 0 9.5 0C9.22386 0 9 0.223858 9 0.5C9 1.32886 8.32886 2 7.5 2C7.22386 2 7 2.22386 7 2.5C7 2.77614 7.22386 3 7.5 3C8.32886 3 9 3.67114 9 4.5C9 4.77614 9.22386 5 9.5 5C9.77614 5 10 4.77614 10 4.5C10 3.67114 10.6711 3 11.5 3C11.7761 3 12 2.77614 12 2.5C12 2.22386 11.7761 2 11.5 2C10.6711 2 10 1.32886 10 0.5ZM9.0006 2.5C9.18967 2.35794 9.35793 2.18967 9.5 2.0006C9.64207 2.18967 9.81033 2.35794 9.9994 2.5C9.81033 2.64206 9.64207 2.81033 9.5 2.9994C9.35793 2.81033 9.18967 2.64206 9.0006 2.5ZM5 3.5C5 3.22386 4.77614 3 4.5 3C4.22386 3 4 3.22386 4 3.5C4 5.43286 2.43286 7 0.5 7C0.223858 7 0 7.22386 0 7.5C0 7.77614 0.223858 8 0.5 8C2.43286 8 4 9.56714 4 11.5C4 11.7761 4.22386 12 4.5 12C4.77614 12 5 11.7761 5 11.5C5 9.56714 6.56714 8 8.5 8C8.77614 8 9 7.77614 9 7.5C9 7.22386 8.77614 7 8.5 7C6.56714 7 5 5.43286 5 3.5ZM2.56349 7.5C3.39258 7.0714 4.0714 6.39258 4.5 5.56349C4.9286 6.39258 5.60742 7.0714 6.43651 7.5C5.60742 7.9286 4.9286 8.60742 4.5 9.43651C4.0714 8.60742 3.39258 7.9286 2.56349 7.5Z" fill="currentColor"/>
</svg>
