<svg width="16" height="16" viewBox="0 0 16 16" fill="none" xmlns="http://www.w3.org/2000/svg">
<g clip-path="url(#clip0_8323_28205)">
<path d="M13.3603 5.79302C13.3598 5.79277 13.3592 5.7926 13.3587 5.79252L10.6423 5.39737C10.3165 5.34996 10.0348 5.14516 9.88927 4.84976L8.67652 2.38839C8.60785 2.27024 8.50936 2.17219 8.39091 2.10403C8.27245 2.03587 8.13819 2 8.00152 2C7.86486 2 7.73059 2.03587 7.61214 2.10403C7.49369 2.17219 7.3952 2.27024 7.32652 2.38839L6.11382 4.8503C5.96825 5.14582 5.68648 5.35068 5.36048 5.39803L2.64352 5.79264C2.50488 5.81253 2.37457 5.87084 2.26736 5.96098C2.16014 6.05111 2.08032 6.16947 2.03692 6.30264C1.99351 6.43582 1.98827 6.57848 2.02178 6.71448C2.05529 6.85048 2.12622 6.97438 2.22652 7.07214L4.19247 8.98898C4.42806 9.21869 4.53557 9.54959 4.47999 9.87391L4.01602 12.5809C3.99239 12.7188 4.00782 12.8606 4.06056 12.9902C4.1133 13.1198 4.20125 13.2321 4.31447 13.3144C4.42769 13.3966 4.56166 13.4455 4.70123 13.4556C4.8408 13.4657 4.98041 13.4365 5.10427 13.3714L7.53627 12.0927C7.82755 11.9396 8.17552 11.9396 8.46682 12.0927L10.8973 13.3699C11.0211 13.435 11.1607 13.4642 11.3003 13.4541C11.4399 13.444 11.5739 13.3951 11.6871 13.3129C11.8003 13.2306 11.8882 13.1183 11.941 12.9887C11.9937 12.8591 12.0092 12.7173 11.9855 12.5794L11.5216 9.87282C11.466 9.54828 11.5737 9.21715 11.8096 8.98744L13.7765 7.07214C13.8766 6.97445 13.9473 6.85073 13.9808 6.71495C14.0142 6.57917 14.0091 6.43674 13.9659 6.30374C13.9226 6.17074 13.8431 6.05248 13.7362 5.9623C13.6296 5.8723 13.4999 5.81385 13.3619 5.79351C13.3613 5.79343 13.3608 5.79326 13.3603 5.79302V5.79302Z" stroke="#60606C" stroke-linecap="round"/>
</g>
<defs>
<clipPath id="clip0_8323_28205">
<rect width="16" height="16" fill="white"/>
</clipPath>
</defs>
</svg>
