<svg viewBox="0 0 32 32" fill="none" xmlns="http://www.w3.org/2000/svg">
<g clip-path="url(#clip0_9309_36447)">
<rect x="0.5" y="0.5" width="31" height="31" rx="3.5" fill="#131316" stroke="#242429"/>
<g opacity="0.25" filter="url(#filter0_f_9309_36447)">
<circle cx="16" cy="16" r="6" fill="#AEAEB7"/>
</g>
<path fill-rule="evenodd" clip-rule="evenodd" d="M8.5 9C8.22386 9 8 9.22386 8 9.5V22C8 22.2603 8.10641 22.5131 8.30089 22.7019C8.49588 22.8911 8.76345 23 9.04545 23H22.9545C23.2366 23 23.5041 22.8911 23.6991 22.7019C23.8936 22.5131 24 22.2603 24 22V12.5C24 12.2239 23.7761 12 23.5 12H16.1591C15.6491 12 15.1741 11.7409 14.8979 11.3121L13.5567 9.2293C13.4647 9.08637 13.3064 9 13.1364 9H8.5ZM7 9.5C7 8.67157 7.67157 8 8.5 8H13.1364C13.6464 8 14.1214 8.25912 14.3975 8.6879L15.7387 10.7707C15.8307 10.9136 15.9891 11 16.1591 11H23.5C24.3284 11 25 11.6716 25 12.5V22C25 22.5353 24.7808 23.0456 24.3956 23.4194C24.0109 23.7928 23.4923 24 22.9545 24H9.04545C8.5077 24 7.98908 23.7928 7.60442 23.4194C7.21924 23.0456 7 22.5353 7 22V9.5Z" fill="url(#paint0_linear_9309_36447)"/>
</g>
<defs>
<filter id="filter0_f_9309_36447" x="-4" y="-4" width="40" height="40" filterUnits="userSpaceOnUse" color-interpolation-filters="sRGB">
<feFlood flood-opacity="0" result="BackgroundImageFix"/>
<feBlend mode="normal" in="SourceGraphic" in2="BackgroundImageFix" result="shape"/>
<feGaussianBlur stdDeviation="7" result="effect1_foregroundBlur_9309_36447"/>
</filter>
<linearGradient id="paint0_linear_9309_36447" x1="16" y1="8" x2="16" y2="24" gradientUnits="userSpaceOnUse">
<stop stop-color="#F0F0F0"/>
<stop offset="1" stop-color="#9C9C9C"/>
</linearGradient>
<clipPath id="clip0_9309_36447">
<rect width="32" height="32" fill="white"/>
</clipPath>
</defs>
</svg>
