<svg viewBox="0 0 32 32" fill="none" xmlns="http://www.w3.org/2000/svg">
<g clip-path="url(#clip0_9309_36357)">
<rect x="0.5" y="0.5" width="31" height="31" rx="3.5" fill="#131316" stroke="#242429"/>
<g opacity="0.25" filter="url(#filter0_f_9309_36357)">
<circle cx="16" cy="16" r="7" fill="#AEAEB7"/>
</g>
<path fill-rule="evenodd" clip-rule="evenodd" d="M24.4956 8.02835C24.5037 7.88651 24.451 7.74794 24.3508 7.64725C24.2506 7.54657 24.1123 7.49327 23.9704 7.50068C20.9132 7.6603 18.4454 8.58908 16.491 9.80822C15.1427 9.28858 13.6535 9.24844 12.2751 9.69961C10.8126 10.1783 9.57647 11.1768 8.80095 12.506C8.68648 12.7022 8.71864 12.9509 8.87926 13.1115L11.0897 15.3219C11.0261 15.4257 10.9661 15.5261 10.9096 15.6229C10.6606 16.0491 10.4788 16.4043 10.3584 16.6549C10.2981 16.7803 10.2532 16.8796 10.2229 16.9487C10.2078 16.9832 10.1962 17.0102 10.1883 17.0292L10.179 17.0515L10.1764 17.0579L10.1755 17.06L10.1752 17.0607C10.1751 17.061 10.175 17.0613 10.639 17.2477L10.175 17.0613C10.1003 17.2471 10.1438 17.4596 10.2854 17.6013L14.3952 21.711C14.5376 21.8535 14.7515 21.8965 14.9379 21.8203L14.7487 21.3575C14.9379 21.8203 14.9382 21.8202 14.9384 21.8201L14.9392 21.8198L14.9412 21.819L14.9477 21.8163L14.9698 21.8069C14.9887 21.7989 15.0155 21.7872 15.0499 21.7719C15.1187 21.7413 15.2175 21.6959 15.3422 21.6352C15.5917 21.5136 15.9452 21.3303 16.3696 21.0797C16.4648 21.0235 16.5636 20.9638 16.6656 20.9007L18.8856 23.1207C19.0463 23.2813 19.295 23.3135 19.4912 23.199C20.8274 22.4194 21.8296 21.1749 22.3065 19.7032C22.7556 18.3172 22.7092 16.8211 22.1802 15.4694C23.3945 13.5193 24.3233 11.063 24.4956 8.02835ZM21.4651 16.5202C20.8401 17.3635 20.1701 18.0939 19.5068 18.7192C18.8182 19.3684 18.1362 19.905 17.5179 20.3388L19.3101 22.131C20.2724 21.4721 20.9935 20.5112 21.3552 19.395C21.6583 18.4595 21.6931 17.4644 21.4651 16.5202ZM11.6487 14.4667C12.0799 13.8469 12.6139 13.1638 13.2604 12.4746C13.8796 11.8146 14.6025 11.1485 15.4374 10.5273C14.4996 10.3074 13.5131 10.3466 12.5862 10.65C11.4778 11.0128 10.524 11.7306 9.86904 12.6871L11.6487 14.4667ZM14.8573 20.7589L11.236 17.1377L11.2597 17.088C11.3697 16.859 11.5391 16.5279 11.7731 16.1273C12.2415 15.3254 12.9665 14.2496 13.9897 13.1587C15.0408 12.0383 16.4046 10.9035 18.1296 10.0318L21.9469 13.8491C21.0728 15.5721 19.939 16.9375 18.8208 17.9916C17.7322 19.0178 16.66 19.7469 15.8611 20.2186C15.4621 20.4543 15.1323 20.6251 14.9043 20.7362L14.8573 20.7589ZM22.3932 12.8811C22.922 11.6106 23.3055 10.1682 23.4552 8.53882C21.8188 8.68162 20.3721 9.06081 19.0992 9.58709L22.3932 12.8811ZM8.56734 23.4332C8.84845 23.3934 9.19267 23.3364 9.54303 23.2585C9.88502 23.1824 10.21 23.0914 10.4779 22.9867C10.7645 22.8747 10.8996 22.7797 10.9404 22.7389L10.9407 22.7386C11.1642 22.5153 11.2899 22.2124 11.2901 21.8965C11.2903 21.5809 11.1653 21.278 10.9425 21.0545C10.7195 20.8321 10.4174 20.7073 10.1025 20.7073C9.78748 20.7073 9.4853 20.8323 9.2623 21.0548L9.26249 21.0546L8.55541 20.3475L9.262 21.0551L9.2623 21.0548C9.221 21.0962 9.12603 21.2316 9.01422 21.5176C8.90949 21.7855 8.81853 22.1104 8.74258 22.4523C8.66424 22.8048 8.60712 23.1511 8.56734 23.4332ZM11.6497 20.3475C11.2391 19.9375 10.6827 19.7073 10.1025 19.7073C9.52236 19.7073 8.96591 19.9375 8.55539 20.3475C7.81029 21.0926 7.54737 23.4482 7.50267 23.9133C7.49524 23.9872 7.50336 24.0618 7.52649 24.1323C7.54962 24.2029 7.58726 24.2678 7.63698 24.323C7.6867 24.3781 7.74741 24.4222 7.81521 24.4525C7.883 24.4828 7.95638 24.4985 8.03062 24.4987C8.04764 24.4998 8.0647 24.4998 8.08172 24.4987C8.54687 24.454 10.9035 24.1901 11.6475 23.446C12.0586 23.0353 12.2897 22.4782 12.2901 21.8972C12.2905 21.3162 12.0601 20.7587 11.6497 20.3475ZM18.1429 14.9192C18.1429 15.507 17.6664 15.9836 17.0785 15.9836C16.4906 15.9836 16.0141 15.507 16.0141 14.9192C16.0141 14.3313 16.4906 13.8547 17.0785 13.8547C17.6664 13.8547 18.1429 14.3313 18.1429 14.9192Z" fill="url(#paint0_linear_9309_36357)"/>
</g>
<defs>
<filter id="filter0_f_9309_36357" x="-5" y="-5" width="42" height="42" filterUnits="userSpaceOnUse" color-interpolation-filters="sRGB">
<feFlood flood-opacity="0" result="BackgroundImageFix"/>
<feBlend mode="normal" in="SourceGraphic" in2="BackgroundImageFix" result="shape"/>
<feGaussianBlur stdDeviation="7" result="effect1_foregroundBlur_9309_36357"/>
</filter>
<linearGradient id="paint0_linear_9309_36357" x1="15.9982" y1="7.5" x2="15.9982" y2="24.4995" gradientUnits="userSpaceOnUse">
<stop stop-color="#F0F0F0"/>
<stop offset="1" stop-color="#9C9C9C"/>
</linearGradient>
<clipPath id="clip0_9309_36357">
<rect width="32" height="32" fill="white"/>
</clipPath>
</defs>
</svg>
