<svg viewBox="0 0 32 32" fill="none" xmlns="http://www.w3.org/2000/svg">
<g clip-path="url(#clip0_9309_36487)">
<rect x="0.5" y="0.5" width="31" height="31" rx="3.5" fill="#131316" stroke="#242429"/>
<g opacity="0.25" filter="url(#filter0_f_9309_36487)">
<circle cx="16" cy="16" r="6" fill="#AEAEB7"/>
</g>
<path fill-rule="evenodd" clip-rule="evenodd" d="M23.3536 9.35355C23.5489 9.15829 23.5489 8.84171 23.3536 8.64645C23.1584 8.45118 22.8418 8.45118 22.6465 8.64645L17.2619 14.0311C17.0667 14.2263 17.0667 14.5429 17.2619 14.7382C17.4572 14.9334 17.7738 14.9334 17.969 14.7382L23.3536 9.35355ZM18.7063 10.0404C18.8717 9.61018 18.8715 9.61011 18.8713 9.61004L18.8709 9.60988L18.8699 9.6095L18.8672 9.60849L18.8594 9.60555L18.8336 9.59621C18.8122 9.58855 18.7821 9.57814 18.7442 9.56579C18.6686 9.54111 18.5614 9.50856 18.4291 9.47473C18.1656 9.40738 17.7966 9.3334 17.3753 9.30865C16.5424 9.25971 15.4302 9.40111 14.5695 10.2618L10.2618 14.5695C9.40111 15.4302 9.25971 16.5424 9.30865 17.3753C9.3334 17.7966 9.40738 18.1656 9.47473 18.4291C9.50856 18.5614 9.54111 18.6686 9.56579 18.7442C9.57814 18.7821 9.58855 18.8122 9.59621 18.8336L9.60555 18.8594L9.60849 18.8672L9.6095 18.8699L9.60988 18.8709L9.61004 18.8713C9.61011 18.8715 9.61018 18.8717 10.0404 18.7063L9.61018 18.8717C9.70926 19.1294 9.99854 19.2581 10.2563 19.159C10.5139 19.0599 10.6426 18.7709 10.5437 18.5132L10.5436 18.5129L10.5432 18.5117L10.5381 18.4978C10.5333 18.4844 10.5259 18.4629 10.5165 18.4342C10.4977 18.3766 10.4714 18.2903 10.4436 18.1814C10.3876 17.9624 10.327 17.6583 10.3069 17.3167C10.2662 16.6239 10.3941 15.8514 10.9689 15.2766L15.2766 10.9689C15.8514 10.3941 16.6239 10.2662 17.3167 10.3069C17.6219 10.3249 17.8971 10.3751 18.1085 10.4256C18.1337 10.4316 18.158 10.4376 18.1814 10.4436C18.2903 10.4714 18.3766 10.4977 18.4342 10.5165C18.4629 10.5259 18.4844 10.5333 18.4978 10.5381L18.5117 10.5432L18.5129 10.5436L18.5132 10.5437L18.5132 10.5437L18.5134 10.5438L18.5138 10.544L18.5139 10.544C18.7714 10.6423 19.06 10.5137 19.159 10.2563C19.2581 9.99854 19.1294 9.70926 18.8717 9.61018L18.7063 10.0404ZM22.3897 13.1283C22.2906 12.8706 22.0014 12.742 21.7436 12.841C21.4859 12.9401 21.3573 13.2292 21.4562 13.4868L21.4563 13.4871L21.4567 13.4883L21.4618 13.5022C21.4666 13.5156 21.474 13.5371 21.4834 13.5658C21.5022 13.6234 21.5285 13.7097 21.5563 13.8187C21.6123 14.0377 21.6729 14.3417 21.693 14.6834C21.7337 15.3761 21.6058 16.1486 21.031 16.7234L16.7233 21.0311C16.1484 21.606 15.376 21.7338 14.6832 21.6931C14.3416 21.673 14.0375 21.6124 13.8185 21.5564C13.7096 21.5286 13.6233 21.5023 13.5657 21.4835C13.537 21.4741 13.5155 21.4667 13.5021 21.4619L13.4882 21.4568L13.487 21.4564L13.4867 21.4563L13.4864 21.4562L13.4861 21.4561L13.4861 21.456C13.2285 21.3577 12.9399 21.4863 12.8409 21.7437C12.7418 22.0015 12.8705 22.2907 13.1282 22.3898L13.3076 21.9231C13.1282 22.3898 13.1284 22.3899 13.1286 22.39L13.129 22.3901L13.13 22.3905L13.1327 22.3915L13.1405 22.3945L13.1662 22.4038C13.1877 22.4115 13.2178 22.4219 13.2557 22.4342C13.3313 22.4589 13.4385 22.4915 13.5708 22.5253C13.8343 22.5926 14.2033 22.6666 14.6246 22.6914C15.4575 22.7403 16.5697 22.5989 17.4304 21.7382L21.7381 17.4305C22.5988 16.5698 22.7402 15.4577 22.6912 14.6247C22.6665 14.2035 22.5925 13.8344 22.5252 13.571C22.4913 13.4387 22.4588 13.3314 22.4341 13.2558C22.4218 13.2179 22.4113 13.1878 22.4037 13.1664L22.3943 13.1406L22.3914 13.1328L22.3904 13.1301L22.39 13.1291L22.3898 13.1287C22.3898 13.1285 22.3897 13.1283 21.923 13.3077L22.3897 13.1283ZM14.7382 17.2618C14.9334 17.4571 14.9334 17.7736 14.7382 17.9689L9.35355 23.3535C9.15829 23.5488 8.84171 23.5488 8.64645 23.3535C8.45118 23.1583 8.45118 22.8417 8.64645 22.6464L14.0311 17.2618C14.2263 17.0665 14.5429 17.0665 14.7382 17.2618Z" fill="url(#paint0_linear_9309_36487)"/>
</g>
<defs>
<filter id="filter0_f_9309_36487" x="-4" y="-4" width="40" height="40" filterUnits="userSpaceOnUse" color-interpolation-filters="sRGB">
<feFlood flood-opacity="0" result="BackgroundImageFix"/>
<feBlend mode="normal" in="SourceGraphic" in2="BackgroundImageFix" result="shape"/>
<feGaussianBlur stdDeviation="7" result="effect1_foregroundBlur_9309_36487"/>
</filter>
<linearGradient id="paint0_linear_9309_36487" x1="16.9496" y1="8.1667" x2="16.9496" y2="23.5" gradientUnits="userSpaceOnUse">
<stop stop-color="#F0F0F0"/>
<stop offset="1" stop-color="#9C9C9C"/>
</linearGradient>
<clipPath id="clip0_9309_36487">
<rect width="32" height="32" fill="white"/>
</clipPath>
</defs>
</svg>
