<svg viewBox="0 0 32 32" fill="none" xmlns="http://www.w3.org/2000/svg">
<g clip-path="url(#clip0_9309_36432)">
<rect x="0.5" y="0.5" width="31" height="31" rx="3.5" fill="#131316" stroke="#242429"/>
<g opacity="0.25" filter="url(#filter0_f_9309_36432)">
<circle cx="16" cy="16" r="6" fill="#AEAEB7"/>
</g>
<g clip-path="url(#clip1_9309_36432)">
<path fill-rule="evenodd" clip-rule="evenodd" d="M15.8463 7.02432C15.9465 6.99189 16.0543 6.99189 16.1544 7.02432L23.1548 9.29138C23.361 9.35817 23.5007 9.55026 23.5007 9.76706V17.135C23.5007 19.9359 21.5788 21.9085 19.784 23.1437C18.8767 23.7681 17.9728 24.2251 17.2976 24.5257C16.9593 24.6764 16.6765 24.7886 16.4771 24.8636C16.3773 24.9011 16.2983 24.9293 16.2434 24.9484C16.2159 24.958 16.1945 24.9653 16.1795 24.9703L16.162 24.9761L16.1569 24.9778L16.1554 24.9783L16.1548 24.9785C16.1546 24.9785 16.1544 24.9786 16.0004 24.5029C15.8463 24.9786 15.8461 24.9785 15.8459 24.9785L15.8454 24.9783L15.8438 24.9778L15.8388 24.9761L15.8212 24.9703C15.8062 24.9653 15.7848 24.958 15.7574 24.9484C15.7025 24.9293 15.6234 24.9011 15.5236 24.8636C15.3242 24.7886 15.0415 24.6764 14.7032 24.5257C14.028 24.2251 13.1241 23.7681 12.2167 23.1437C10.4219 21.9085 8.5 19.9359 8.5 17.135V9.76706C8.5 9.55026 8.63971 9.35817 8.84595 9.29138L15.8463 7.02432ZM16.0004 24.5029L16.1544 24.9786C16.0543 25.011 15.9465 25.011 15.8463 24.9786L16.0004 24.5029ZM16.0004 23.9736C16.0363 23.9606 16.0781 23.9452 16.1252 23.9275C16.3086 23.8586 16.5728 23.7538 16.8908 23.6122C17.5281 23.3284 18.3744 22.8998 19.2171 22.3199C20.9225 21.1463 22.5007 19.435 22.5007 17.135V10.1307L16.0004 8.02557L9.5 10.1307V17.135C9.5 19.435 11.0783 21.1463 12.7836 22.3199C13.6264 22.8998 14.4726 23.3284 15.11 23.6122C15.4279 23.7538 15.6921 23.8586 15.8755 23.9275C15.9227 23.9452 15.9644 23.9606 16.0004 23.9736ZM13.6183 14.7117C13.5606 14.7117 13.4377 14.7777 13.4377 14.9574V17.9404C13.4377 18.1201 13.5606 18.1861 13.6183 18.1861H18.3825C18.4402 18.1861 18.5631 18.1201 18.5631 17.9404V14.9574C18.5631 14.7777 18.4402 14.7117 18.3825 14.7117H17.7603C17.7569 14.7117 17.7536 14.7118 17.7502 14.7118C17.7468 14.7118 17.7434 14.7117 17.7401 14.7117H14.2601C14.2568 14.7117 14.2534 14.7118 14.25 14.7118C14.2466 14.7118 14.2433 14.7117 14.2399 14.7117H13.6183ZM13.75 13.7117H13.6183C12.9243 13.7117 12.4377 14.3134 12.4377 14.9574V17.9404C12.4377 18.5844 12.9243 19.1861 13.6183 19.1861H18.3825C19.0765 19.1861 19.5631 18.5844 19.5631 17.9404V14.9574C19.5631 14.3134 19.0765 13.7117 18.3825 13.7117H18.2502V13.3169C18.2502 12.0629 17.2533 11.0271 16.0001 11.0271C14.7469 11.0271 13.75 12.0629 13.75 13.3169V13.7117ZM14.75 13.7117V13.3169C14.75 12.5939 15.3202 12.0271 16.0001 12.0271C16.68 12.0271 17.2502 12.5939 17.2502 13.3169V13.7117H14.75Z" fill="url(#paint0_linear_9309_36432)"/>
</g>
</g>
<defs>
<filter id="filter0_f_9309_36432" x="-4" y="-4" width="40" height="40" filterUnits="userSpaceOnUse" color-interpolation-filters="sRGB">
<feFlood flood-opacity="0" result="BackgroundImageFix"/>
<feBlend mode="normal" in="SourceGraphic" in2="BackgroundImageFix" result="shape"/>
<feGaussianBlur stdDeviation="7" result="effect1_foregroundBlur_9309_36432"/>
</filter>
<linearGradient id="paint0_linear_9309_36432" x1="16.0004" y1="7" x2="16.0004" y2="25.0029" gradientUnits="userSpaceOnUse">
<stop stop-color="#F0F0F0"/>
<stop offset="1" stop-color="#9C9C9C"/>
</linearGradient>
<clipPath id="clip0_9309_36432">
<rect width="32" height="32" fill="white"/>
</clipPath>
<clipPath id="clip1_9309_36432">
<rect width="18" height="18" fill="white" transform="translate(7 7)"/>
</clipPath>
</defs>
</svg>
