<svg viewBox="0 0 32 32" fill="none" xmlns="http://www.w3.org/2000/svg">
<g clip-path="url(#clip0_9309_36398)">
<rect x="0.5" y="0.5" width="31" height="31" rx="3.5" fill="#131316" stroke="#242429"/>
<g opacity="0.25" filter="url(#filter0_f_9309_36398)">
<circle cx="16" cy="16" r="6" fill="#AEAEB7"/>
</g>
<g clip-path="url(#clip1_9309_36398)">
<path fill-rule="evenodd" clip-rule="evenodd" d="M7.99857 7.5C8.27471 7.5 8.49857 7.72386 8.49857 8V12.8342H11.1991C11.4753 12.8342 11.6991 13.0581 11.6991 13.3342C11.6991 13.6104 11.4753 13.8342 11.1991 13.8342H8.49857V21.3692H11.1991C11.4753 21.3692 11.6991 21.593 11.6991 21.8692C11.6991 22.1453 11.4753 22.3692 11.1991 22.3692H7.99857C7.72242 22.3692 7.49857 22.1453 7.49857 21.8692V13.3342V8C7.49857 7.72386 7.72242 7.5 7.99857 7.5ZM14.3998 10.7006C14.1237 10.7006 13.8998 10.9245 13.8998 11.2006V15.4681C13.8998 15.7442 14.1237 15.9681 14.3998 15.9681H24.0015C24.2777 15.9681 24.5015 15.7442 24.5015 15.4681V11.2006C24.5015 10.9245 24.2777 10.7006 24.0015 10.7006H14.3998ZM23.5015 14.9681H14.8998V11.7006H23.5015V14.9681ZM14.3998 19.2355C14.1237 19.2355 13.8998 19.4594 13.8998 19.7355V24.0029C13.8998 24.2791 14.1237 24.5029 14.3998 24.5029H24.0015C24.2777 24.5029 24.5015 24.2791 24.5015 24.0029V19.7355C24.5015 19.4594 24.2777 19.2355 24.0015 19.2355H14.3998ZM14.8998 23.5029V20.2355H23.5015V23.5029H14.8998Z" fill="url(#paint0_linear_9309_36398)"/>
</g>
</g>
<defs>
<filter id="filter0_f_9309_36398" x="-4" y="-4" width="40" height="40" filterUnits="userSpaceOnUse" color-interpolation-filters="sRGB">
<feFlood flood-opacity="0" result="BackgroundImageFix"/>
<feBlend mode="normal" in="SourceGraphic" in2="BackgroundImageFix" result="shape"/>
<feGaussianBlur stdDeviation="7" result="effect1_foregroundBlur_9309_36398"/>
</filter>
<linearGradient id="paint0_linear_9309_36398" x1="16.0001" y1="7.5" x2="16.0001" y2="24.5029" gradientUnits="userSpaceOnUse">
<stop stop-color="#F0F0F0"/>
<stop offset="1" stop-color="#9C9C9C"/>
</linearGradient>
<clipPath id="clip0_9309_36398">
<rect width="32" height="32" fill="white"/>
</clipPath>
<clipPath id="clip1_9309_36398">
<rect width="18" height="18" fill="white" transform="translate(7 7)"/>
</clipPath>
</defs>
</svg>
