<svg viewBox="0 0 32 32" fill="none" xmlns="http://www.w3.org/2000/svg">
<g clip-path="url(#clip0_9309_36469)">
<rect x="0.5" y="0.5" width="31" height="31" rx="3.5" fill="#131316" stroke="#242429"/>
<g opacity="0.25" filter="url(#filter0_f_9309_36469)">
<circle cx="16" cy="16" r="6" fill="#AEAEB7"/>
</g>
<path fill-rule="evenodd" clip-rule="evenodd" d="M7.5625 8.5C7.28636 8.5 7.0625 8.72386 7.0625 9C7.0625 9.27614 7.28636 9.5 7.5625 9.5H24.4375C24.7136 9.5 24.9375 9.27614 24.9375 9C24.9375 8.72386 24.7136 8.5 24.4375 8.5H7.5625ZM7.5625 13C7.28636 13 7.0625 13.2239 7.0625 13.5C7.0625 13.7761 7.28636 14 7.5625 14H13.1875C13.4636 14 13.6875 13.7761 13.6875 13.5C13.6875 13.2239 13.4636 13 13.1875 13H7.5625ZM7.0625 18C7.0625 17.7239 7.28636 17.5 7.5625 17.5H13.1875C13.4636 17.5 13.6875 17.7239 13.6875 18C13.6875 18.2761 13.4636 18.5 13.1875 18.5H7.5625C7.28636 18.5 7.0625 18.2761 7.0625 18ZM7.5625 22C7.28636 22 7.0625 22.2239 7.0625 22.5C7.0625 22.7761 7.28636 23 7.5625 23H24.4375C24.7136 23 24.9375 22.7761 24.9375 22.5C24.9375 22.2239 24.7136 22 24.4375 22H7.5625ZM19.375 12.875C18.0978 12.875 17.0625 13.9103 17.0625 15.1875C17.0625 16.4647 18.0978 17.5 19.375 17.5C20.6522 17.5 21.6875 16.4647 21.6875 15.1875C21.6875 13.9103 20.6522 12.875 19.375 12.875ZM16.0625 15.1875C16.0625 13.3581 17.5456 11.875 19.375 11.875C21.2044 11.875 22.6875 13.3581 22.6875 15.1875C22.6875 15.9218 22.4486 16.6003 22.0442 17.1495L24.2286 19.3339C24.4239 19.5291 24.4239 19.8457 24.2286 20.041C24.0334 20.2363 23.7168 20.2363 23.5215 20.041L21.3371 17.8566C20.7879 18.261 20.1094 18.5 19.375 18.5C17.5456 18.5 16.0625 17.0169 16.0625 15.1875Z" fill="url(#paint0_linear_9309_36469)"/>
</g>
<defs>
<filter id="filter0_f_9309_36469" x="-4" y="-4" width="40" height="40" filterUnits="userSpaceOnUse" color-interpolation-filters="sRGB">
<feFlood flood-opacity="0" result="BackgroundImageFix"/>
<feBlend mode="normal" in="SourceGraphic" in2="BackgroundImageFix" result="shape"/>
<feGaussianBlur stdDeviation="7" result="effect1_foregroundBlur_9309_36469"/>
</filter>
<linearGradient id="paint0_linear_9309_36469" x1="16" y1="8.5" x2="16" y2="23" gradientUnits="userSpaceOnUse">
<stop stop-color="#F0F0F0"/>
<stop offset="1" stop-color="#9C9C9C"/>
</linearGradient>
<clipPath id="clip0_9309_36469">
<rect width="32" height="32" fill="white"/>
</clipPath>
</defs>
</svg>
