<svg viewBox="0 0 32 32" fill="none" xmlns="http://www.w3.org/2000/svg">
<g clip-path="url(#clip0_9309_36501)">
<rect x="0.5" y="0.5" width="31" height="31" rx="3.5" fill="#131316" stroke="#242429"/>
<g opacity="0.25" filter="url(#filter0_f_9309_36501)">
<circle cx="16" cy="16" r="6" fill="#AEAEB7"/>
</g>
<g clip-path="url(#clip1_9309_36501)">
<path fill-rule="evenodd" clip-rule="evenodd" d="M16.1544 7.02432C16.0543 6.99189 15.9465 6.99189 15.8463 7.02432L8.84595 9.29138C8.63971 9.35817 8.5 9.55026 8.5 9.76706V17.135C8.5 19.9359 10.4219 21.9085 12.2167 23.1437C13.1241 23.7681 14.028 24.2251 14.7032 24.5257C15.0415 24.6764 15.3242 24.7886 15.5236 24.8636C15.6234 24.9011 15.7025 24.9293 15.7574 24.9484C15.7848 24.958 15.8062 24.9653 15.8212 24.9703L15.8388 24.9761L15.8438 24.9778L15.8454 24.9783L15.8459 24.9785C15.8461 24.9785 15.8463 24.9786 16.0004 24.5029L15.8463 24.9786C15.9465 25.011 16.0543 25.011 16.1544 24.9786L16.0004 24.5029C16.1544 24.9786 16.1546 24.9785 16.1548 24.9785L16.1554 24.9783L16.1569 24.9778L16.162 24.9761L16.1795 24.9703C16.1945 24.9653 16.2159 24.958 16.2434 24.9484C16.2983 24.9293 16.3773 24.9011 16.4771 24.8636C16.6765 24.7886 16.9593 24.6764 17.2976 24.5257C17.9728 24.2251 18.8767 23.7681 19.784 23.1437C21.5788 21.9085 23.5007 19.9359 23.5007 17.135V9.76706C23.5007 9.55026 23.361 9.35817 23.1548 9.29138L16.1544 7.02432ZM16.1252 23.9275C16.0781 23.9452 16.0363 23.9606 16.0004 23.9736C15.9644 23.9606 15.9227 23.9452 15.8755 23.9275C15.6921 23.8586 15.4279 23.7538 15.11 23.6122C14.4726 23.3284 13.6264 22.8998 12.7836 22.3199C11.0783 21.1463 9.5 19.435 9.5 17.135V10.1307L16.0004 8.02557L22.5007 10.1307V17.135C22.5007 19.435 20.9225 21.1463 19.2171 22.3199C18.3744 22.8998 17.5281 23.3284 16.8908 23.6122C16.5728 23.7538 16.3086 23.8586 16.1252 23.9275ZM20.3504 13.3567C20.5474 13.1632 20.5502 12.8467 20.3567 12.6496C20.1632 12.4526 19.8467 12.4498 19.6496 12.6433L14.9102 17.2981L12.3515 14.7694C12.1551 14.5753 11.8385 14.5771 11.6444 14.7735C11.4503 14.9699 11.4521 15.2865 11.6485 15.4806L14.5576 18.3556C14.752 18.5477 15.0645 18.5482 15.2594 18.3567L20.3504 13.3567Z" fill="url(#paint0_linear_9309_36501)"/>
</g>
</g>
<defs>
<filter id="filter0_f_9309_36501" x="-4" y="-4" width="40" height="40" filterUnits="userSpaceOnUse" color-interpolation-filters="sRGB">
<feFlood flood-opacity="0" result="BackgroundImageFix"/>
<feBlend mode="normal" in="SourceGraphic" in2="BackgroundImageFix" result="shape"/>
<feGaussianBlur stdDeviation="7" result="effect1_foregroundBlur_9309_36501"/>
</filter>
<linearGradient id="paint0_linear_9309_36501" x1="16.95" y1="6.59998" x2="16.95" y2="25.0029" gradientUnits="userSpaceOnUse">
<stop stop-color="#F0F0F0"/>
<stop offset="1" stop-color="#9C9C9C"/>
</linearGradient>
<clipPath id="clip0_9309_36501">
<rect width="32" height="32" fill="white"/>
</clipPath>
<clipPath id="clip1_9309_36501">
<rect width="18" height="18" fill="white" transform="translate(7 7)"/>
</clipPath>
</defs>
</svg>
