<svg viewBox="0 0 32 32" fill="none" xmlns="http://www.w3.org/2000/svg">
<g clip-path="url(#clip0_9309_36411)">
<rect x="0.5" y="0.5" width="31" height="31" rx="3.5" fill="#131316" stroke="#242429"/>
<g opacity="0.25" filter="url(#filter0_f_9309_36411)">
<circle cx="16" cy="16" r="6" fill="#AEAEB7"/>
</g>
<path fill-rule="evenodd" clip-rule="evenodd" d="M16 7.41797L16.3536 7.77152L17.8536 9.27152C18.0488 9.46678 18.0488 9.78337 17.8536 9.97863C17.6583 10.1739 17.3417 10.1739 17.1465 9.97863L16.5 9.33218V13.8058C16.9491 13.9077 17.3472 14.144 17.6498 14.4702L21.5183 12.2367L20.5716 11.983C20.3048 11.9116 20.1465 11.6374 20.218 11.3707C20.2895 11.1039 20.5636 10.9456 20.8304 11.0171L22.8794 11.5662L23.3624 11.6956L23.233 12.1785L22.6839 14.2276C22.6125 14.4943 22.3383 14.6526 22.0716 14.5811C21.8048 14.5096 21.6465 14.2355 21.718 13.9687L21.9376 13.1493L18.1504 15.3359C18.2151 15.5458 18.25 15.7689 18.25 16.0001C18.25 16.2313 18.2151 16.4543 18.1504 16.6643L21.9376 18.8508L21.718 18.0314C21.6465 17.7647 21.8048 17.4905 22.0716 17.419C22.3383 17.3476 22.6125 17.5059 22.6839 17.7726L23.233 19.8216L23.3624 20.3046L22.8794 20.434L20.8304 20.983C20.5636 21.0545 20.2895 20.8962 20.218 20.6295C20.1465 20.3628 20.3048 20.0886 20.5716 20.0171L21.5183 19.7634L17.6498 17.53C17.3472 17.8561 16.9491 18.0924 16.5 18.1943V22.668L17.1465 22.0215C17.3417 21.8263 17.6583 21.8263 17.8536 22.0215C18.0488 22.2168 18.0488 22.5334 17.8536 22.7286L16.3536 24.2286L16 24.5822L15.6465 24.2286L14.1465 22.7286C13.9512 22.5334 13.9512 22.2168 14.1465 22.0215C14.3417 21.8263 14.6583 21.8263 14.8536 22.0215L15.5 22.668V18.1943C15.0508 18.0924 14.6527 17.8561 14.3501 17.5299L10.4816 19.7634L11.4285 20.0171C11.6952 20.0886 11.8535 20.3628 11.782 20.6295C11.7105 20.8962 11.4364 21.0545 11.1696 20.983L9.1206 20.434L8.63763 20.3046L8.76704 19.8216L9.31608 17.7726C9.38755 17.5059 9.66172 17.3476 9.92845 17.419C10.1952 17.4905 10.3535 17.7647 10.282 18.0314L10.0625 18.8507L13.8496 16.6642C13.7849 16.4543 13.75 16.2313 13.75 16.0001C13.75 15.7689 13.7849 15.5459 13.8496 15.3359L10.0625 13.1494L10.282 13.9687C10.3535 14.2355 10.1952 14.5096 9.92845 14.5811C9.66172 14.6526 9.38755 14.4943 9.31608 14.2276L8.76704 12.1785L8.63763 11.6956L9.1206 11.5662L11.1696 11.0171C11.4364 10.9456 11.7105 11.1039 11.782 11.3707C11.8535 11.6374 11.6952 11.9116 11.4285 11.983L10.4816 12.2367L14.3501 14.4702C14.6527 14.144 15.0508 13.9077 15.5 13.8058V9.33218L14.8536 9.97863C14.6583 10.1739 14.3417 10.1739 14.1465 9.97863C13.9512 9.78337 13.9512 9.46678 14.1465 9.27152L15.6465 7.77152L16 7.41797Z" fill="url(#paint0_linear_9309_36411)"/>
</g>
<defs>
<filter id="filter0_f_9309_36411" x="-4" y="-4" width="40" height="40" filterUnits="userSpaceOnUse" color-interpolation-filters="sRGB">
<feFlood flood-opacity="0" result="BackgroundImageFix"/>
<feBlend mode="normal" in="SourceGraphic" in2="BackgroundImageFix" result="shape"/>
<feGaussianBlur stdDeviation="7" result="effect1_foregroundBlur_9309_36411"/>
</filter>
<linearGradient id="paint0_linear_9309_36411" x1="16" y1="7.41797" x2="16" y2="24.5822" gradientUnits="userSpaceOnUse">
<stop stop-color="#F0F0F0"/>
<stop offset="1" stop-color="#9C9C9C"/>
</linearGradient>
<clipPath id="clip0_9309_36411">
<rect width="32" height="32" fill="white"/>
</clipPath>
</defs>
</svg>
