<svg viewBox="0 0 32 32" fill="none" xmlns="http://www.w3.org/2000/svg">
<g clip-path="url(#clip0_9309_36515)">
<rect x="0.5" y="0.5" width="31" height="31" rx="3.5" fill="#131316" stroke="#242429"/>
<g opacity="0.25" filter="url(#filter0_f_9309_36515)">
<circle cx="16" cy="16" r="6" fill="#AEAEB7"/>
</g>
<g clip-path="url(#clip1_9309_36515)">
<path fill-rule="evenodd" clip-rule="evenodd" d="M16 7.0625C14.8473 7.0625 13.7231 7.42106 12.7832 8.08849C11.9455 8.68337 11.2912 9.49737 10.8899 10.4379C9.87943 10.4503 8.91295 10.8571 8.19746 11.5726C7.47076 12.2993 7.0625 13.2849 7.0625 14.3126C7.0625 15.3404 7.47076 16.326 8.19746 17.0527C8.92416 17.7794 9.90979 18.1876 10.9375 18.1876H10.9999V20.293L9.91609 21.3768C9.63702 21.2167 9.31358 21.1251 8.96875 21.1251C7.91596 21.1251 7.0625 21.9786 7.0625 23.0314C7.0625 24.0842 7.91596 24.9376 8.96875 24.9376C10.0215 24.9376 10.875 24.0842 10.875 23.0314C10.875 22.6865 10.7834 22.363 10.6232 22.0839L11.8534 20.8537C11.9472 20.7599 11.9999 20.6327 11.9999 20.5001V18.1876H15.5V21.1914C14.6897 21.411 14.0938 22.1516 14.0938 23.0314C14.0938 24.0842 14.9472 24.9376 16 24.9376C17.0528 24.9376 17.9062 24.0842 17.9062 23.0314C17.9062 22.1516 17.3103 21.411 16.5 21.1914V18.1876H20V20.5001C20 20.6327 20.0527 20.7599 20.1464 20.8537L21.3767 22.084C21.2166 22.363 21.125 22.6865 21.125 23.0314C21.125 24.0842 21.9785 24.9376 23.0312 24.9376C24.084 24.9376 24.9375 24.0842 24.9375 23.0314C24.9375 21.9786 24.084 21.1251 23.0312 21.1251C22.6864 21.1251 22.3629 21.2167 22.0838 21.3769L21 20.293V18.1876H21.0625C22.0902 18.1876 23.0758 17.7794 23.8025 17.0527C24.5292 16.326 24.9375 15.3404 24.9375 14.3126C24.9375 13.2849 24.5292 12.2993 23.8025 11.5726C23.0871 10.8571 22.1206 10.4503 21.1101 10.4379C20.7088 9.49737 20.0545 8.68337 19.2168 8.08849C18.2769 7.42106 17.1527 7.0625 16 7.0625ZM20.5044 17.1876H21.0625C21.825 17.1876 22.5563 16.8847 23.0954 16.3456C23.6346 15.8064 23.9375 15.0751 23.9375 14.3126C23.9375 13.5501 23.6346 12.8189 23.0954 12.2797C22.5563 11.7405 21.825 11.4376 21.0625 11.4376C20.9863 11.4376 20.9077 11.4429 20.8144 11.4506C20.5874 11.4693 20.3764 11.3321 20.3013 11.117C19.9898 10.2246 19.4085 9.45111 18.6378 8.90382C17.8671 8.35652 16.9452 8.0625 16 8.0625C15.0548 8.0625 14.1329 8.35652 13.3622 8.90382C12.5915 9.45111 12.0102 10.2246 11.6987 11.117C11.6236 11.3321 11.4126 11.4693 11.1856 11.4506C11.0923 11.4429 11.0137 11.4376 10.9375 11.4376C10.175 11.4376 9.44374 11.7405 8.90457 12.2797C8.3654 12.8189 8.0625 13.5501 8.0625 14.3126C8.0625 15.0751 8.3654 15.8064 8.90457 16.3456C9.44374 16.8847 10.175 17.1876 10.9375 17.1876H11.4955C11.4969 17.1876 11.4984 17.1876 11.4999 17.1876C11.5014 17.1876 11.5028 17.1876 11.5043 17.1876H15.9956C15.9971 17.1876 15.9985 17.1876 16 17.1876C16.0015 17.1876 16.0029 17.1876 16.0044 17.1876H20.4956C20.4971 17.1876 20.4985 17.1876 20.5 17.1876C20.5015 17.1876 20.5029 17.1876 20.5044 17.1876ZM15.0938 23.0314C15.0938 22.5309 15.4995 22.1251 16 22.1251C16.5005 22.1251 16.9062 22.5309 16.9062 23.0314C16.9062 23.5319 16.5005 23.9376 16 23.9376C15.4995 23.9376 15.0938 23.5319 15.0938 23.0314ZM8.96875 22.1251C8.46824 22.1251 8.0625 22.5309 8.0625 23.0314C8.0625 23.5319 8.46824 23.9376 8.96875 23.9376C9.46926 23.9376 9.875 23.5319 9.875 23.0314C9.875 22.5309 9.46926 22.1251 8.96875 22.1251ZM22.4122 22.3695C22.5742 22.2179 22.7919 22.1251 23.0312 22.1251C23.5318 22.1251 23.9375 22.5309 23.9375 23.0314C23.9375 23.5319 23.5318 23.9376 23.0312 23.9376C22.5307 23.9376 22.125 23.5319 22.125 23.0314C22.125 22.792 22.2178 22.5743 22.3694 22.4123C22.3769 22.4057 22.3842 22.3987 22.3914 22.3916C22.3986 22.3844 22.4055 22.377 22.4122 22.3695Z" fill="url(#paint0_linear_9309_36515)"/>
</g>
</g>
<defs>
<filter id="filter0_f_9309_36515" x="-4" y="-4" width="40" height="40" filterUnits="userSpaceOnUse" color-interpolation-filters="sRGB">
<feFlood flood-opacity="0" result="BackgroundImageFix"/>
<feBlend mode="normal" in="SourceGraphic" in2="BackgroundImageFix" result="shape"/>
<feGaussianBlur stdDeviation="7" result="effect1_foregroundBlur_9309_36515"/>
</filter>
<linearGradient id="paint0_linear_9309_36515" x1="16" y1="7.0625" x2="16" y2="24.9376" gradientUnits="userSpaceOnUse">
<stop stop-color="#F0F0F0"/>
<stop offset="1" stop-color="#9C9C9C"/>
</linearGradient>
<clipPath id="clip0_9309_36515">
<rect width="32" height="32" fill="white"/>
</clipPath>
<clipPath id="clip1_9309_36515">
<rect width="18" height="18" fill="white" transform="translate(7 7)"/>
</clipPath>
</defs>
</svg>
