<svg viewBox="0 0 32 32" fill="none" xmlns="http://www.w3.org/2000/svg">
<g clip-path="url(#clip0_9309_36372)">
<rect x="0.5" y="0.5" width="31" height="31" rx="3.5" fill="#131316" stroke="#242429"/>
<g opacity="0.25" filter="url(#filter0_f_9309_36372)">
<circle cx="16" cy="16" r="6" fill="#AEAEB7"/>
</g>
<g clip-path="url(#clip1_9309_36372)">
<path fill-rule="evenodd" clip-rule="evenodd" d="M24.791 7.20886C24.9863 7.40407 24.9864 7.72066 24.7912 7.91597L22.847 9.86116C23.4692 10.6428 23.8127 11.6162 23.8127 12.625C23.8127 13.7998 23.3468 14.9265 22.5174 15.7583L21.4247 16.9071C21.3318 17.0047 21.2035 17.0607 21.0687 17.0624C20.9339 17.0641 20.8042 17.0113 20.7089 16.916L15.112 11.3191C14.9168 11.1239 14.9168 10.8073 15.112 10.612L16.237 9.48703C17.0693 8.6548 18.198 8.18726 19.375 8.18726C20.3843 8.18726 21.3582 8.5311 22.14 9.15393L24.0839 7.20903C24.2791 7.01372 24.5957 7.01365 24.791 7.20886ZM21.7879 10.1764C21.145 9.54281 20.2783 9.18726 19.375 9.18726C18.4632 9.18726 17.5888 9.54944 16.9441 10.1941L16.1727 10.9656L21.0535 15.8464L21.797 15.0647L21.8057 15.0557L21.8058 15.0558C22.4505 14.4111 22.8127 13.5367 22.8127 12.625C22.8127 11.7221 22.4575 10.8559 21.8246 10.2131C21.8183 10.2074 21.812 10.2015 21.806 10.1954C21.7998 10.1892 21.7937 10.1829 21.7879 10.1764ZM14.665 15.7909C14.8602 15.5956 14.8601 15.279 14.6648 15.0838C14.4695 14.8886 14.1529 14.8887 13.9577 15.0841L12.6249 16.4178L11.291 15.0839C11.1957 14.9886 11.066 14.9359 10.9312 14.9375C10.7964 14.9392 10.6681 14.9952 10.5752 15.0929L9.48248 16.2416C8.6531 17.0734 8.18726 18.2002 8.18726 19.375C8.18726 20.3838 8.53077 21.3572 9.15302 22.1389L7.20886 24.084C7.01365 24.2793 7.01372 24.5959 7.20903 24.7911C7.40434 24.9863 7.72093 24.9862 7.91614 24.7909L9.86002 22.8461C10.6418 23.4689 11.6157 23.8127 12.625 23.8127C13.8019 23.8127 14.9307 23.3452 15.7629 22.5129L16.8879 21.3879C17.0831 21.1927 17.0831 20.8761 16.8879 20.6808L15.5821 19.375L16.9161 18.0411C17.1113 17.8458 17.1113 17.5292 16.9161 17.3339C16.7208 17.1387 16.4042 17.1387 16.2089 17.3339L14.875 18.6679L13.332 17.1249L14.665 15.7909ZM10.2132 21.8248C10.856 22.4576 11.7222 22.8127 12.625 22.8127C13.5367 22.8127 14.4111 22.4505 15.0558 21.8058L15.8272 21.0344L10.9464 16.1536L10.2029 16.9352L10.1942 16.9443L10.1941 16.9442C9.54944 17.5889 9.18726 18.4633 9.18726 19.375C9.18726 20.2773 9.54198 21.143 10.1742 21.7857C10.181 21.7918 10.1876 21.7981 10.1941 21.8046C10.2007 21.8112 10.2071 21.8179 10.2132 21.8248Z" fill="url(#paint0_linear_9309_36372)"/>
</g>
</g>
<defs>
<filter id="filter0_f_9309_36372" x="-4" y="-4" width="40" height="40" filterUnits="userSpaceOnUse" color-interpolation-filters="sRGB">
<feFlood flood-opacity="0" result="BackgroundImageFix"/>
<feBlend mode="normal" in="SourceGraphic" in2="BackgroundImageFix" result="shape"/>
<feGaussianBlur stdDeviation="7" result="effect1_foregroundBlur_9309_36372"/>
</filter>
<linearGradient id="paint0_linear_9309_36372" x1="16" y1="7.0625" x2="16" y2="24.9375" gradientUnits="userSpaceOnUse">
<stop stop-color="#F0F0F0"/>
<stop offset="1" stop-color="#9C9C9C"/>
</linearGradient>
<clipPath id="clip0_9309_36372">
<rect width="32" height="32" fill="white"/>
</clipPath>
<clipPath id="clip1_9309_36372">
<rect width="18" height="18" fill="white" transform="translate(7 7)"/>
</clipPath>
</defs>
</svg>
