<svg width="16" height="16" viewBox="0 0 16 16" fill="none" xmlns="http://www.w3.org/2000/svg">
<g clip-path="url(#clip0_8591_105638)">
<path fill-rule="evenodd" clip-rule="evenodd" d="M16 8C16 12.4183 12.4183 16 8 16C3.58172 16 0 12.4183 0 8C0 3.58172 3.58172 0 8 0C12.4183 0 16 3.58172 16 8ZM3.06552 8.01589C3.29405 7.77594 3.67383 7.76667 3.91379 7.9952L6.19941 10.172L12.0862 4.56552C12.3262 4.33699 12.706 4.34625 12.9345 4.58621C13.163 4.82617 13.1538 5.20595 12.9138 5.43448L6.63579 11.4135C6.63535 11.414 6.63492 11.4145 6.63448 11.4149C6.40595 11.6549 6.02617 11.6641 5.78621 11.4356L3.08621 8.86417C2.84625 8.63564 2.83699 8.25585 3.06552 8.01589Z" fill="#63E9A6"/>
</g>
<defs>
<clipPath id="clip0_8591_105638">
<rect width="16" height="16" fill="white"/>
</clipPath>
</defs>
</svg>
