<svg viewBox="0 0 18 18" fill="none" xmlns="http://www.w3.org/2000/svg">
<path fill-rule="evenodd" clip-rule="evenodd" d="M16.3536 2.35355C16.5489 2.15829 16.5489 1.84171 16.3536 1.64645C16.1584 1.45118 15.8418 1.45118 15.6465 1.64645L10.2619 7.03106C10.0667 7.22632 10.0667 7.54291 10.2619 7.73817C10.4572 7.93343 10.7738 7.93343 10.969 7.73817L16.3536 2.35355ZM11.7063 3.04038C11.8717 2.61018 11.8715 2.61011 11.8713 2.61004L11.8709 2.60988L11.8699 2.6095L11.8672 2.60849L11.8594 2.60555L11.8336 2.59621C11.8122 2.58855 11.7821 2.57814 11.7442 2.56579C11.6686 2.54111 11.5614 2.50856 11.4291 2.47473C11.1656 2.40738 10.7966 2.3334 10.3753 2.30865C9.54235 2.25971 8.43018 2.40111 7.56949 3.2618L3.2618 7.56949C2.40111 8.43018 2.25971 9.54235 2.30865 10.3753C2.3334 10.7966 2.40738 11.1656 2.47473 11.4291C2.50856 11.5614 2.54111 11.6686 2.56579 11.7442C2.57814 11.7821 2.58855 11.8122 2.59621 11.8336L2.60555 11.8594L2.60849 11.8672L2.6095 11.8699L2.60988 11.8709L2.61004 11.8713C2.61011 11.8715 2.61018 11.8717 3.04038 11.7063L2.61018 11.8717C2.70926 12.1294 2.99854 12.2581 3.25629 12.159C3.51394 12.0599 3.64257 11.7709 3.54371 11.5132L3.54359 11.5129L3.54317 11.5117L3.53812 11.4978C3.53334 11.4844 3.52588 11.4629 3.5165 11.4342C3.49773 11.3766 3.47141 11.2903 3.44357 11.1814C3.38758 10.9624 3.327 10.6583 3.30693 10.3167C3.26622 9.62388 3.39405 8.85144 3.9689 8.27659L8.27659 3.9689C8.85144 3.39405 9.62388 3.26622 10.3167 3.30693C10.6219 3.32487 10.8971 3.37513 11.1085 3.42557C11.1337 3.43158 11.158 3.4376 11.1814 3.44357C11.2903 3.47141 11.3766 3.49773 11.4342 3.5165C11.4629 3.52588 11.4844 3.53334 11.4978 3.53812L11.5117 3.54317L11.5129 3.54359L11.5132 3.54371L11.5132 3.54374L11.5134 3.54381L11.5138 3.54395L11.5139 3.54398C11.7714 3.64234 12.06 3.51371 12.159 3.25629C12.2581 2.99854 12.1294 2.70926 11.8717 2.61018L11.7063 3.04038ZM15.3897 6.12834C15.2906 5.87058 15.0014 5.74195 14.7436 5.84103C14.4859 5.94007 14.3573 6.22915 14.4562 6.48683L14.4563 6.48714L14.4567 6.48831L14.4618 6.50223C14.4666 6.51564 14.474 6.5371 14.4834 6.56585C14.5022 6.62343 14.5285 6.70975 14.5563 6.81866C14.6123 7.03766 14.6729 7.34173 14.693 7.68336C14.7337 8.37613 14.6058 9.14857 14.031 9.72342L9.72329 14.0311C9.14845 14.606 8.37601 14.7338 7.68324 14.6931C7.34161 14.673 7.03754 14.6124 6.81854 14.5564C6.70962 14.5286 6.6233 14.5023 6.56573 14.4835C6.53698 14.4741 6.51551 14.4667 6.50211 14.4619L6.48819 14.4568L6.48702 14.4564L6.48671 14.4563L6.48645 14.4562L6.48608 14.4561L6.48605 14.456C6.22854 14.3577 5.93987 14.4863 5.84091 14.7437C5.74183 15.0015 5.87046 15.2907 6.12821 15.3898L6.30762 14.9231C6.12821 15.3898 6.12839 15.3899 6.12858 15.39L6.129 15.3901L6.13 15.3905L6.13266 15.3915L6.14052 15.3945L6.16624 15.4038C6.18772 15.4115 6.2178 15.4219 6.25567 15.4342C6.33132 15.4589 6.43854 15.4915 6.57084 15.5253C6.83427 15.5926 7.20334 15.6666 7.62458 15.6914C8.45753 15.7403 9.56971 15.5989 10.4304 14.7382L14.7381 10.4305C15.5988 9.56983 15.7402 8.45766 15.6912 7.6247C15.6665 7.20346 15.5925 6.83439 15.5252 6.57096C15.4913 6.43866 15.4588 6.33144 15.4341 6.25579C15.4218 6.21792 15.4113 6.18785 15.4037 6.16636L15.3943 6.14064L15.3914 6.13278L15.3904 6.13012L15.39 6.12912L15.3898 6.1287C15.3898 6.12851 15.3897 6.12834 14.923 6.30774L15.3897 6.12834ZM7.73817 10.2618C7.93343 10.4571 7.93343 10.7736 7.73817 10.9689L2.35355 16.3535C2.15829 16.5488 1.84171 16.5488 1.64645 16.3535C1.45118 16.1583 1.45118 15.8417 1.64645 15.6464L7.03106 10.2618C7.22632 10.0665 7.54291 10.0665 7.73817 10.2618Z" fill="url(#paint0_linear_9309_36490)"/>
<defs>
<linearGradient id="paint0_linear_9309_36490" x1="9.94963" y1="1.1667" x2="9.94963" y2="16.5" gradientUnits="userSpaceOnUse">
<stop stop-color="currentColor"/>
<stop offset="1" stop-color="currentColor"/>
</linearGradient>
</defs>
</svg>
