<svg viewBox="0 0 12 12" fill="none" xmlns="http://www.w3.org/2000/svg">
<path fill-rule="evenodd" clip-rule="evenodd" d="M2.25 0.25C1.55964 0.25 1 0.809644 1 1.5V9.75C1 10.4404 1.55964 11 2.25 11H4.5C4.77614 11 5 10.7761 5 10.5C5 10.2239 4.77614 10 4.5 10H2.25C2.11193 10 2 9.88807 2 9.75V1.5C2 1.36193 2.11193 1.25 2.25 1.25H8.25C8.38807 1.25 8.5 1.36193 8.5 1.5V6.75C8.5 7.02614 8.72386 7.25 9 7.25C9.27614 7.25 9.5 7.02614 9.5 6.75V1.5C9.5 0.809644 8.94036 0.25 8.25 0.25H2.25ZM3.375 3.25C3.09886 3.25 2.875 3.47386 2.875 3.75C2.875 4.02614 3.09886 4.25 3.375 4.25H7.125C7.40114 4.25 7.625 4.02614 7.625 3.75C7.625 3.47386 7.40114 3.25 7.125 3.25H3.375ZM2.875 6C2.875 5.72386 3.09886 5.5 3.375 5.5H5.625C5.90114 5.5 6.125 5.72386 6.125 6C6.125 6.27614 5.90114 6.5 5.625 6.5H3.375C3.09886 6.5 2.875 6.27614 2.875 6ZM11.6036 8.22855C11.7988 8.03329 11.7988 7.71671 11.6036 7.52145C11.4083 7.32618 11.0917 7.32618 10.8964 7.52145L7.875 10.5429L6.72855 9.39645C6.53329 9.20118 6.21671 9.20118 6.02145 9.39645C5.82618 9.59171 5.82618 9.90829 6.02145 10.1036L7.52145 11.6036C7.71671 11.7988 8.03329 11.7988 8.22855 11.6036L11.6036 8.22855Z" fill="#93939F"/>
</svg>
