<svg viewBox="0 0 12 12" fill="none" xmlns="http://www.w3.org/2000/svg">
<path d="M9.5 6C9.5 5.46957 9.71071 4.96086 10.0858 4.58579C10.4609 4.21071 10.9696 4 11.5 4V2.5C11.5 2.23478 11.3946 1.98043 11.2071 1.79289C11.0196 1.60536 10.7652 1.5 10.5 1.5H1.5C1.23478 1.5 0.98043 1.60536 0.792893 1.79289C0.605357 1.98043 0.5 2.23478 0.5 2.5V4C1.03043 4 1.53914 4.21071 1.91421 4.58579C2.28929 4.96086 2.5 5.46957 2.5 6C2.5 6.53043 2.28929 7.03914 1.91421 7.41421C1.53914 7.78929 1.03043 8 0.5 8V9.5C0.5 9.76522 0.605357 10.0196 0.792893 10.2071C0.98043 10.3946 1.23478 10.5 1.5 10.5H10.5C10.7652 10.5 11.0196 10.3946 11.2071 10.2071C11.3946 10.0196 11.5 9.76522 11.5 9.5V8C10.9696 8 10.4609 7.78929 10.0858 7.41421C9.71071 7.03914 9.5 6.53043 9.5 6Z" stroke="currentColor" stroke-linecap="round" stroke-linejoin="round"/>
</svg>
