<svg viewBox="0 0 12 12" fill="none" xmlns="http://www.w3.org/2000/svg">
<g>
<path d="M3.43346 7.10033C4.24348 7.10033 4.90013 6.44368 4.90013 5.63366C4.90013 4.82364 4.24348 4.16699 3.43346 4.16699C2.62345 4.16699 1.9668 4.82364 1.9668 5.63366C1.9668 6.44368 2.62345 7.10033 3.43346 7.10033Z" stroke="currentColor" stroke-linecap="round" stroke-linejoin="round"/>
<path d="M3.43333 8.56641C1.8134 8.56641 0.5 9.87981 0.5 11.4997H6.36667C6.36667 9.87981 5.05327 8.56641 3.43333 8.56641Z" stroke="currentColor" stroke-linecap="round" stroke-linejoin="round"/>
<path d="M8.56628 3.43333C9.37629 3.43333 10.0329 2.77668 10.0329 1.96667C10.0329 1.15665 9.37629 0.5 8.56628 0.5C7.75626 0.5 7.09961 1.15665 7.09961 1.96667C7.09961 2.77668 7.75626 3.43333 8.56628 3.43333Z" stroke="currentColor" stroke-linecap="round" stroke-linejoin="round"/>
<path d="M6.73242 7.83372H11.4991C11.4991 6.21379 10.1857 4.90039 8.56576 4.90039C7.87202 4.90039 7.23476 5.14092 6.73242 5.54352" stroke="currentColor" stroke-linecap="round" stroke-linejoin="round"/>
</g>
</svg>
