<svg viewBox="0 0 14 14" fill="none" xmlns="http://www.w3.org/2000/svg">
<path d="M6.99872 10.7943C7.35613 10.7943 7.64587 10.5046 7.64587 10.1472C7.64587 9.78974 7.35613 9.5 6.99872 9.5C6.6413 9.5 6.35156 9.78974 6.35156 10.1472C6.35156 10.5046 6.6413 10.7943 6.99872 10.7943Z" fill="currentColor"/>
<path d="M7 4.5L7 8.5" stroke="currentColor" stroke-linecap="round" stroke-linejoin="round"/>
<path d="M1.11311 11.1364L6.16469 1.98646C6.24594 1.83939 6.36649 1.71652 6.51356 1.63087C6.66062 1.54522 6.82871 1.5 7 1.5C7.17129 1.5 7.33938 1.54522 7.48644 1.63087C7.63351 1.71652 7.75406 1.83939 7.83531 1.98646L12.8869 11.1364C12.9646 11.2773 13.0035 11.4355 12.9998 11.5955C12.996 11.7555 12.9499 11.9118 12.8657 12.0492C12.7815 12.1866 12.6623 12.3003 12.5196 12.3793C12.3769 12.4584 12.2157 12.4999 12.0516 12.5H1.94842C1.78434 12.4999 1.62308 12.4584 1.48039 12.3793C1.3377 12.3003 1.21846 12.1866 1.1343 12.0492C1.05015 11.9118 1.00396 11.7555 1.00024 11.5955C0.996529 11.4355 1.03542 11.2773 1.11311 11.1364Z" stroke="currentColor" stroke-linecap="round" stroke-linejoin="round"/>
</svg>
  
