<svg viewBox="0 0 12 12" fill="none" xmlns="http://www.w3.org/2000/svg">
<g>
<path d="M4.12518 3.18705C4.12518 2.7395 4.30297 2.31028 4.61943 1.99381C4.9359 1.67734 5.36512 1.49955 5.81268 1.49955C6.26023 1.49955 6.68945 1.67734 7.00592 1.99381C7.32239 2.31028 7.50018 2.7395 7.50018 3.18705C7.50018 3.33624 7.55944 3.47931 7.66493 3.5848C7.77042 3.69029 7.91349 3.74955 8.06268 3.74955C8.21186 3.74955 8.35494 3.69029 8.46042 3.5848C8.56591 3.47931 8.62518 3.33624 8.62518 3.18705C8.62527 2.71328 8.50567 2.24716 8.27749 1.83196C8.04931 1.41676 7.71995 1.06592 7.31996 0.81202C6.91997 0.558116 6.46232 0.40937 5.98948 0.379587C5.51665 0.349804 5.04395 0.439949 4.61526 0.641656C4.18657 0.843363 3.81579 1.15009 3.53731 1.53338C3.25884 1.91667 3.0817 2.3641 3.02234 2.83414C2.96298 3.30418 3.02332 3.78159 3.19776 4.22208C3.37221 4.66257 3.65509 5.05185 4.02018 5.3538L2.31618 8.5473C2.24596 8.67898 2.23093 8.83316 2.27439 8.97593C2.31785 9.11869 2.41625 9.23834 2.54793 9.30855C2.67961 9.37877 2.83379 9.3938 2.97655 9.35034C3.11931 9.30688 3.23896 9.20848 3.30918 9.0768L5.25018 5.43705C5.28497 5.37186 5.30657 5.30044 5.31375 5.2269C5.32094 5.15335 5.31355 5.0791 5.29203 5.00841C5.27051 4.93772 5.23527 4.87195 5.18832 4.81488C5.14138 4.75781 5.08365 4.71055 5.01843 4.6758C4.74862 4.53187 4.52299 4.31733 4.36566 4.05511C4.20833 3.7929 4.1252 3.49285 4.12518 3.18705Z" fill="currentColor"/>
<path d="M5.52329 2.70554C5.58666 2.66741 5.65691 2.64215 5.73005 2.6312C5.80318 2.62025 5.87776 2.62383 5.94951 2.64173C6.02126 2.65964 6.08878 2.69151 6.1482 2.73553C6.20762 2.77956 6.25777 2.83487 6.29579 2.89829L8.25179 6.16004C8.69663 6.00332 9.17375 5.96097 9.63924 6.03692C10.1047 6.11286 10.5436 6.30464 10.9156 6.59462C11.2876 6.8846 11.5806 7.26347 11.7678 7.69637C11.9551 8.12927 12.0304 8.60229 11.9869 9.07193C11.9434 9.54156 11.7826 9.99273 11.5191 10.3839C11.2556 10.7751 10.898 11.0937 10.4791 11.3105C10.0602 11.5273 9.59359 11.6353 9.12207 11.6245C8.65055 11.6137 8.18931 11.4845 7.78079 11.2488C7.6516 11.174 7.55741 11.051 7.51894 10.9067C7.48047 10.7625 7.50088 10.6089 7.57567 10.4797C7.65046 10.3505 7.77351 10.2563 7.91775 10.2178C8.06199 10.1793 8.2156 10.1998 8.34479 10.2745C8.60241 10.4229 8.89464 10.5006 9.19193 10.4998C9.48922 10.4989 9.78101 10.4195 10.0378 10.2697C10.2945 10.1198 10.5071 9.90476 10.654 9.64632C10.801 9.38787 10.877 9.0952 10.8745 8.79792C10.872 8.50064 10.791 8.20931 10.6396 7.9534C10.4883 7.6975 10.2721 7.48611 10.0128 7.34063C9.75359 7.19515 9.46049 7.12074 9.16323 7.12494C8.86597 7.12914 8.57509 7.2118 8.32004 7.36454C8.25673 7.40271 8.18651 7.42802 8.1134 7.43902C8.0403 7.45002 7.96574 7.44651 7.89399 7.42868C7.82225 7.41085 7.75472 7.37905 7.69527 7.3351C7.63583 7.29115 7.58563 7.23591 7.54754 7.17254L5.33054 3.47729C5.29241 3.41393 5.26715 3.34367 5.2562 3.27054C5.24525 3.1974 5.24883 3.12283 5.26673 3.05107C5.28464 2.97932 5.31651 2.91181 5.36053 2.85239C5.40456 2.79297 5.45987 2.74281 5.52329 2.70479V2.70554Z" fill="currentColor"/>
<path d="M2.17414 6.58232C2.24858 6.71153 2.26867 6.865 2.23 7.00902C2.19132 7.15303 2.09705 7.27579 1.96789 7.35032C1.7114 7.49841 1.4984 7.71139 1.35029 7.96787C1.20219 8.22435 1.12419 8.5153 1.12414 8.81147C1.1241 9.10764 1.202 9.39861 1.35002 9.65514C1.49805 9.91167 1.71098 10.1247 1.96743 10.2729C2.22387 10.4211 2.5148 10.4991 2.81097 10.4992C3.10714 10.4994 3.39813 10.4215 3.65469 10.2736C3.91126 10.1256 4.12436 9.91272 4.27259 9.65631C4.42082 9.3999 4.49895 9.10899 4.49914 8.81282C4.49905 8.73889 4.51352 8.66566 4.54175 8.59733C4.56997 8.529 4.61139 8.4669 4.66363 8.41459C4.71587 8.36228 4.77792 8.32078 4.84621 8.29246C4.91451 8.26415 4.98771 8.24957 5.06164 8.24957H9.18664C9.33583 8.24957 9.4789 8.30884 9.58439 8.41432C9.68988 8.51981 9.74914 8.66289 9.74914 8.81207C9.74914 8.96126 9.68988 9.10433 9.58439 9.20982C9.4789 9.31531 9.33583 9.37457 9.18664 9.37457H5.56789C5.47406 9.83502 5.26639 10.2646 4.96383 10.6242C4.66128 10.9837 4.27347 11.2618 3.83583 11.4329C3.39819 11.604 2.92465 11.6628 2.45845 11.6039C1.99225 11.5449 1.54824 11.3702 1.16696 11.0955C0.785677 10.8208 0.479267 10.455 0.275707 10.0315C0.0721466 9.60797 -0.0220797 9.1402 0.00163081 8.67089C0.0253413 8.20157 0.166233 7.74568 0.411443 7.34482C0.656654 6.94396 0.99837 6.61091 1.40539 6.37607C1.53451 6.30157 1.68792 6.28137 1.83192 6.3199C1.97592 6.35843 2.09874 6.45255 2.17339 6.58157L2.17414 6.58232Z" fill="currentColor"/>
</g>
</svg>
