<svg width="102" height="28" viewBox="0 0 102 28" fill="none" xmlns="http://www.w3.org/2000/svg">
<path d="M27.4448 9.16689L20.2127 2.1041C19.3563 1.31436 18.3361 0.712998 17.221 0.340579C14.7501 -0.461812 12.291 0.16451 10.2995 2.1041L3.04963 9.16689C2.23997 10.0023 1.62343 10.9973 1.24161 12.0849C0.416002 14.495 1.05814 16.8936 3.04963 18.8331L10.2907 25.8959C11.1458 26.686 12.165 27.2873 13.2794 27.6594C13.9545 27.8821 14.6619 27.997 15.3745 28C17.1115 28 18.7745 27.2842 20.2009 25.8959L27.4389 18.8331C28.2495 17.9981 28.8672 17.0029 29.2498 15.9151C30.0725 13.505 29.4303 11.1094 27.4389 9.16689H27.4448ZM15.8035 4.15337C16.3505 4.32444 16.8547 4.60567 17.2831 4.97886L19.4226 7.06855L15.2502 11.1353L11.0778 7.06565L13.2291 4.96443C13.8061 4.40448 14.6199 3.80991 15.8095 4.15049L15.8035 4.15337ZM5.15655 13.453C5.33247 12.9191 5.62186 12.4274 6.00582 12.0099L8.14529 9.92309L12.3177 13.9928L8.14232 18.0625L5.99103 15.9612C5.414 15.4013 4.80737 14.6076 5.15359 13.4473L5.15655 13.453ZM14.6909 23.8379C14.1432 23.6684 13.6388 23.3871 13.2113 23.0125L11.0778 20.9488L15.2502 16.8763L19.4226 20.9458L17.2712 23.0471C16.6943 23.607 15.8834 24.2016 14.6909 23.8611V23.8379ZM25.3438 14.5585C25.1679 15.0918 24.8797 15.5834 24.4976 16.0016L22.358 18.0625L18.1857 13.9928L22.358 9.92309L24.5094 12.0214C25.0864 12.5814 25.693 13.3751 25.3468 14.5354" fill="white"/>
<path d="M42.5008 15.3929H44.9035V8.88948C44.9035 6.88371 43.6536 5.40305 41.5212 5.40305C40.4824 5.40305 39.3696 5.85207 38.7913 6.67776V1.85352H36.3906V15.3874H38.7913V10.257C38.7913 9.05834 39.4076 7.55911 40.8477 7.55911C42.1165 7.55911 42.5008 8.2512 42.5008 9.37748V15.3929ZM52.2026 11.5465C52.2026 12.9771 51.1544 13.7583 49.6687 13.7583C48.9249 13.7583 48.2572 13.2944 48.2572 12.5504C48.2572 11.7692 48.9629 11.3425 49.6878 11.2868L52.2026 11.1013V11.5465ZM54.2037 15.5432C54.6138 15.5563 55.0205 15.4669 55.3851 15.2835V13.5727C55.2853 13.5956 55.1833 13.608 55.0808 13.6098C54.6813 13.6098 54.5291 13.4429 54.5291 12.9956V9.40903C54.5591 8.74658 54.4617 8.08452 54.2419 7.45705C53.6712 6.00607 52.2216 5.48654 50.5267 5.48654C48.3142 5.48654 46.5412 6.45325 46.4082 8.62787H48.7156C48.7727 7.73539 49.4194 7.25296 50.5267 7.25296C51.8792 7.25296 52.2026 7.86526 52.2026 8.77631V9.37191L49.2844 9.57045C47.3973 9.70033 45.9306 10.7598 45.9306 12.6005C45.9306 14.1813 47.1501 15.6305 49.5146 15.6305C50.9242 15.6305 52.0675 14.9625 52.5259 14.1813C52.6021 14.9068 53.1728 15.5376 54.2018 15.5376L54.2037 15.5432ZM61.6894 7.78548C61.8166 7.78639 61.9435 7.79444 62.0698 7.8096V5.62013C61.9671 5.62013 61.8643 5.59788 61.7635 5.59788C60.5994 5.59788 59.418 6.06175 58.9615 7.17689L58.7503 5.72776H56.7282V15.3948H59.1308V10.5242C59.1308 8.96185 60.0077 7.79105 61.6837 7.79105L61.6894 7.78548ZM69.2073 15.3985H71.5909V8.9433C71.5909 6.93567 70.3506 5.48654 68.2352 5.48654C67.0939 5.48654 65.9106 5.95041 65.319 6.97093L65.1477 5.7259H63.1523V15.3929H65.5339V11.4538C65.5339 10.6355 65.5149 9.63169 65.8592 8.86908C66.1826 8.16214 66.7362 7.6426 67.5713 7.6426C68.8287 7.6426 69.2092 8.33099 69.2092 9.46469L69.2073 15.3985ZM79.4132 9.59828H75.1292C75.1187 9.05324 75.3007 8.52126 75.6447 8.09164C75.8428 7.85043 76.096 7.6577 76.384 7.52884C76.672 7.39998 76.9869 7.33855 77.3035 7.34944C77.5802 7.33502 77.857 7.37708 78.1161 7.47292C78.3752 7.56878 78.6109 7.71631 78.8083 7.90609C79.1887 8.31615 79.3998 8.87279 79.4189 9.59828H79.4132ZM81.8005 10.6392C81.8386 9.43129 81.6674 8.3347 80.9426 7.27337C80.1246 6.06545 78.7892 5.49026 77.3282 5.49026C76.7428 5.47359 76.16 5.57379 75.6157 5.78469C75.0714 5.9956 74.5769 6.31276 74.1628 6.71672C73.2116 7.66487 72.7341 9.03978 72.7341 10.5835C72.7341 12.1644 73.2668 13.5208 74.256 14.4503C74.6696 14.8419 75.1595 15.1488 75.6966 15.3531C76.2336 15.5573 76.8072 15.6548 77.3834 15.6397C78.6409 15.6397 79.8793 15.2501 80.7182 14.2834C81.0986 13.8362 81.5 13.0754 81.5571 12.4984H79.2743C79.1941 12.8083 79.0291 13.0912 78.7968 13.3166C78.4544 13.6506 78.0359 13.7805 77.3491 13.7805C76.7986 13.7787 76.271 13.5655 75.8806 13.1867C75.6338 12.9355 75.4423 12.6376 75.3176 12.3115C75.193 11.9855 75.138 11.638 75.1557 11.2905H81.7815C81.7815 11.0845 81.8005 10.6392 81.8005 10.6392ZM85.0003 8.42748C85.0059 8.20194 85.0817 7.98339 85.2176 7.80081C85.3535 7.61824 85.543 7.48024 85.7611 7.40511C86.0895 7.28501 86.4404 7.23441 86.7903 7.25667C87.2637 7.24381 87.7253 7.40245 88.0858 7.70198C88.3349 7.94372 88.4781 8.27034 88.4853 8.61302H90.7547C90.7262 7.86668 90.4135 7.15749 89.8777 6.62395C89.1549 5.85949 87.9545 5.48839 86.7732 5.48839C85.5329 5.48839 84.4904 5.84094 83.7619 6.4551C83.4365 6.72005 83.1768 7.05321 83.0018 7.42975C82.8269 7.80627 82.7414 8.21646 82.7517 8.62972C82.7517 9.85619 83.6667 10.9342 85.0192 11.2144C85.8962 11.4 86.8873 11.4557 87.7643 11.5855C88.373 11.6782 88.7554 12.0493 88.7554 12.6079C88.7554 13.6673 87.536 13.8343 86.7351 13.8343C86.0484 13.8343 85.6109 13.7045 85.2285 13.4076C84.965 13.1774 84.7883 12.8677 84.7263 12.528H82.4815C82.5738 13.2906 82.9388 13.997 83.5126 14.5228C84.3325 15.2853 85.4568 15.636 86.7161 15.636C88.0686 15.636 89.307 15.302 90.1079 14.5228C90.3924 14.2453 90.6157 13.9141 90.764 13.5494C90.9121 13.1846 90.9822 12.7941 90.9697 12.4019C90.9697 10.8767 89.8283 9.91001 88.2627 9.66879C87.2906 9.52035 87.0433 9.5018 86.1473 9.39046C85.6147 9.31625 85.006 9.11029 85.006 8.42377L85.0003 8.42748ZM97.6296 8.60932H99.8915C99.863 7.86297 99.5503 7.15378 99.0145 6.62024C98.2898 5.85949 97.0894 5.48839 95.9157 5.48839C94.6773 5.48839 93.6329 5.84094 92.9043 6.4551C92.579 6.72005 92.3192 7.05321 92.1443 7.42975C91.9693 7.80627 91.8839 8.21646 91.8942 8.62972C91.8942 9.85619 92.8092 10.9342 94.1617 11.2144C95.0387 11.4 96.0298 11.4557 96.9067 11.5855C97.5154 11.6782 97.8979 12.0493 97.8979 12.6079C97.8979 13.6673 96.6765 13.8343 95.8777 13.8343C95.1909 13.8343 94.7534 13.7045 94.371 13.4076C94.1075 13.1774 93.9307 12.8677 93.8688 12.528H91.6164C91.7084 13.2911 92.0744 13.9977 92.6494 14.5228C93.4674 15.2853 94.5916 15.636 95.851 15.636C97.2035 15.636 98.4419 15.302 99.2428 14.5228C99.5267 14.245 99.7491 13.9136 99.8968 13.549C100.044 13.1842 100.114 12.7938 100.101 12.4019C100.101 10.8767 98.9594 9.91001 97.3938 9.66879C96.4217 9.52035 96.1744 9.5018 95.2784 9.39046C94.7458 9.31625 94.137 9.11029 94.137 8.42377C94.1427 8.19822 94.2185 7.97968 94.3543 7.7971C94.4903 7.61453 94.6798 7.47654 94.8979 7.40139C95.2263 7.2813 95.5771 7.2307 95.9271 7.25296C96.4005 7.2401 96.8621 7.39874 97.2226 7.69827C97.4723 7.93982 97.616 8.26641 97.6239 8.60932" fill="white"/>
<path d="M38.7733 27H36.8427V21.0364H38.8345C39.4188 21.0364 39.9206 21.1558 40.3399 21.3945C40.7592 21.6314 41.0805 21.9721 41.3038 22.4166C41.529 22.8592 41.6416 23.3902 41.6416 24.0094C41.6416 24.6307 41.528 25.1645 41.3009 25.611C41.0757 26.0575 40.7495 26.4011 40.3225 26.6418C39.8954 26.8806 39.379 27 38.7733 27ZM37.7425 26.2138H38.7238C39.1781 26.2138 39.5556 26.1284 39.8565 25.9575C40.1574 25.7848 40.3826 25.5353 40.5321 25.2092C40.6816 24.8811 40.7563 24.4812 40.7563 24.0094C40.7563 23.5416 40.6816 23.1446 40.5321 22.8185C40.3846 22.4923 40.1642 22.2448 39.8711 22.0759C39.578 21.907 39.214 21.8226 38.7791 21.8226H37.7425V26.2138ZM42.5965 27V21.0364H46.3354V21.8109H43.4963V23.628H46.1403V24.3996H43.4963V26.2254H46.3703V27H42.5965ZM50.6259 22.603C50.5949 22.3273 50.4667 22.1138 50.2415 21.9624C50.0164 21.809 49.7329 21.7323 49.3913 21.7323C49.1467 21.7323 48.9351 21.7711 48.7565 21.8488C48.5779 21.9245 48.4391 22.0293 48.3401 22.1633C48.243 22.2953 48.1945 22.4457 48.1945 22.6146C48.1945 22.7563 48.2275 22.8786 48.2935 22.9815C48.3614 23.0844 48.4497 23.1708 48.5585 23.2407C48.6691 23.3086 48.7875 23.3659 48.9137 23.4125C49.0399 23.4571 49.1612 23.494 49.2777 23.5232L49.8601 23.6746C50.0503 23.7212 50.2454 23.7843 50.4454 23.8638C50.6453 23.9434 50.8307 24.0483 51.0016 24.1783C51.1724 24.3084 51.3102 24.4695 51.4151 24.6617C51.5218 24.8539 51.5752 25.0839 51.5752 25.3518C51.5752 25.6896 51.4879 25.9896 51.3131 26.2516C51.1404 26.5137 50.889 26.7205 50.5589 26.8719C50.2309 27.0233 49.8339 27.099 49.368 27.099C48.9215 27.099 48.5352 27.0281 48.209 26.8864C47.8829 26.7447 47.6276 26.5438 47.4432 26.2837C47.2588 26.0216 47.1568 25.711 47.1374 25.3518H48.0401C48.0576 25.5673 48.1275 25.7469 48.2498 25.8906C48.374 26.0323 48.5322 26.1381 48.7244 26.208C48.9186 26.2759 49.1311 26.3099 49.3621 26.3099C49.6165 26.3099 49.8426 26.2701 50.0406 26.1905C50.2406 26.1089 50.3978 25.9964 50.5124 25.8527C50.6269 25.7071 50.6842 25.5372 50.6842 25.3431C50.6842 25.1665 50.6337 25.0218 50.5327 24.9092C50.4337 24.7966 50.2988 24.7035 50.128 24.6297C49.9591 24.5559 49.7679 24.4909 49.5543 24.4346L48.8496 24.2424C48.3721 24.1123 47.9935 23.9211 47.714 23.6688C47.4364 23.4164 47.2976 23.0825 47.2976 22.667C47.2976 22.3234 47.3908 22.0235 47.5771 21.7673C47.7635 21.511 48.0159 21.312 48.3342 21.1703C48.6526 21.0267 49.0117 20.9548 49.4116 20.9548C49.8154 20.9548 50.1717 21.0257 50.4803 21.1674C50.7909 21.3091 51.0355 21.5042 51.2141 21.7527C51.3927 21.9992 51.4859 22.2827 51.4937 22.603H50.6259ZM53.3862 21.0364V27H52.4864V21.0364H53.3862ZM58.5685 22.9204C58.5122 22.7437 58.4365 22.5855 58.3414 22.4457C58.2482 22.304 58.1366 22.1837 58.0065 22.0847C57.8765 21.9837 57.728 21.907 57.561 21.8546C57.396 21.8022 57.2145 21.776 57.0165 21.776C56.6806 21.776 56.3778 21.8624 56.108 22.0352C55.8381 22.2079 55.6246 22.4613 55.4673 22.7952C55.312 23.1271 55.2344 23.5338 55.2344 24.0153C55.2344 24.4987 55.313 24.9073 55.4702 25.2412C55.6275 25.5751 55.843 25.8284 56.1167 26.0012C56.3904 26.174 56.702 26.2604 57.0514 26.2604C57.3756 26.2604 57.6581 26.1944 57.8988 26.0624C58.1415 25.9304 58.3288 25.744 58.4608 25.5033C58.5947 25.2606 58.6617 24.9752 58.6617 24.6472L58.8947 24.6908H57.1883V23.9483H59.5324V24.6268C59.5324 25.1276 59.4256 25.5625 59.2121 25.9313C59.0005 26.2982 58.7073 26.5817 58.3327 26.7816C57.9599 26.9816 57.5329 27.0815 57.0514 27.0815C56.5117 27.0815 56.0381 26.9573 55.6304 26.7088C55.2247 26.4603 54.9082 26.108 54.6811 25.6518C54.454 25.1936 54.3404 24.6501 54.3404 24.0211C54.3404 23.5455 54.4064 23.1184 54.5384 22.7398C54.6704 22.3613 54.8558 22.04 55.0946 21.776C55.3353 21.51 55.6178 21.3072 55.942 21.1674C56.2681 21.0257 56.6243 20.9548 57.0107 20.9548C57.3329 20.9548 57.6328 21.0024 57.9104 21.0975C58.19 21.1926 58.4385 21.3276 58.6559 21.5023C58.8753 21.677 59.0568 21.8847 59.2004 22.1254C59.3441 22.3642 59.4411 22.6292 59.4916 22.9204H58.5685ZM65.324 21.0364V27H64.497L61.4657 22.6263H61.4104V27H60.5106V21.0364H61.3434L64.3776 25.4159H64.433V21.0364H65.324ZM71.7313 22.603C71.7003 22.3273 71.5721 22.1138 71.3469 21.9624C71.1217 21.809 70.8383 21.7323 70.4967 21.7323C70.2521 21.7323 70.0405 21.7711 69.8619 21.8488C69.6833 21.9245 69.5445 22.0293 69.4454 22.1633C69.3484 22.2953 69.2998 22.4457 69.2998 22.6146C69.2998 22.7563 69.3329 22.8786 69.3989 22.9815C69.4668 23.0844 69.5551 23.1708 69.6638 23.2407C69.7745 23.3086 69.8929 23.3659 70.0191 23.4125C70.1453 23.4571 70.2666 23.494 70.3831 23.5232L70.9655 23.6746C71.1557 23.7212 71.3508 23.7843 71.5508 23.8638C71.7507 23.9434 71.9361 24.0483 72.107 24.1783C72.2778 24.3084 72.4156 24.4695 72.5204 24.6617C72.6272 24.8539 72.6806 25.0839 72.6806 25.3518C72.6806 25.6896 72.5932 25.9896 72.4185 26.2516C72.2458 26.5137 71.9944 26.7205 71.6643 26.8719C71.3363 27.0233 70.9393 27.099 70.4734 27.099C70.0269 27.099 69.6405 27.0281 69.3144 26.8864C68.9883 26.7447 68.733 26.5438 68.5486 26.2837C68.3641 26.0216 68.2622 25.711 68.2428 25.3518H69.1455C69.163 25.5673 69.2329 25.7469 69.3552 25.8906C69.4794 26.0323 69.6376 26.1381 69.8298 26.208C70.0239 26.2759 70.2365 26.3099 70.4675 26.3099C70.7218 26.3099 70.948 26.2701 71.146 26.1905C71.346 26.1089 71.5032 25.9964 71.6177 25.8527C71.7323 25.7071 71.7896 25.5372 71.7896 25.3431C71.7896 25.1665 71.7391 25.0218 71.6381 24.9092C71.5391 24.7966 71.4042 24.7035 71.2334 24.6297C71.0645 24.5559 70.8733 24.4909 70.6597 24.4346L69.955 24.2424C69.4775 24.1123 69.0989 23.9211 68.8194 23.6688C68.5418 23.4164 68.403 23.0825 68.403 22.667C68.403 22.3234 68.4962 22.0235 68.6825 21.7673C68.8689 21.511 69.1213 21.312 69.4396 21.1703C69.758 21.0267 70.1171 20.9548 70.517 20.9548C70.9208 20.9548 71.2771 21.0257 71.5857 21.1674C71.8963 21.3091 72.1409 21.5042 72.3195 21.7527C72.4981 21.9992 72.5913 22.2827 72.5991 22.603H71.7313ZM73.1317 21.0364H74.1538L75.7117 23.7474H75.7758L77.3337 21.0364H78.3558L76.1922 24.6588V27H75.2953V24.6588L73.1317 21.0364ZM82.2939 22.603C82.2629 22.3273 82.1348 22.1138 81.9096 21.9624C81.6844 21.809 81.4009 21.7323 81.0593 21.7323C80.8147 21.7323 80.6031 21.7711 80.4245 21.8488C80.2459 21.9245 80.1071 22.0293 80.0081 22.1633C79.911 22.2953 79.8625 22.4457 79.8625 22.6146C79.8625 22.7563 79.8955 22.8786 79.9615 22.9815C80.0294 23.0844 80.1178 23.1708 80.2265 23.2407C80.3371 23.3086 80.4555 23.3659 80.5817 23.4125C80.7079 23.4571 80.8292 23.494 80.9457 23.5232L81.5281 23.6746C81.7183 23.7212 81.9134 23.7843 82.1134 23.8638C82.3133 23.9434 82.4987 24.0483 82.6696 24.1783C82.8404 24.3084 82.9782 24.4695 83.0831 24.6617C83.1898 24.8539 83.2432 25.0839 83.2432 25.3518C83.2432 25.6896 83.1559 25.9896 82.9812 26.2516C82.8084 26.5137 82.557 26.7205 82.227 26.8719C81.8989 27.0233 81.5019 27.099 81.036 27.099C80.5895 27.099 80.2032 27.0281 79.877 26.8864C79.5509 26.7447 79.2956 26.5438 79.1112 26.2837C78.9268 26.0216 78.8249 25.711 78.8054 25.3518H79.7081C79.7256 25.5673 79.7955 25.7469 79.9178 25.8906C80.042 26.0323 80.2003 26.1381 80.3924 26.208C80.5866 26.2759 80.7991 26.3099 81.0302 26.3099C81.2845 26.3099 81.5106 26.2701 81.7086 26.1905C81.9086 26.1089 82.0658 25.9964 82.1804 25.8527C82.2949 25.7071 82.3522 25.5372 82.3522 25.3431C82.3522 25.1665 82.3017 25.0218 82.2008 24.9092C82.1017 24.7966 81.9668 24.7035 81.796 24.6297C81.6271 24.5559 81.4359 24.4909 81.2223 24.4346L80.5177 24.2424C80.0401 24.1123 79.6615 23.9211 79.382 23.6688C79.1044 23.4164 78.9656 23.0825 78.9656 22.667C78.9656 22.3234 79.0588 22.0235 79.2451 21.7673C79.4315 21.511 79.6839 21.312 80.0022 21.1703C80.3206 21.0267 80.6798 20.9548 81.0797 20.9548C81.4834 20.9548 81.8397 21.0257 82.1483 21.1674C82.4589 21.3091 82.7035 21.5042 82.8821 21.7527C83.0607 21.9992 83.1539 22.2827 83.1617 22.603H82.2939ZM83.8604 21.8109V21.0364H88.4758V21.8109H86.615V27H85.7182V21.8109H83.8604ZM89.3317 27V21.0364H93.0706V21.8109H90.2315V23.628H92.8755V24.3996H90.2315V26.2254H93.1055V27H89.3317ZM94.1085 21.0364H95.2005L97.099 25.6722H97.1689L99.0675 21.0364H100.159V27H99.3034V22.6845H99.248L97.4892 26.9913H96.7787L95.0199 22.6816H94.9646V27H94.1085V21.0364Z" fill="#93939F"/>
</svg>
