<svg width="16" height="18" viewBox="0 0 16 18" fill="none" xmlns="http://www.w3.org/2000/svg">
<path fill-rule="evenodd" clip-rule="evenodd" d="M8.20218 0.667698C8.0734 0.610767 7.9266 0.610767 7.79782 0.667698L0.297825 3.98349C0.11678 4.06353 0 4.24284 0 4.44079V4.4997C0 4.49972 0 4.49974 0 4.49975V13.5592C0 13.7571 0.116779 13.9364 0.297823 14.0165L7.78783 17.3279C7.84488 17.3547 7.90782 17.371 7.97417 17.3743C7.98278 17.3748 7.99139 17.375 8 17.375C8.00955 17.375 8.01911 17.3747 8.02865 17.3742C8.09397 17.3705 8.15593 17.3543 8.21218 17.3279L15.7022 14.0165C15.8832 13.9364 16 13.7571 16 13.5592V4.51451C16.0003 4.50467 16.0003 4.49481 16 4.48493V4.44079C16 4.24284 15.8832 4.06353 15.7022 3.98349L8.20218 0.667698ZM14.3894 4.49646L8 1.67168L1.61074 4.49641L8.00011 7.69109L14.3894 4.49646ZM1 5.30908V13.2335L7.5 16.1073V8.55907L1 5.30908ZM8.5 16.1073L15 13.2335V5.30918L8.5 8.55918V16.1073Z" fill="url(#paint0_linear_25834_127425)" style=""/>
<defs>
    <linearGradient id="paint0_linear_25834_127425" x1="8.00011" y1="0.625" x2="8.00011" y2="17.375" gradientUnits="userSpaceOnUse">
        <stop style="stop-opacity:1;"/>
        <stop offset="1" style="stop-opacity:1;"/>
    </linearGradient>
</defs>
</svg>
