<svg xmlns="http://www.w3.org/2000/svg" fill="currentColor" viewBox="0 0 12 12"><g clip-path="url(#a)"><path fill-rule="evenodd" d="M11.5 0h.002a.5.5 0 0 1 .5.5v5a.5.5 0 0 1-1 0V1.705L5.854 6.854a.5.5 0 1 1-.708-.708L10.293 1H6.502a.5.5 0 0 1 0-1zM2.002 1a1 1 0 0 0-1 1v8a1 1 0 0 0 1 1h8a1 1 0 0 0 1-1V8.5a.5.5 0 1 1 1 0V10a2 2 0 0 1-2 2h-8a2 2 0 0 1-2-2V2a2 2 0 0 1 2-2h1.5a.5.5 0 1 1 0 1z" clip-rule="evenodd"/></g><defs><clipPath id="a"><path fill="#fff" d="M0 0h12v12H0z"/></clipPath></defs></svg>