<svg viewBox="0 0 16 16" fill="none" xmlns="http://www.w3.org/2000/svg">
    <path
        d="M11.9617 12.4962C10.9145 10.3082 8.29133 9.38262 6.10333 10.4298C5.19933 10.8626 4.46973 11.5914 4.03693 12.4962M9.99929 7.40021C9.99929 8.50478 9.10386 9.40021 7.99929 9.40021C6.89472 9.40021 5.99929 8.50478 5.99929 7.40021C5.99929 6.29564 6.89472 5.40021 7.99929 5.40021C9.10386 5.40021 9.99929 6.29564 9.99929 7.40021ZM14 8C14 11.3137 11.3137 14 8 14C4.68629 14 2 11.3137 2 8C2 4.68629 4.68629 2 8 2C11.3137 2 14 4.68629 14 8Z"
        stroke="currentColor" stroke-linecap="round" stroke-linejoin="round" />
</svg>