<svg viewBox="0 0 20 20" fill="none" xmlns="http://www.w3.org/2000/svg">
<rect x="0.5" y="0.5" width="19" height="19" rx="3.5" fill="#1D1D20" stroke="url(#paint0_linear_5318_292422)"/>
<path fill-rule="evenodd" clip-rule="evenodd" d="M5.8125 8.72187C5.8125 7.11507 7.11507 5.8125 8.72187 5.8125C10.3287 5.8125 11.6312 7.11507 11.6312 8.72187C11.6312 10.3287 10.3287 11.6312 8.72187 11.6312C7.11507 11.6312 5.8125 10.3287 5.8125 8.72187ZM8.72187 4.8125C6.56279 4.8125 4.8125 6.56279 4.8125 8.72187C4.8125 10.881 6.56279 12.6312 8.72187 12.6312C10.881 12.6312 12.6312 10.881 12.6312 8.72187C12.6312 6.56279 10.881 4.8125 8.72187 4.8125ZM13.8987 8.37989C13.6943 8.19422 13.3781 8.20941 13.1924 8.41382C13.0067 8.61822 13.0219 8.93444 13.2263 9.12011C13.5176 9.38467 13.7521 9.70561 13.9157 10.0635C14.0792 10.4214 14.1684 10.8087 14.1779 11.2021C14.1873 11.5954 14.1168 11.9866 13.9706 12.3519C13.8244 12.7172 13.6055 13.0491 13.3273 13.3273C13.0491 13.6055 12.7172 13.8244 12.3519 13.9706C11.9866 14.1168 11.5954 14.1873 11.2021 14.1779C10.8087 14.1684 10.4214 14.0792 10.0635 13.9157C9.70561 13.7521 9.38467 13.5176 9.12011 13.2263C8.93444 13.0219 8.61822 13.0067 8.41382 13.1924C8.20941 13.3781 8.19422 13.6943 8.37989 13.8987C8.73547 14.2901 9.16681 14.6053 9.6478 14.8252C10.1288 15.045 10.6494 15.1649 11.1781 15.1776C11.7068 15.1903 12.2325 15.0955 12.7235 14.899C13.2145 14.7025 13.6605 14.4084 14.0344 14.0344C14.4084 13.6605 14.7025 13.2145 14.899 12.7235C15.0955 12.2325 15.1903 11.7068 15.1776 11.1781C15.1649 10.6494 15.045 10.1288 14.8252 9.6478C14.6053 9.16681 14.2901 8.73547 13.8987 8.37989Z" fill="url(#paint1_linear_5318_292422)"/>
<defs>
<linearGradient id="paint0_linear_5318_292422" x1="10" y1="0" x2="10" y2="20" gradientUnits="userSpaceOnUse">
<stop stop-color="#303036"/>
<stop offset="1" stop-color="#303036" stop-opacity="0.2"/>
</linearGradient>
<linearGradient id="paint1_linear_5318_292422" x1="9.9956" y1="4.8125" x2="9.9956" y2="15.1787" gradientUnits="userSpaceOnUse">
<stop stop-color="#93939F"/>
<stop offset="1" stop-color="#93939F" stop-opacity="0.5"/>
</linearGradient>
</defs>
</svg>
