<svg viewBox="0 0 20 20" fill="none" xmlns="http://www.w3.org/2000/svg">
<rect x="0.5" y="0.5" width="19" height="19" rx="3.5" fill="#1D1D20" stroke="url(#paint0_linear_5318_292431)"/>
<path fill-rule="evenodd" clip-rule="evenodd" d="M8.36255 5.8125C8.02533 5.8125 7.73047 6.09648 7.73047 6.47362C7.73047 6.85077 8.02533 7.13475 8.36255 7.13475C8.69977 7.13475 8.99463 6.85077 8.99463 6.47362C8.99463 6.09648 8.69977 5.8125 8.36255 5.8125ZM6.73047 6.47362C6.73047 5.56823 7.44931 4.8125 8.36255 4.8125C9.27579 4.8125 9.99463 5.56823 9.99463 6.47362C9.99463 7.15837 9.58347 7.75751 8.98801 8.00887L9.00508 8.10517C9.21876 9.31059 10.1571 10.2574 11.3606 10.4818L11.3817 10.4857C11.6245 9.88646 12.2025 9.45703 12.8909 9.45703C13.8041 9.45703 14.523 10.2128 14.523 11.1182C14.523 12.0236 13.8041 12.7793 12.8909 12.7793C12.1054 12.7793 11.4637 12.2202 11.2995 11.4876L11.1773 11.4648C10.2487 11.2917 9.43782 10.7976 8.8623 10.1012V11.8584C9.52488 12.0744 9.99473 12.7086 9.99473 13.4406C9.99473 14.346 9.27589 15.1017 8.36265 15.1017C7.44941 15.1017 6.73057 14.346 6.73057 13.4406C6.73057 12.7088 7.2001 12.0749 7.8623 11.8586V8.05565C7.20004 7.8394 6.73047 7.2054 6.73047 6.47362ZM8.36265 12.7795C8.02543 12.7795 7.73057 13.0634 7.73057 13.4406C7.73057 13.8177 8.02543 14.1017 8.36265 14.1017C8.69988 14.1017 8.99473 13.8177 8.99473 13.4406C8.99473 13.0634 8.69988 12.7795 8.36265 12.7795ZM12.2588 11.1182C12.2588 10.741 12.5536 10.457 12.8909 10.457C13.2281 10.457 13.523 10.741 13.523 11.1182C13.523 11.4953 13.2281 11.7793 12.8909 11.7793C12.5536 11.7793 12.2588 11.4953 12.2588 11.1182Z" fill="url(#paint1_linear_5318_292431)"/>
<defs>
<linearGradient id="paint0_linear_5318_292431" x1="10" y1="0" x2="10" y2="20" gradientUnits="userSpaceOnUse">
<stop stop-color="#303036"/>
<stop offset="1" stop-color="#303036" stop-opacity="0.2"/>
</linearGradient>
<linearGradient id="paint1_linear_5318_292431" x1="10.6268" y1="4.8125" x2="10.6268" y2="15.1017" gradientUnits="userSpaceOnUse">
<stop stop-color="#93939F"/>
<stop offset="1" stop-color="#93939F" stop-opacity="0.5"/>
</linearGradient>
</defs>
</svg>
