<svg viewBox="0 0 16 16" fill="none" xmlns="http://www.w3.org/2000/svg">
    <path
        d="M3.75 5.5C4.7165 5.5 5.5 4.7165 5.5 3.75C5.5 2.7835 4.7165 2 3.75 2C2.7835 2 2 2.7835 2 3.75C2 4.7165 2.7835 5.5 3.75 5.5ZM3.75 5.5L3.75 10M3.75 8H10.25C11.3546 8 12.25 7.10457 12.25 6V5.5M12.25 5.5C13.2165 5.5 14 4.7165 14 3.75C14 2.7835 13.2165 2 12.25 2C11.2835 2 10.5 2.7835 10.5 3.75C10.5 4.7165 11.2835 5.5 12.25 5.5ZM5.5 12.25C5.5 13.2165 4.7165 14 3.75 14C2.7835 14 2 13.2165 2 12.25C2 11.2835 2.7835 10.5 3.75 10.5C4.7165 10.5 5.5 11.2835 5.5 12.25Z"
        stroke="currentColor" stroke-linecap="round" stroke-linejoin="round" />
</svg>