<svg width="16" height="16" viewBox="0 0 16 16" fill="none" xmlns="http://www.w3.org/2000/svg">
<mask id="mask0_25509_229350" style="mask-type:alpha" maskUnits="userSpaceOnUse" x="0" y="-1" width="16" height="17">
<path fill-rule="evenodd" clip-rule="evenodd" d="M10.7586 1.14253C9.23506 -0.381005 6.76493 -0.381007 5.24139 1.14253L1.14265 5.24128C-0.380882 6.76481 -0.380885 9.23495 1.14265 10.7585L5.24139 14.8572C6.76493 16.3808 9.23506 16.3808 10.7586 14.8572L14.8573 10.7585C16.3809 9.23495 16.3809 6.76481 14.8573 5.24128L10.7586 1.14253ZM6.81774 2.71888C7.47068 2.06593 8.52931 2.06593 9.18225 2.71888L13.281 6.81762C13.9339 7.47057 13.9339 8.5292 13.281 9.18214L9.18225 13.2809C8.52931 13.9338 7.47068 13.9338 6.81774 13.2809L2.719 9.18214C2.06605 8.5292 2.06605 7.47057 2.719 6.81762L6.81774 2.71888ZM6.32544 5.52134C6.16941 5.36532 5.91643 5.36534 5.76038 5.52138C5.60434 5.67743 5.60432 5.93042 5.76034 6.08644C6.69641 7.02251 6.69629 8.54055 5.76008 9.47677C5.60403 9.63281 5.60401 9.8858 5.76004 10.0418C5.91606 10.1978 6.16904 10.1978 6.32509 10.0418C7.2613 9.10556 8.77934 9.10544 9.71541 10.0415C9.87144 10.1975 10.1244 10.1975 10.2805 10.0415C10.4365 9.88543 10.4365 9.63244 10.2805 9.47642C9.34444 8.54035 9.34455 7.02231 10.2808 6.08609C10.4368 5.93004 10.4368 5.67706 10.2808 5.52104C10.1248 5.36501 9.87181 5.36503 9.71576 5.52108C8.77954 6.4573 7.26151 6.45741 6.32544 5.52134Z" fill="#60606C" style="fill:#60606C;fill:color(display-p3 0.3760 0.3760 0.4240);fill-opacity:1;"/>
</mask>
<g mask="url(#mask0_25509_229350)">
<path fill-rule="evenodd" clip-rule="evenodd" d="M10.7586 1.14253C9.23506 -0.381005 6.76493 -0.381007 5.24139 1.14253L1.14265 5.24128C-0.380882 6.76481 -0.380885 9.23495 1.14265 10.7585L5.24139 14.8572C6.76493 16.3808 9.23506 16.3808 10.7586 14.8572L14.8573 10.7585C16.3809 9.23495 16.3809 6.76481 14.8573 5.24128L10.7586 1.14253ZM6.81774 2.71888C7.47068 2.06593 8.52931 2.06593 9.18225 2.71888L13.281 6.81762C13.9339 7.47057 13.9339 8.5292 13.281 9.18214L9.18225 13.2809C8.52931 13.9338 7.47068 13.9338 6.81774 13.2809L2.719 9.18214C2.06605 8.5292 2.06605 7.47057 2.719 6.81762L6.81774 2.71888ZM6.32544 5.52134C6.16941 5.36532 5.91643 5.36534 5.76038 5.52138C5.60434 5.67743 5.60432 5.93042 5.76034 6.08644C6.69641 7.02251 6.69629 8.54055 5.76008 9.47677C5.60403 9.63281 5.60401 9.8858 5.76004 10.0418C5.91606 10.1978 6.16904 10.1978 6.32509 10.0418C7.2613 9.10556 8.77934 9.10544 9.71541 10.0415C9.87144 10.1975 10.1244 10.1975 10.2805 10.0415C10.4365 9.88543 10.4365 9.63244 10.2805 9.47642C9.34444 8.54035 9.34455 7.02231 10.2808 6.08609C10.4368 5.93004 10.4368 5.67706 10.2808 5.52104C10.1248 5.36501 9.87181 5.36503 9.71576 5.52108C8.77954 6.4573 7.26151 6.45741 6.32544 5.52134Z" fill="#60606C" style="fill:#60606C;fill:color(display-p3 0.3760 0.3760 0.4240);fill-opacity:1;"/>
<g style="mix-blend-mode:plus-lighter" opacity="0.7" filter="url(#filter0_f_25509_229350)">
<circle cx="9.08664" cy="6.5452" r="8.72727" fill="url(#paint0_linear_25509_229350)" style=""/>
</g>
</g>
<defs>
<filter id="filter0_f_25509_229350" x="-5.24708" y="-7.78853" width="28.666" height="28.6674" filterUnits="userSpaceOnUse" color-interpolation-filters="sRGB">
<feFlood flood-opacity="0" result="BackgroundImageFix"/>
<feBlend mode="normal" in="SourceGraphic" in2="BackgroundImageFix" result="shape"/>
<feGaussianBlur stdDeviation="2.80323" result="effect1_foregroundBlur_25509_229350"/>
</filter>
<linearGradient id="paint0_linear_25509_229350" x1="0.359375" y1="-2.18207" x2="18.9813" y2="-0.832256" gradientUnits="userSpaceOnUse">
<stop stop-color="#FAF4EB" style="stop-color:#FAF4EB;stop-color:color(display-p3 0.9804 0.9569 0.9216);stop-opacity:1;"/>
<stop offset="0.334154" stop-color="#E6A0BD" style="stop-color:#E6A0BD;stop-color:color(display-p3 0.9020 0.6275 0.7412);stop-opacity:1;"/>
<stop offset="0.690299" stop-color="#9188E7" style="stop-color:#9188E7;stop-color:color(display-p3 0.5686 0.5333 0.9059);stop-opacity:1;"/>
<stop offset="1" stop-color="#C6F7FE" style="stop-color:#C6F7FE;stop-color:color(display-p3 0.7765 0.9686 0.9961);stop-opacity:1;"/>
</linearGradient>
</defs>
</svg>
