<svg width="18" height="18" viewBox="0 0 18 18" fill="none" xmlns="http://www.w3.org/2000/svg">
<mask id="mask0_30927_82955" style="mask-type:alpha" maskUnits="userSpaceOnUse" x="0" y="-1" width="18" height="19">
<path fill-rule="evenodd" clip-rule="evenodd" d="M12.1034 1.28402C10.3894 -0.429958 7.61054 -0.429961 5.89657 1.28402L1.28548 5.89511C-0.428493 7.60908 -0.428496 10.388 1.28548 12.102L5.89657 16.7131C7.61054 18.427 10.3894 18.427 12.1034 16.7131L16.7145 12.102C18.4285 10.388 18.4285 7.60909 16.7145 5.89511L12.1034 1.28402ZM7.66996 3.05741C8.40452 2.32285 9.59547 2.32285 10.33 3.05741L14.9411 7.6685C15.6757 8.40306 15.6757 9.59402 14.9411 10.3286L10.33 14.9397C9.59547 15.6742 8.40452 15.6742 7.66995 14.9397L3.05887 10.3286C2.32431 9.59402 2.32431 8.40306 3.05887 7.6685L7.66996 3.05741ZM7.11612 6.20908C6.94059 6.03356 6.65598 6.03358 6.48043 6.20913C6.30488 6.38468 6.30486 6.66929 6.48038 6.84482C7.53346 7.8979 7.53333 9.60569 6.48009 10.6589C6.30454 10.8345 6.30451 11.1191 6.48004 11.2946C6.65557 11.4701 6.94017 11.4701 7.11573 11.2946C8.16897 10.2413 9.87676 10.2412 10.9298 11.2943C11.1054 11.4698 11.39 11.4698 11.5655 11.2942C11.7411 11.1187 11.7411 10.8341 11.5656 10.6585C10.5125 9.60546 10.5126 7.89767 11.5659 6.84443C11.7414 6.66887 11.7414 6.38427 11.5659 6.20874C11.3904 6.03321 11.1058 6.03324 10.9302 6.20879C9.87699 7.26203 8.1692 7.26216 7.11612 6.20908Z" fill="url(#paint0_radial_30927_82955)" style=""/>
</mask>
<g mask="url(#mask0_30927_82955)">
<path fill-rule="evenodd" clip-rule="evenodd" d="M12.1034 1.28402C10.3894 -0.429958 7.61054 -0.429961 5.89657 1.28402L1.28548 5.89511C-0.428493 7.60908 -0.428496 10.388 1.28548 12.102L5.89657 16.7131C7.61054 18.427 10.3894 18.427 12.1034 16.7131L16.7145 12.102C18.4285 10.388 18.4285 7.60909 16.7145 5.89511L12.1034 1.28402ZM7.66996 3.05741C8.40452 2.32285 9.59547 2.32285 10.33 3.05741L14.9411 7.6685C15.6757 8.40306 15.6757 9.59402 14.9411 10.3286L10.33 14.9397C9.59547 15.6742 8.40452 15.6742 7.66995 14.9397L3.05887 10.3286C2.32431 9.59402 2.32431 8.40306 3.05887 7.6685L7.66996 3.05741ZM7.11612 6.20908C6.94059 6.03356 6.65598 6.03358 6.48043 6.20913C6.30488 6.38468 6.30486 6.66929 6.48038 6.84482C7.53346 7.8979 7.53333 9.60569 6.48009 10.6589C6.30454 10.8345 6.30451 11.1191 6.48004 11.2946C6.65557 11.4701 6.94017 11.4701 7.11573 11.2946C8.16897 10.2413 9.87676 10.2412 10.9298 11.2943C11.1054 11.4698 11.39 11.4698 11.5655 11.2942C11.7411 11.1187 11.7411 10.8341 11.5656 10.6585C10.5125 9.60546 10.5126 7.89767 11.5659 6.84443C11.7414 6.66887 11.7414 6.38427 11.5659 6.20874C11.3904 6.03321 11.1058 6.03324 10.9302 6.20879C9.87699 7.26203 8.1692 7.26216 7.11612 6.20908Z" fill="url(#paint1_radial_30927_82955)" style=""/>
<g opacity="0.7" filter="url(#filter0_f_30927_82955)">
<circle cx="10.2225" cy="7.36603" r="9.81818" fill="url(#paint2_radial_30927_82955)" style=""/>
</g>
</g>
<defs>
<filter id="filter0_f_30927_82955" x="-5.90297" y="-8.75941" width="32.2513" height="32.2508" filterUnits="userSpaceOnUse" color-interpolation-filters="sRGB">
<feFlood flood-opacity="0" result="BackgroundImageFix"/>
<feBlend mode="normal" in="SourceGraphic" in2="BackgroundImageFix" result="shape"/>
<feGaussianBlur stdDeviation="3.15363" result="effect1_foregroundBlur_30927_82955"/>
</filter>
<radialGradient id="paint0_radial_30927_82955" cx="0" cy="0" r="1" gradientUnits="userSpaceOnUse" gradientTransform="translate(18.6 10.1985) rotate(180) scale(19.2 19.2)">
<stop offset="0.270831" stop-color="#99D0EC" style="stop-color:#99D0EC;stop-color:color(display-p3 0.6000 0.8157 0.9255);stop-opacity:1;"/>
<stop offset="0.5776" stop-color="#859BFF" style="stop-color:#859BFF;stop-color:color(display-p3 0.5216 0.6078 1.0000);stop-opacity:1;"/>
<stop offset="0.772746" stop-color="#A794F2" style="stop-color:#A794F2;stop-color:color(display-p3 0.6549 0.5804 0.9490);stop-opacity:1;"/>
</radialGradient>
<radialGradient id="paint1_radial_30927_82955" cx="0" cy="0" r="1" gradientUnits="userSpaceOnUse" gradientTransform="translate(18.6 10.1985) rotate(180) scale(19.2 19.2)">
<stop offset="0.270831" stop-color="#53B0DF" style="stop-color:#53B0DF;stop-color:color(display-p3 0.3256 0.6893 0.8744);stop-opacity:1;"/>
<stop offset="0.5776" stop-color="#708AFF" style="stop-color:#708AFF;stop-color:color(display-p3 0.4400 0.5410 1.0000);stop-opacity:1;"/>
<stop offset="0.772746" stop-color="#876DED" style="stop-color:#876DED;stop-color:color(display-p3 0.5307 0.4293 0.9307);stop-opacity:1;"/>
</radialGradient>
<radialGradient id="paint2_radial_30927_82955" cx="0" cy="0" r="1" gradientUnits="userSpaceOnUse" gradientTransform="translate(20.6952 8.67512) rotate(180) scale(20.9454)">
<stop offset="0.270831" stop-color="#53B0DF" style="stop-color:#53B0DF;stop-color:color(display-p3 0.3256 0.6893 0.8744);stop-opacity:1;"/>
<stop offset="0.5776" stop-color="#708AFF" style="stop-color:#708AFF;stop-color:color(display-p3 0.4400 0.5410 1.0000);stop-opacity:1;"/>
<stop offset="0.772746" stop-color="#876DED" style="stop-color:#876DED;stop-color:color(display-p3 0.5307 0.4293 0.9307);stop-opacity:1;"/>
</radialGradient>
</defs>
</svg>
