<svg viewBox="0 0 18 18" fill="none" xmlns="http://www.w3.org/2000/svg">
<g>
<path fill-rule="evenodd" clip-rule="evenodd" d="M9 0.0625C7.84727 0.0625 6.72308 0.421059 5.78323 1.08849C4.94553 1.68337 4.29125 2.49737 3.88995 3.43793C2.87943 3.45032 1.91295 3.85712 1.19746 4.5726C0.470758 5.29931 0.0625 6.28493 0.0625 7.31264C0.0625 8.34036 0.470758 9.32598 1.19746 10.0527C1.92416 10.7794 2.90979 11.1876 3.9375 11.1876H3.99988V13.293L2.91609 14.3768C2.63702 14.2167 2.31358 14.1251 1.96875 14.1251C0.915957 14.1251 0.0625 14.9786 0.0625 16.0314C0.0625 17.0842 0.915957 17.9376 1.96875 17.9376C3.02154 17.9376 3.875 17.0842 3.875 16.0314C3.875 15.6865 3.78341 15.363 3.62323 15.0839L4.85344 13.8537C4.94721 13.7599 4.99988 13.6327 4.99988 13.5001V11.1876H8.5V14.1914C7.68974 14.411 7.09375 15.1516 7.09375 16.0314C7.09375 17.0842 7.94721 17.9376 9 17.9376C10.0528 17.9376 10.9062 17.0842 10.9062 16.0314C10.9062 15.1516 10.3103 14.411 9.5 14.1914V11.1876H13V13.5001C13 13.6327 13.0527 13.7599 13.1464 13.8537L14.3767 15.084C14.2166 15.363 14.125 15.6865 14.125 16.0314C14.125 17.0842 14.9785 17.9376 16.0312 17.9376C17.084 17.9376 17.9375 17.0842 17.9375 16.0314C17.9375 14.9786 17.084 14.1251 16.0312 14.1251C15.6864 14.1251 15.3629 14.2167 15.0838 14.3769L14 13.293V11.1876H14.0625C15.0902 11.1876 16.0758 10.7794 16.8025 10.0527C17.5292 9.32598 17.9375 8.34036 17.9375 7.31264C17.9375 6.28493 17.5292 5.29931 16.8025 4.5726C16.0871 3.85711 15.1206 3.45032 14.1101 3.43793C13.7088 2.49737 13.0545 1.68337 12.2168 1.08849C11.2769 0.421059 10.1527 0.0625 9 0.0625ZM13.5044 10.1876H14.0625C14.825 10.1876 15.5563 9.88474 16.0954 9.34557C16.6346 8.80641 16.9375 8.07514 16.9375 7.31264C16.9375 6.55014 16.6346 5.81888 16.0954 5.27971C15.5563 4.74054 14.825 4.43764 14.0625 4.43764C13.9863 4.43764 13.9077 4.4429 13.8144 4.45058C13.5874 4.46928 13.3764 4.33213 13.3013 4.11703C12.9898 3.22458 12.4085 2.45111 11.6378 1.90382C10.8671 1.35652 9.94524 1.0625 9 1.0625C8.05476 1.0625 7.13292 1.35652 6.36223 1.90382C5.59154 2.45111 5.01018 3.22458 4.6987 4.11703C4.62363 4.33213 4.41264 4.46928 4.18559 4.45058C4.09235 4.4429 4.01375 4.43764 3.9375 4.43764C3.175 4.43764 2.44374 4.74054 1.90457 5.27971C1.3654 5.81888 1.0625 6.55014 1.0625 7.31264C1.0625 8.07514 1.3654 8.80641 1.90457 9.34557C2.44374 9.88474 3.175 10.1876 3.9375 10.1876H4.49547C4.49694 10.1876 4.49841 10.1876 4.49988 10.1876C4.50136 10.1876 4.50283 10.1876 4.5043 10.1876H8.99559C8.99706 10.1876 8.99853 10.1876 9 10.1876C9.00147 10.1876 9.00294 10.1876 9.00441 10.1876H13.4956C13.4971 10.1876 13.4985 10.1876 13.5 10.1876C13.5015 10.1876 13.5029 10.1876 13.5044 10.1876ZM8.09375 16.0314C8.09375 15.5309 8.49949 15.1251 9 15.1251C9.50051 15.1251 9.90625 15.5309 9.90625 16.0314C9.90625 16.5319 9.50051 16.9376 9 16.9376C8.49949 16.9376 8.09375 16.5319 8.09375 16.0314ZM1.96875 15.1251C1.46824 15.1251 1.0625 15.5309 1.0625 16.0314C1.0625 16.5319 1.46824 16.9376 1.96875 16.9376C2.46926 16.9376 2.875 16.5319 2.875 16.0314C2.875 15.5309 2.46926 15.1251 1.96875 15.1251ZM15.4122 15.3695C15.5742 15.2179 15.7919 15.1251 16.0312 15.1251C16.5318 15.1251 16.9375 15.5309 16.9375 16.0314C16.9375 16.5319 16.5318 16.9376 16.0312 16.9376C15.5307 16.9376 15.125 16.5319 15.125 16.0314C15.125 15.792 15.2178 15.5743 15.3694 15.4123C15.3769 15.4057 15.3842 15.3987 15.3914 15.3916C15.3986 15.3844 15.4055 15.377 15.4122 15.3695Z" fill="url(#paint0_linear_9309_36518)"/>
</g>
<defs>
<linearGradient id="paint0_linear_9309_36518" x1="9" y1="0.0625" x2="9" y2="17.9376" gradientUnits="userSpaceOnUse">
<stop stop-color="currentColor"/>
<stop offset="1" stop-color="currentColor"/>
</linearGradient>
</defs>
</svg>
