<svg viewBox="0 0 16 16" fill="none" xmlns="http://www.w3.org/2000/svg">
<path fill-rule="evenodd" clip-rule="evenodd" d="M8.89912 6.38863C8.70386 6.5839 8.70386 6.90048 8.89912 7.09574C9.09439 7.291 9.41097 7.291 9.60623 7.09574L13.7812 2.92072V5.9043C13.7812 6.18044 14.0051 6.4043 14.2812 6.4043C14.5574 6.4043 14.7812 6.18044 14.7812 5.9043V1.71382C14.7812 1.67668 14.7772 1.64048 14.7695 1.60564C14.7497 1.51565 14.7048 1.43006 14.6348 1.36006C14.5335 1.25877 14.3996 1.21003 14.2669 1.21382H10.0908C9.81463 1.21382 9.59077 1.43768 9.59077 1.71382C9.59077 1.98996 9.81463 2.21382 10.0908 2.21382H13.0739L8.89912 6.38863Z" fill="currentColor" />
<path fill-rule="evenodd" clip-rule="evenodd" d="M5.90625 14.7852C6.18239 14.7852 6.40625 14.5613 6.40625 14.2852C6.40625 14.009 6.18239 13.7852 5.90625 13.7852H2.92072L7.09574 9.61014C7.291 9.41488 7.291 9.09829 7.09574 8.90303C6.90048 8.70777 6.5839 8.70777 6.38863 8.90303L2.21577 13.0759V10.0947C2.21577 9.81854 1.99192 9.59468 1.71577 9.59468C1.43963 9.59468 1.21577 9.81854 1.21577 10.0947V14.2386C1.20248 14.3816 1.25058 14.5292 1.36006 14.6387C1.45795 14.7366 1.58634 14.7854 1.71464 14.7852C1.71502 14.7852 1.71539 14.7852 1.71577 14.7852H5.90625Z" fill="currentColor" />
</svg>
