<svg width="10" height="10" viewBox="0 0 10 10" fill="none" xmlns="http://www.w3.org/2000/svg">
<g clip-path="url(#clip0_26485_167790)">
<path d="M6.63021 3.30762H3.29688V6.65291H6.63021V3.30762Z" stroke="currentColor" stroke-miterlimit="10" stroke-linecap="square"/>
<path d="M0.796875 2.05429C0.796875 1.36432 1.35937 0.799805 2.04687 0.799805C2.73437 0.799805 3.29687 1.36432 3.29687 2.05429C3.29687 2.36791 3.29687 3.30877 3.29687 3.30877C3.29687 3.30877 2.42187 3.30877 2.04687 3.30877C1.35937 3.30877 0.796875 2.74425 0.796875 2.05429Z" stroke="currentColor" stroke-miterlimit="10" stroke-linecap="square"/>
<path d="M9.125 2.05429C9.125 1.36432 8.5625 0.799805 7.875 0.799805C7.1875 0.799805 6.625 1.36432 6.625 2.05429C6.625 2.36791 6.625 3.30877 6.625 3.30877C6.625 3.30877 7.5 3.30877 7.875 3.30877C8.5625 3.30877 9.125 2.74425 9.125 2.05429Z" stroke="currentColor" stroke-miterlimit="10" stroke-linecap="square"/>
<path d="M9.125 7.90585C9.125 8.59582 8.5625 9.16033 7.875 9.16033C7.1875 9.16033 6.625 8.59582 6.625 7.90585C6.625 7.59223 6.625 6.65137 6.625 6.65137C6.625 6.65137 7.5 6.65137 7.875 6.65137C8.5625 6.65137 9.125 7.21588 9.125 7.90585Z" stroke="currentColor" stroke-miterlimit="10" stroke-linecap="square"/>
<path d="M0.796875 7.90585C0.796875 8.59582 1.35937 9.16033 2.04687 9.16033C2.73437 9.16033 3.29687 8.59582 3.29687 7.90585C3.29687 7.59223 3.29687 6.65137 3.29687 6.65137C3.29687 6.65137 2.42187 6.65137 2.04687 6.65137C1.35937 6.65137 0.796875 7.21588 0.796875 7.90585Z" stroke="currentColor" stroke-miterlimit="10" stroke-linecap="square"/>
</g>
<defs>
<clipPath id="clip0_26485_167790">
<rect width="10" height="10" fill="white"/>
</clipPath>
</defs>
</svg>
