<svg viewBox="0 0 18 18" fill="none" xmlns="http://www.w3.org/2000/svg">
<g>
<path fill-rule="evenodd" clip-rule="evenodd" d="M10.28 0.5C10.0039 0.5 9.78 0.723858 9.78 1V6C9.78 6.27614 10.0039 6.5 10.28 6.5H16.9996C17.2757 6.5 17.4996 6.27614 17.4996 6V1C17.4996 0.723858 17.2757 0.5 16.9996 0.5H10.28ZM10.78 5.5V1.5H16.4996V5.5H10.78ZM1 11.5C0.723858 11.5 0.5 11.7239 0.5 12V16.9991C0.5 17.2753 0.723858 17.4991 1 17.4991H7.72C7.99614 17.4991 8.22 17.2753 8.22 16.9991V12C8.22 11.7239 7.99614 11.5 7.72 11.5H1ZM1.5 16.4991V12.5H7.22V16.4991H1.5ZM0.5 1C0.5 0.723858 0.723858 0.5 1 0.5H7.72C7.99614 0.5 8.22 0.723858 8.22 1V9.5C8.22 9.77614 7.99614 10 7.72 10H1C0.723858 10 0.5 9.77614 0.5 9.5V1ZM1.5 1.5V9H7.22V1.5H1.5ZM10.28 8C10.0039 8 9.78 8.22386 9.78 8.5V17C9.78 17.2761 10.0039 17.5 10.28 17.5H16.9996C17.2757 17.5 17.4996 17.2761 17.4996 17V8.5C17.4996 8.22386 17.2757 8 16.9996 8H10.28ZM10.78 16.5V9H16.4996V16.5H10.78Z" fill="url(#paint0_linear_17614_128262)"/>
</g>
<defs>
<linearGradient id="paint0_linear_17614_128262" x1="8.99978" y1="0.5" x2="8.99978" y2="17.5" gradientUnits="userSpaceOnUse">
<stop/>
<stop offset="1"/>
</linearGradient>
</defs>
</svg>
