<svg width="32" height="32" viewBox="0 0 32 32" fill="none" xmlns="http://www.w3.org/2000/svg">
<rect width="32" height="32" rx="4" fill="#1D63ED" style="fill:#1D63ED;fill:color(display-p3 0.1137 0.3882 0.9294);fill-opacity:1;"/>
<g clip-path="url(#clip0_30138_114198)">
<path d="M25.7334 14.5928C25.2431 14.2628 23.9547 14.1218 23.018 14.3741C22.9675 13.4411 22.4864 12.6548 21.6063 11.9688L21.2805 11.7501L21.0634 12.0781C20.6365 12.726 20.4567 13.5892 20.5204 14.3738C20.5707 14.8573 20.7389 15.4007 21.0634 15.795C19.8442 16.5022 18.7205 16.3417 13.7439 16.3417H6.06032C6.03784 17.4654 6.21847 19.627 7.59312 21.3868C7.74492 21.5811 7.91153 21.7692 8.09216 21.9503C9.20976 23.0695 10.8983 23.8901 13.4234 23.8925C17.2755 23.8959 20.576 21.8139 22.5835 16.7793C23.2441 16.7902 24.9879 16.8978 25.8413 15.2487C25.8622 15.2209 26.0585 14.8112 26.0585 14.8112L25.7332 14.5925L25.7334 14.5928ZM11.0747 13.5651H8.9141V15.7257H11.0747V13.5651ZM13.8661 13.5651H11.7055V15.7257H13.8661V13.5651ZM16.6575 13.5651H14.4968V15.7257H16.6575V13.5651ZM19.4488 13.5651H17.2882V15.7257H19.4488V13.5651ZM8.28336 13.5651H6.12273V15.7257H8.28336V13.5651ZM11.0747 10.8362H8.9141V12.9968H11.0747V10.8362ZM13.8661 10.8362H11.7055V12.9968H13.8661V10.8362ZM16.6575 10.8362H14.4968V12.9968H16.6575V10.8362ZM16.6575 8.10693H14.4968V10.2676H16.6575V8.10693Z" fill="white" style="fill:white;fill-opacity:1;"/>
</g>
<defs>
<clipPath id="clip0_30138_114198">
<rect width="20" height="20" fill="white" style="fill:white;fill-opacity:1;" transform="translate(6 6)"/>
</clipPath>
</defs>
</svg>
