<svg width="24" height="24" viewBox="0 0 24 24" fill="none" xmlns="http://www.w3.org/2000/svg">
	<rect width="24" height="24" rx="4" fill="#1D63ED" style="fill:#1D63ED;fill:color(display-p3 0.1137 0.3882 0.9294);fill-opacity:1;" />
	<g clip-path="url(#clip0_25801_76539)">
		<path d="M19.7868 10.8742C19.3945 10.6102 18.3638 10.4974 17.6144 10.6993C17.574 9.95286 17.1891 9.32387 16.485 8.77507L16.2244 8.6001L16.0507 8.86244C15.7092 9.38078 15.5654 10.0713 15.6163 10.6991C15.6565 11.0858 15.7911 11.5206 16.0507 11.836C15.0754 12.4018 14.1764 12.2733 10.1951 12.2733H4.04825C4.03027 13.1723 4.17477 14.9016 5.2745 16.3094C5.39594 16.4649 5.52923 16.6153 5.67373 16.7603C6.56781 17.6556 7.91867 18.3121 9.93872 18.314C13.0204 18.3168 15.6608 16.6511 17.2668 12.6235C17.7953 12.6322 19.1903 12.7183 19.8731 11.3989C19.8898 11.3767 20.0468 11.049 20.0468 11.049L19.7865 10.874L19.7868 10.8742ZM8.05979 10.0521H6.33128V11.7806H8.05979V10.0521ZM10.2929 10.0521H8.56437V11.7806H10.2929V10.0521ZM12.526 10.0521H10.7975V11.7806H12.526V10.0521ZM14.7591 10.0521H13.0306V11.7806H14.7591V10.0521ZM5.82669 10.0521H4.09818V11.7806H5.82669V10.0521ZM8.05979 7.86892H6.33128V9.59743H8.05979V7.86892ZM10.2929 7.86892H8.56437V9.59743H10.2929V7.86892ZM12.526 7.86892H10.7975V9.59743H12.526V7.86892ZM12.526 5.68555H10.7975V7.41405H12.526V5.68555Z" fill="white" style="fill:white;fill-opacity:1;" />
	</g>
	<defs>
		<clipPath id="clip0_25801_76539">
			<rect width="16" height="16" fill="white" style="fill:white;fill-opacity:1;" transform="translate(4 4)" />
		</clipPath>
	</defs>
</svg>
