<svg width="16" height="16" viewBox="0 0 16 16" fill="none"
    xmlns="http://www.w3.org/2000/svg">
    <path fill-rule="evenodd" clip-rule="evenodd" d="M16 8C16 12.4183 12.4183 16 8 16C3.58172 16 0 12.4183 0 8C0 3.58172 3.58172 0 8 0C12.4183 0 16 3.58172 16 8ZM11.2527 5.59546C11.487 5.36115 11.487 4.98125 11.2527 4.74694C11.0184 4.51262 10.6385 4.51262 10.4042 4.74694L8 7.1511L5.59584 4.74694C5.36152 4.51262 4.98162 4.51262 4.74731 4.74694C4.51299 4.98125 4.51299 5.36115 4.74731 5.59546L7.15147 7.99963L4.74731 10.4038C4.51299 10.6381 4.51299 11.018 4.74731 11.2523C4.98162 11.4866 5.36152 11.4866 5.59584 11.2523L8 8.84816L10.4042 11.2523C10.6385 11.4866 11.0184 11.4866 11.2527 11.2523C11.487 11.018 11.487 10.6381 11.2527 10.4038L8.84853 7.99963L11.2527 5.59546Z" fill="currentColor" />
</svg>
