<svg viewBox="0 0 18 18" fill="none" xmlns="http://www.w3.org/2000/svg">
<g>
<path fill-rule="evenodd" clip-rule="evenodd" d="M3.125 1.125C3.125 0.848858 2.90114 0.625 2.625 0.625C2.34886 0.625 2.125 0.848858 2.125 1.125V2.625V11.625V17.625C2.125 17.9011 2.34886 18.125 2.625 18.125C2.90114 18.125 3.125 17.9011 3.125 17.625V12.125H16.125C16.2983 12.125 16.4592 12.0353 16.5503 11.8879C16.6414 11.7405 16.6497 11.5564 16.5722 11.4014L14.434 7.125L16.5722 2.84861C16.6497 2.69361 16.6414 2.50954 16.5503 2.36213C16.4592 2.21473 16.2983 2.125 16.125 2.125H3.125V1.125ZM3.125 3.125V11.125H15.316L13.4278 7.34861C13.3574 7.20784 13.3574 7.04216 13.4278 6.90139L15.316 3.125H3.125Z" fill="url(#paint0_linear_9309_36390)"/>
</g>
<defs>
<linearGradient id="paint0_linear_9309_36390" x1="9.375" y1="0.625" x2="9.375" y2="18.125" gradientUnits="userSpaceOnUse">
<stop/>
<stop offset="1"/>
</linearGradient>
</defs>
</svg>
