<svg xmlns="http://www.w3.org/2000/svg" viewBox="0 0 12 13"><path fill="currentColor" fill-rule="evenodd" d="M1.4 2.175a1.175 1.175 0 1 1 2.35 0 1.175 1.175 0 0 1-2.35 0M2.575 0a2.175 2.175 0 0 0-.71 4.23v3.702a2.175 2.175 0 1 0 1-.1v-1.46H6.87a2.835 2.835 0 0 0 2.718-2.03 2.175 2.175 0 1 0-1.002-.156A1.83 1.83 0 0 1 6.87 5.373H2.865V4.33A2.175 2.175 0 0 0 2.575 0m0 8.813a1.175 1.175 0 1 0 0 2.35 1.175 1.175 0 0 0 0-2.35M8.24 2.175a1.175 1.175 0 1 1 2.35 0 1.175 1.175 0 0 1-2.35 0" clip-rule="evenodd"/></svg>