<svg width="104" height="104" viewBox="0 0 104 104" fill="none" xmlns="http://www.w3.org/2000/svg">
<g filter="url(#filter0_d_17912_94045)">
<circle cx="52" cy="52" r="32" fill="#18181B"/>
</g>
<g filter="url(#filter1_f_17912_94045)">
<path d="M34 52C34 42.0589 42.0589 34 52 34H55.6C56.9255 34 58 35.0745 58 36.4V43.6C58 44.9255 56.9255 46 55.6 46L52.0001 46C51.9483 46 51.8966 46.0007 51.8452 46.002C51.7937 46.0033 51.7424 46.0052 51.6913 46.0078C48.521 46.1685 46 48.7898 46 52C46 54.8914 48.0453 57.3051 50.768 57.8734C51.1656 57.9564 51.5777 58 52 58C55.3137 58 58.0001 55.3137 58.0001 52L58 51.9647V48.4C58 47.0745 59.0745 46 60.4 46H67.6C68.9255 46 70 47.0745 70 48.4V55.6C70 56.9255 68.9255 58 67.6 58L64 58C60.6863 58 58 60.6863 58 64L58 64.0184V67.6C58 68.9255 56.9255 70 55.6 70H52C42.0589 70 34 61.9411 34 52Z" fill="url(#paint0_linear_17912_94045)"/>
</g>
<path d="M34 52C34 42.0589 42.0589 34 52 34H55.6C56.9255 34 58 35.0745 58 36.4V43.6C58 44.9255 56.9255 46 55.6 46L52.0001 46C51.9483 46 51.8966 46.0007 51.8452 46.002C51.7937 46.0033 51.7424 46.0052 51.6913 46.0078C48.521 46.1685 46 48.7898 46 52C46 54.8914 48.0453 57.3051 50.768 57.8734C51.1656 57.9564 51.5777 58 52 58C55.3137 58 58.0001 55.3137 58.0001 52L58 51.9647V48.4C58 47.0745 59.0745 46 60.4 46H67.6C68.9255 46 70 47.0745 70 48.4V55.6C70 56.9255 68.9255 58 67.6 58L64 58C60.6863 58 58 60.6863 58 64L58 64.0184V67.6C58 68.9255 56.9255 70 55.6 70H52C42.0589 70 34 61.9411 34 52Z" fill="url(#paint1_linear_17912_94045)"/>
<mask id="mask0_17912_94045" style="mask-type:alpha" maskUnits="userSpaceOnUse" x="20" y="20" width="64" height="64">
<circle cx="52" cy="52" r="32" fill="#18181B"/>
</mask>
<g mask="url(#mask0_17912_94045)">
<g style="mix-blend-mode:plus-lighter" opacity="0.2" filter="url(#filter2_f_17912_94045)">
<circle cx="22.5" cy="19.5" r="26.5" fill="#70DCD3"/>
</g>
<g opacity="0.05" filter="url(#filter3_f_17912_94045)">
<circle cx="72.5" cy="84.5" r="14.5" fill="#D9D9D9"/>
</g>
<g style="mix-blend-mode:plus-lighter" opacity="0.1" filter="url(#filter4_f_17912_94045)">
<circle cx="72.5" cy="84.5" r="14.5" fill="#70DCD3"/>
</g>
</g>
<g style="mix-blend-mode:overlay">
<circle cx="52" cy="52" r="31.5" stroke="url(#paint2_linear_17912_94045)"/>
</g>
<defs>
<filter id="filter0_d_17912_94045" x="0" y="0" width="104" height="104" filterUnits="userSpaceOnUse" color-interpolation-filters="sRGB">
<feFlood flood-opacity="0" result="BackgroundImageFix"/>
<feColorMatrix in="SourceAlpha" type="matrix" values="0 0 0 0 0 0 0 0 0 0 0 0 0 0 0 0 0 0 127 0" result="hardAlpha"/>
<feOffset/>
<feGaussianBlur stdDeviation="10"/>
<feComposite in2="hardAlpha" operator="out"/>
<feColorMatrix type="matrix" values="0 0 0 0 0 0 0 0 0 0 0 0 0 0 0 0 0 0 0.6 0"/>
<feBlend mode="normal" in2="BackgroundImageFix" result="effect1_dropShadow_17912_94045"/>
<feBlend mode="normal" in="SourceGraphic" in2="effect1_dropShadow_17912_94045" result="shape"/>
</filter>
<filter id="filter1_f_17912_94045" x="24" y="24" width="56" height="56" filterUnits="userSpaceOnUse" color-interpolation-filters="sRGB">
<feFlood flood-opacity="0" result="BackgroundImageFix"/>
<feBlend mode="normal" in="SourceGraphic" in2="BackgroundImageFix" result="shape"/>
<feGaussianBlur stdDeviation="5" result="effect1_foregroundBlur_17912_94045"/>
</filter>
<filter id="filter2_f_17912_94045" x="-24" y="-27" width="93" height="93" filterUnits="userSpaceOnUse" color-interpolation-filters="sRGB">
<feFlood flood-opacity="0" result="BackgroundImageFix"/>
<feBlend mode="normal" in="SourceGraphic" in2="BackgroundImageFix" result="shape"/>
<feGaussianBlur stdDeviation="10" result="effect1_foregroundBlur_17912_94045"/>
</filter>
<filter id="filter3_f_17912_94045" x="38" y="50" width="69" height="69" filterUnits="userSpaceOnUse" color-interpolation-filters="sRGB">
<feFlood flood-opacity="0" result="BackgroundImageFix"/>
<feBlend mode="normal" in="SourceGraphic" in2="BackgroundImageFix" result="shape"/>
<feGaussianBlur stdDeviation="10" result="effect1_foregroundBlur_17912_94045"/>
</filter>
<filter id="filter4_f_17912_94045" x="38" y="50" width="69" height="69" filterUnits="userSpaceOnUse" color-interpolation-filters="sRGB">
<feFlood flood-opacity="0" result="BackgroundImageFix"/>
<feBlend mode="normal" in="SourceGraphic" in2="BackgroundImageFix" result="shape"/>
<feGaussianBlur stdDeviation="10" result="effect1_foregroundBlur_17912_94045"/>
</filter>
<linearGradient id="paint0_linear_17912_94045" x1="34" y1="34" x2="70" y2="70" gradientUnits="userSpaceOnUse">
<stop stop-color="#F9F9FA"/>
<stop offset="0.585789" stop-color="#F9F9FA" stop-opacity="0"/>
</linearGradient>
<linearGradient id="paint1_linear_17912_94045" x1="52" y1="34" x2="52" y2="70" gradientUnits="userSpaceOnUse">
<stop stop-color="white"/>
<stop offset="1" stop-color="#E4E4E7"/>
</linearGradient>
<linearGradient id="paint2_linear_17912_94045" x1="52" y1="20" x2="52" y2="84" gradientUnits="userSpaceOnUse">
<stop stop-color="white"/>
<stop offset="1" stop-color="white" stop-opacity="0"/>
</linearGradient>
</defs>
</svg>
