<svg width="32" height="32" viewBox="0 0 32 32" fill="none" xmlns="http://www.w3.org/2000/svg">
<rect width="32" height="32" rx="4" fill="#00ACD7" />
<path d="M5.82024 14.7132C5.77344 14.7132 5.76174 14.6898 5.78514 14.6547L6.03084 14.3388C6.05424 14.3037 6.11274 14.2803 6.15954 14.2803H10.3365C10.3833 14.2803 10.395 14.3154 10.3716 14.3505L10.1727 14.6547C10.1493 14.6898 10.0908 14.7249 10.0557 14.7249L5.82024 14.7132Z" fill="white" />
<path d="M4.0468 15.7923C4 15.7923 3.9883 15.7689 4.0117 15.7338L4.2574 15.4179C4.2808 15.3828 4.33931 15.3594 4.38611 15.3594H9.72139C9.76819 15.3594 9.79159 15.3945 9.77989 15.4296L9.68629 15.7104C9.67459 15.7572 9.62779 15.7806 9.58099 15.7806L4.0468 15.7923Z" fill="white" />
<path d="M6.86711 16.8665C6.82031 16.8665 6.80861 16.8314 6.83201 16.7963L6.99582 16.5038C7.01922 16.4687 7.06602 16.4336 7.11282 16.4336H9.45285C9.49965 16.4336 9.52305 16.4687 9.52305 16.5155L9.49965 16.7963C9.49965 16.8431 9.45285 16.8782 9.41775 16.8782L6.86711 16.8665Z" fill="white" />
<path d="M19.0021 14.5079C18.265 14.6951 17.7619 14.8355 17.0365 15.0227C16.861 15.0695 16.8493 15.0812 16.6972 14.9057C16.5217 14.7068 16.393 14.5781 16.1473 14.4611C15.4102 14.0983 14.6964 14.2037 14.0295 14.6366C13.2339 15.1514 12.8244 15.9119 12.8361 16.8596C12.8478 17.7956 13.4913 18.5678 14.4156 18.6965C15.2113 18.8018 15.8782 18.521 16.4047 17.9243C16.51 17.7956 16.6036 17.6552 16.7206 17.4914C16.2994 17.4914 15.7729 17.4914 14.4624 17.4914C14.2167 17.4914 14.1582 17.3393 14.2401 17.1404C14.3922 16.7777 14.673 16.1693 14.8368 15.8651C14.8719 15.7949 14.9538 15.6779 15.1293 15.6779C15.7261 15.6779 17.9257 15.6779 19.3882 15.6779C19.3648 15.9938 19.3648 16.3097 19.318 16.6256C19.1893 17.468 18.8734 18.2402 18.3586 18.9188C17.5162 20.0303 16.4164 20.7207 15.024 20.9079C13.8774 21.06 12.8127 20.8377 11.8767 20.1356C11.0109 19.4804 10.5195 18.6146 10.3908 17.5382C10.2387 16.2629 10.6131 15.1163 11.3853 14.11C12.216 13.0219 13.3158 12.3316 14.6613 12.0859C15.7612 11.887 16.8142 12.0157 17.7619 12.6592C18.382 13.0687 18.8266 13.6303 19.1191 14.309C19.1893 14.4143 19.1425 14.4728 19.0021 14.5079Z" fill="white" />
<path d="M22.8668 20.9771C21.8021 20.9537 20.831 20.6495 20.012 19.9475C19.3217 19.3508 18.8888 18.5903 18.7484 17.6894C18.5378 16.3673 18.9005 15.1972 19.6961 14.1559C20.5502 13.0327 21.5798 12.4477 22.9721 12.202C24.1656 11.9914 25.2888 12.1084 26.3067 12.7987C27.231 13.4305 27.8043 14.2846 27.9564 15.4078C28.1553 16.9874 27.699 18.2744 26.6109 19.3742C25.8387 20.1581 24.891 20.6495 23.8029 20.8718C23.487 20.9303 23.171 20.942 22.8668 20.9771ZM25.6515 16.2503C25.6398 16.0982 25.6398 15.9812 25.6164 15.8642C25.4058 14.7058 24.3411 14.0506 23.2295 14.308C22.1414 14.5537 21.4394 15.244 21.182 16.3439C20.9714 17.2565 21.416 18.1808 22.2584 18.5552C22.9019 18.836 23.5455 18.8009 24.1656 18.485C25.0899 18.0053 25.593 17.2565 25.6515 16.2503Z" fill="white" />
</svg>
