<svg width="104" height="104" viewBox="0 0 104 104" fill="none" xmlns="http://www.w3.org/2000/svg">
<g filter="url(#filter0_d_18538_142716)">
<circle cx="52" cy="52" r="32" fill="#18181B"/>
</g>
<g filter="url(#filter1_f_18538_142716)">
<path d="M67.2987 45.786L58.2298 36.7053C57.1558 35.6899 55.8764 34.9167 54.4782 34.4379C51.3797 33.4062 48.296 34.2115 45.7987 36.7053L36.7074 45.786C35.6921 46.8601 34.9189 48.1394 34.4401 49.5378C33.4048 52.6364 34.2101 55.7203 36.7074 58.214L45.7876 67.2947C46.8599 68.3105 48.138 69.0837 49.5354 69.5621C50.3819 69.8484 51.269 69.9962 52.1626 70C54.3408 70 56.4263 69.0797 58.2149 67.2947L67.2913 58.214C68.3079 57.1404 69.0824 55.8609 69.5622 54.4622C70.5938 51.3636 69.7886 48.2835 67.2913 45.786H67.2987ZM52.7081 39.3363C53.394 39.5563 54.0188 39.9216 54.556 40.4014L57.239 43.0881L52.0068 48.3169L46.7746 43.0844L49.4723 40.3828C50.1959 39.6629 51.2164 38.8985 52.7081 39.3363ZM39.3494 51.2968C39.57 50.6103 39.9329 49.978 40.4144 49.4413L43.0973 46.7583L48.3294 51.9907L43.0936 57.2232L40.3959 54.5216C39.6723 53.8017 38.9116 52.7812 39.3457 51.2893L39.3494 51.2968ZM51.3054 64.6786C50.6186 64.4607 49.9861 64.0691 49.4501 63.5876L46.7746 60.9341L52.0068 55.698L57.239 60.9303L54.5412 63.632C53.8177 64.3518 52.8009 65.1163 51.3054 64.6786ZM64.6641 52.7181C64.4435 53.4038 64.0821 54.0358 63.6029 54.5735L60.9199 57.2232L55.6879 51.9907L60.9199 46.7583L63.6178 49.4561C64.3413 50.176 65.0982 51.2263 64.6641 52.7181Z" fill="url(#paint0_linear_18538_142716)"/>
</g>
<path d="M67.2987 45.786L58.2298 36.7053C57.1558 35.6899 55.8764 34.9167 54.4782 34.4379C51.3797 33.4062 48.296 34.2115 45.7987 36.7053L36.7074 45.786C35.6921 46.8601 34.9189 48.1394 34.4401 49.5378C33.4048 52.6364 34.2101 55.7203 36.7074 58.214L45.7876 67.2947C46.8599 68.3105 48.138 69.0837 49.5354 69.5621C50.3819 69.8484 51.269 69.9962 52.1626 70C54.3408 70 56.4263 69.0797 58.2149 67.2947L67.2913 58.214C68.3079 57.1404 69.0824 55.8609 69.5622 54.4622C70.5938 51.3636 69.7886 48.2835 67.2913 45.786H67.2987ZM52.7081 39.3363C53.394 39.5563 54.0188 39.9216 54.556 40.4014L57.239 43.0881L52.0068 48.3169L46.7746 43.0844L49.4723 40.3828C50.1959 39.6629 51.2164 38.8985 52.7081 39.3363ZM39.3494 51.2968C39.57 50.6103 39.9329 49.978 40.4144 49.4413L43.0973 46.7583L48.3294 51.9907L43.0936 57.2232L40.3959 54.5216C39.6723 53.8017 38.9116 52.7812 39.3457 51.2893L39.3494 51.2968ZM51.3054 64.6786C50.6186 64.4607 49.9861 64.0691 49.4501 63.5876L46.7746 60.9341L52.0068 55.698L57.239 60.9303L54.5412 63.632C53.8177 64.3518 52.8009 65.1163 51.3054 64.6786ZM64.6641 52.7181C64.4435 53.4038 64.0821 54.0358 63.6029 54.5735L60.9199 57.2232L55.6879 51.9907L60.9199 46.7583L63.6178 49.4561C64.3413 50.176 65.0982 51.2263 64.6641 52.7181Z" fill="url(#paint1_linear_18538_142716)"/>
<mask id="mask0_18538_142716" style="mask-type:alpha" maskUnits="userSpaceOnUse" x="20" y="20" width="64" height="64">
<circle cx="52" cy="52" r="32" fill="#18181B"/>
</mask>
<g mask="url(#mask0_18538_142716)">
<g style="mix-blend-mode:plus-lighter" opacity="0.2" filter="url(#filter2_f_18538_142716)">
<circle cx="22.5" cy="19.5" r="26.5" fill="#70DCD3"/>
</g>
<g opacity="0.05" filter="url(#filter3_f_18538_142716)">
<circle cx="72.5" cy="84.5" r="14.5" fill="#D9D9D9"/>
</g>
<g style="mix-blend-mode:plus-lighter" opacity="0.1" filter="url(#filter4_f_18538_142716)">
<circle cx="72.5" cy="84.5" r="14.5" fill="#70DCD3"/>
</g>
</g>
<g style="mix-blend-mode:overlay">
<circle cx="52" cy="52" r="31.5" stroke="url(#paint2_linear_18538_142716)"/>
</g>
<defs>
<filter id="filter0_d_18538_142716" x="0" y="0" width="104" height="104" filterUnits="userSpaceOnUse" color-interpolation-filters="sRGB">
<feFlood flood-opacity="0" result="BackgroundImageFix"/>
<feColorMatrix in="SourceAlpha" type="matrix" values="0 0 0 0 0 0 0 0 0 0 0 0 0 0 0 0 0 0 127 0" result="hardAlpha"/>
<feOffset/>
<feGaussianBlur stdDeviation="10"/>
<feComposite in2="hardAlpha" operator="out"/>
<feColorMatrix type="matrix" values="0 0 0 0 0 0 0 0 0 0 0 0 0 0 0 0 0 0 0.6 0"/>
<feBlend mode="normal" in2="BackgroundImageFix" result="effect1_dropShadow_18538_142716"/>
<feBlend mode="normal" in="SourceGraphic" in2="effect1_dropShadow_18538_142716" result="shape"/>
</filter>
<filter id="filter1_f_18538_142716" x="24" y="24" width="56" height="56" filterUnits="userSpaceOnUse" color-interpolation-filters="sRGB">
<feFlood flood-opacity="0" result="BackgroundImageFix"/>
<feBlend mode="normal" in="SourceGraphic" in2="BackgroundImageFix" result="shape"/>
<feGaussianBlur stdDeviation="5" result="effect1_foregroundBlur_18538_142716"/>
</filter>
<filter id="filter2_f_18538_142716" x="-24" y="-27" width="93" height="93" filterUnits="userSpaceOnUse" color-interpolation-filters="sRGB">
<feFlood flood-opacity="0" result="BackgroundImageFix"/>
<feBlend mode="normal" in="SourceGraphic" in2="BackgroundImageFix" result="shape"/>
<feGaussianBlur stdDeviation="10" result="effect1_foregroundBlur_18538_142716"/>
</filter>
<filter id="filter3_f_18538_142716" x="38" y="50" width="69" height="69" filterUnits="userSpaceOnUse" color-interpolation-filters="sRGB">
<feFlood flood-opacity="0" result="BackgroundImageFix"/>
<feBlend mode="normal" in="SourceGraphic" in2="BackgroundImageFix" result="shape"/>
<feGaussianBlur stdDeviation="10" result="effect1_foregroundBlur_18538_142716"/>
</filter>
<filter id="filter4_f_18538_142716" x="38" y="50" width="69" height="69" filterUnits="userSpaceOnUse" color-interpolation-filters="sRGB">
<feFlood flood-opacity="0" result="BackgroundImageFix"/>
<feBlend mode="normal" in="SourceGraphic" in2="BackgroundImageFix" result="shape"/>
<feGaussianBlur stdDeviation="10" result="effect1_foregroundBlur_18538_142716"/>
</filter>
<linearGradient id="paint0_linear_18538_142716" x1="34" y1="34" x2="70" y2="70" gradientUnits="userSpaceOnUse">
<stop stop-color="#F9F9FA"/>
<stop offset="0.585789" stop-color="#F9F9FA" stop-opacity="0"/>
</linearGradient>
<linearGradient id="paint1_linear_18538_142716" x1="52" y1="34" x2="52" y2="70" gradientUnits="userSpaceOnUse">
<stop stop-color="white"/>
<stop offset="1" stop-color="#E4E4E7"/>
</linearGradient>
<linearGradient id="paint2_linear_18538_142716" x1="52" y1="20" x2="52" y2="84" gradientUnits="userSpaceOnUse">
<stop stop-color="white"/>
<stop offset="1" stop-color="white" stop-opacity="0"/>
</linearGradient>
</defs>
</svg>
