<svg viewBox="0 0 18 18" fill="none" xmlns="http://www.w3.org/2000/svg">
    <path fill-rule="evenodd" clip-rule="evenodd" d="M8.5806 1.2834C8.70711 1.20786 8.85171 1.16797 8.99906 1.16797C9.14641 1.16797 9.29102 1.20786 9.41753 1.2834C9.54404 1.35894 9.64775 1.46732 9.71764 1.59704L16.725 14.6106C16.7919 14.7349 16.8253 14.8745 16.8221 15.0156C16.8189 15.1567 16.7792 15.2946 16.7068 15.4158C16.6344 15.5369 16.5318 15.6373 16.4091 15.707C16.2863 15.7766 16.1476 15.8133 16.0065 15.8134H1.99166C1.85051 15.8133 1.71179 15.7766 1.58904 15.707C1.46629 15.6373 1.36371 15.5369 1.29132 15.4158C1.21892 15.2946 1.17919 15.1567 1.17599 15.0156C1.1728 14.8745 1.20625 14.7349 1.27309 14.6106L8.28049 1.59704L8.28053 1.59696C8.35042 1.46728 8.45411 1.35893 8.5806 1.2834ZM8.99906 0.167969C8.67119 0.167969 8.34943 0.256722 8.06793 0.424812C7.78642 0.592902 7.55567 0.834059 7.40014 1.1227L7.40008 1.12282L0.392455 14.1368L0.392294 14.1371C0.243576 14.4138 0.169137 14.7242 0.176247 15.0382C0.183356 15.3522 0.271771 15.659 0.432857 15.9286C0.593944 16.1983 0.822196 16.4215 1.09533 16.5766C1.36846 16.7316 1.67714 16.8132 1.99121 16.8134H1.99144H16.0067H16.0069C16.321 16.8132 16.6297 16.7316 16.9028 16.5766C17.1759 16.4215 17.4042 16.1983 17.5653 15.9286C17.7264 15.659 17.8148 15.3522 17.8219 15.0382C17.829 14.7242 17.7546 14.4138 17.6058 14.1371L17.6057 14.1368L10.598 1.12282L10.598 1.1227C10.4425 0.83406 10.2117 0.592902 9.9302 0.424812C9.64869 0.256722 9.32694 0.167969 8.99906 0.167969ZM9 4.56348C9.27614 4.56348 9.5 4.78733 9.5 5.06348V10.6885C9.5 10.9646 9.27614 11.1885 9 11.1885C8.72386 11.1885 8.5 10.9646 8.5 10.6885V5.06348C8.5 4.78733 8.72386 4.56348 9 4.56348ZM9 14.626C9.62132 14.626 10.125 14.1223 10.125 13.501C10.125 12.8797 9.62132 12.376 9 12.376C8.37868 12.376 7.875 12.8797 7.875 13.501C7.875 14.1223 8.37868 14.626 9 14.626Z" fill="url(#paint0_linear_17930_82758)" style=""/>
    <defs>
        <linearGradient id="paint0_linear_17930_82758" x1="8.99906" y1="0.167969" x2="8.99906" y2="16.8134" gradientUnits="userSpaceOnUse">
            <stop style="stop-opacity:1;"/>
            <stop offset="1" style="stop-opacity:1;"/>
        </linearGradient>
    </defs>
</svg>
