<svg viewBox="0 0 18 18" fill="none" xmlns="http://www.w3.org/2000/svg">
    <g clip-path="url(#clip0_17614_128167)">
        <path fill-rule="evenodd" clip-rule="evenodd" d="M0.998047 0.499023C1.27419 0.499023 1.49805 0.722881 1.49805 0.999023V5.83327H4.19862C4.47476 5.83327 4.69862 6.05713 4.69862 6.33327C4.69862 6.60942 4.47476 6.83327 4.19862 6.83327H1.49805V14.3682H4.19862C4.47476 14.3682 4.69862 14.592 4.69862 14.8682C4.69862 15.1443 4.47476 15.3682 4.19862 15.3682H0.998047C0.721904 15.3682 0.498047 15.1443 0.498047 14.8682V6.33327V0.999023C0.498047 0.722881 0.721904 0.499023 0.998047 0.499023ZM7.39929 3.69965C7.12315 3.69965 6.89929 3.9235 6.89929 4.19965V8.46708C6.89929 8.74322 7.12315 8.96708 7.39929 8.96708H17.001C17.2772 8.96708 17.501 8.74322 17.501 8.46708V4.19965C17.501 3.9235 17.2772 3.69965 17.001 3.69965H7.39929ZM16.501 7.96708H7.89929V4.69965H16.501V7.96708ZM7.39929 12.2345C7.12315 12.2345 6.89929 12.4584 6.89929 12.7345V17.002C6.89929 17.2781 7.12315 17.502 7.39929 17.502H17.001C17.2772 17.502 17.501 17.2781 17.501 17.002V12.7345C17.501 12.4584 17.2772 12.2345 17.001 12.2345H7.39929ZM7.89929 16.502V13.2345H16.501V16.502H7.89929Z" fill="url(#paint0_linear_17614_128167)" style=""/>
    </g>
    <defs>
        <linearGradient id="paint0_linear_17614_128167" x1="8.99953" y1="0.499023" x2="8.99953" y2="17.502" gradientUnits="userSpaceOnUse">
            <stop stop-color="currentColor" style="stop-color:currentColor;stop-color:color(display-p3 0.9397 0.9397 0.9397);stop-opacity:1;"/>
            <stop offset="1" stop-color="currentColor" style="stop-color:currentColor;stop-color:color(display-p3 0.6132 0.6132 0.6132);stop-opacity:1;"/>
        </linearGradient>
        <clipPath id="clip0_17614_128167">
            <rect width="18" height="18" fill="currentColor" style="fill:currentColor;fill-opacity:1;" />
        </clipPath>
    </defs>
</svg>
