<svg width="32" height="32" viewBox="0 0 32 32" fill="none" xmlns="http://www.w3.org/2000/svg">
<rect width="32" height="32" rx="4" fill="#B0E576" />
<path d="M15.0989 5.28154C15.6418 4.97066 16.349 4.96925 16.8914 5.28154C19.6205 6.8242 22.3504 8.36443 25.0789 9.90802C25.5921 10.1972 25.9354 10.7686 25.9302 11.3602V20.6414C25.934 21.2574 25.5568 21.8425 25.0154 22.1251C22.2953 23.6593 19.5766 25.1953 16.857 26.7294C16.3029 27.0464 15.5815 27.022 15.0447 26.679C14.2292 26.2061 13.4124 25.7355 12.5968 25.2631C12.4302 25.1637 12.2423 25.0846 12.1246 24.9229C12.2286 24.7827 12.4146 24.7652 12.5658 24.704C12.9062 24.5957 13.2188 24.4219 13.5315 24.2532C13.6106 24.199 13.7071 24.2198 13.7829 24.2682C14.4803 24.6682 15.1714 25.0798 15.8711 25.476C16.0204 25.5622 16.1715 25.4477 16.2991 25.3766C18.9683 23.8674 21.6408 22.3639 24.3095 20.8543C24.4084 20.8067 24.4631 20.7017 24.4551 20.5933C24.4569 17.5316 24.4555 14.4694 24.456 11.4078C24.4673 11.2848 24.3962 11.1718 24.2851 11.1215C21.5744 9.59432 18.8652 8.06486 16.155 6.53734C16.1081 6.50504 16.0525 6.48772 15.9955 6.48763C15.9385 6.48755 15.8828 6.50471 15.8358 6.53687C13.1256 8.06486 10.4169 9.59573 7.70669 11.1228C7.59595 11.1732 7.52164 11.2843 7.53481 11.4078C7.53528 14.4694 7.53481 17.5316 7.53481 20.5938C7.53012 20.6467 7.54172 20.6997 7.56807 20.7458C7.59443 20.7918 7.63426 20.8287 7.6822 20.8515C8.40542 21.2617 9.12958 21.6691 9.85326 22.078C10.261 22.2975 10.7615 22.428 11.2107 22.2598C11.6071 22.1176 11.885 21.7129 11.8774 21.2918C11.8811 18.248 11.8755 15.2038 11.8802 12.1604C11.8703 12.0253 11.9984 11.9137 12.1298 11.9264C12.4773 11.9241 12.8252 11.9217 13.1727 11.9273C13.3178 11.9241 13.4176 12.0696 13.3996 12.2057C13.3982 15.2688 13.4034 18.3319 13.3973 21.395C13.3982 22.2113 13.063 23.0996 12.3082 23.499C11.3783 23.9809 10.229 23.8787 9.31034 23.4166C8.51507 23.0196 7.75613 22.5509 6.97497 22.1255C6.43213 21.8444 6.05679 21.2571 6.06061 20.6414V11.3602C6.05492 10.7563 6.41185 10.1746 6.94105 9.88961C9.66065 8.35421 12.3798 6.81764 15.0989 5.28154Z" fill="black" />
<path d="M17.4686 11.7099C18.6547 11.6336 19.9245 11.6647 20.9919 12.2493C21.8183 12.6972 22.2764 13.6374 22.291 14.5558C22.2679 14.6797 22.1385 14.748 22.0202 14.7395C21.6761 14.7391 21.3319 14.7442 20.9877 14.7372C20.8418 14.7428 20.7569 14.6082 20.7386 14.4791C20.6397 14.0396 20.4001 13.6044 19.9867 13.3924C19.352 13.0745 18.616 13.0905 17.9239 13.0971C17.4187 13.1239 16.8754 13.1677 16.4473 13.4649C16.1187 13.6901 16.0189 14.1446 16.1362 14.5106C16.2467 14.7735 16.55 14.8583 16.7982 14.9365C18.2276 15.3105 19.7423 15.2732 21.1445 15.7654C21.725 15.9661 22.2929 16.3562 22.4916 16.9642C22.7515 17.7791 22.6376 18.7532 22.058 19.4074C21.588 19.9458 20.9034 20.2388 20.2207 20.398C19.3124 20.6006 18.3698 20.6057 17.4474 20.5158C16.5801 20.4169 15.6775 20.1889 15.008 19.5977C14.4354 19.1004 14.1558 18.3255 14.1835 17.5775C14.1902 17.4512 14.3159 17.3632 14.4368 17.3735C14.7834 17.3707 15.1299 17.3698 15.4765 17.374C15.6149 17.3641 15.7175 17.4838 15.7246 17.6143C15.7886 18.033 15.9459 18.4724 16.3108 18.7207C17.0152 19.1753 17.899 19.1441 18.7055 19.1569C19.3736 19.1272 20.1237 19.1182 20.6689 18.6765C20.9566 18.4245 21.0419 18.0029 20.9641 17.6402C20.8799 17.334 20.5597 17.1913 20.2847 17.098C18.8736 16.6514 17.3419 16.8135 15.9445 16.3085C15.3771 16.1079 14.8285 15.7287 14.6106 15.1456C14.3064 14.3204 14.4458 13.2996 15.0861 12.6675C15.7104 12.0387 16.6117 11.7966 17.4686 11.7099Z" fill="black" />
</svg>
