<svg viewBox="0 0 12 12" fill="none" xmlns="http://www.w3.org/2000/svg">
<g>
<path d="M1.25 0.5V6.36667C1.25 6.75565 1.40452 7.1287 1.67958 7.40376C1.95463 7.67881 2.32768 7.83333 2.71667 7.83333H4.91667V10.4C4.91667 10.6917 5.03256 10.9715 5.23885 11.1778C5.44514 11.3841 5.72493 11.5 6.01667 11.5C6.3084 11.5 6.58819 11.3841 6.79448 11.1778C7.00077 10.9715 7.11667 10.6917 7.11667 10.4V7.83333H9.31667C9.70565 7.83333 10.0787 7.67881 10.3538 7.40376C10.6288 7.1287 10.7833 6.75565 10.7833 6.36667V0.5H1.25Z" stroke="currentColor" stroke-linecap="round" stroke-linejoin="round"/>
<path d="M2.7168 5.63379H9.3168" stroke="currentColor" stroke-linecap="round" stroke-linejoin="round"/>
</g>
</svg>
