<svg viewBox="0 0 18 18" fill="none" xmlns="http://www.w3.org/2000/svg">
    <path fill-rule="evenodd" clip-rule="evenodd" d="M6 1.25C4.61939 1.25 3.5 2.36939 3.5 3.75V10.75C3.5 11.0261 3.27614 11.25 3 11.25C2.72386 11.25 2.5 11.0261 2.5 10.75V3.75C2.5 1.81711 4.06711 0.25 6 0.25C7.93289 0.25 9.5 1.81711 9.5 3.75V14.25C9.5 15.6306 10.6194 16.75 12 16.75C13.3806 16.75 14.5 15.6306 14.5 14.25V7.25C14.5 6.97386 14.7239 6.75 15 6.75C15.2761 6.75 15.5 6.97386 15.5 7.25V14.25C15.5 16.1829 13.9329 17.75 12 17.75C10.0671 17.75 8.5 16.1829 8.5 14.25V3.75C8.5 2.36939 7.38061 1.25 6 1.25ZM15 1.25C14.0335 1.25 13.25 2.0335 13.25 3C13.25 3.9665 14.0335 4.75 15 4.75C15.9665 4.75 16.75 3.9665 16.75 3C16.75 2.0335 15.9665 1.25 15 1.25ZM12.25 3C12.25 1.48122 13.4812 0.25 15 0.25C16.5188 0.25 17.75 1.48122 17.75 3C17.75 4.51878 16.5188 5.75 15 5.75C13.4812 5.75 12.25 4.51878 12.25 3ZM1.25 15C1.25 14.0335 2.0335 13.25 3 13.25C3.9665 13.25 4.75 14.0335 4.75 15C4.75 15.9665 3.9665 16.75 3 16.75C2.0335 16.75 1.25 15.9665 1.25 15ZM3 12.25C1.48122 12.25 0.25 13.4812 0.25 15C0.25 16.5188 1.48122 17.75 3 17.75C4.51878 17.75 5.75 16.5188 5.75 15C5.75 13.4812 4.51878 12.25 3 12.25Z" fill="url(#paint0_linear_24792_94007)" />
    <defs>
        <linearGradient id="paint0_linear_24792_94007" x1="9" y1="0.25" x2="9" y2="17.75" gradientUnits="userSpaceOnUse">
            <stop stop-color="currentColor" style="stop-color:currentColor;stop-color:color(display-p3 0.9397 0.9397 0.9397);stop-opacity:1;"/>
            <stop offset="1" stop-color="currentColor" style="stop-color:currentColor;stop-color:color(display-p3 0.6132 0.6132 0.6132);stop-opacity:1;"/>
        </linearGradient>
    </defs>
</svg>
