<svg viewBox="0 0 18 18" fill="none" xmlns="http://www.w3.org/2000/svg">
<g clip-path="url(#clip0_9309_36375)">
<path fill-rule="evenodd" clip-rule="evenodd" d="M17.791 0.208859C17.9863 0.404073 17.9864 0.720656 17.7912 0.915966L15.847 2.86116C16.4692 3.64277 16.8127 4.61616 16.8127 5.62496C16.8127 6.79976 16.3468 7.92654 15.5174 8.75833L14.4247 9.90706C14.3318 10.0047 14.2035 10.0607 14.0687 10.0624C13.9339 10.0641 13.8042 10.0113 13.7089 9.91601L8.11202 4.31914C7.91676 4.12387 7.91676 3.80729 8.11202 3.61203L9.23702 2.48703C10.0693 1.6548 11.198 1.18726 12.375 1.18726C13.3843 1.18726 14.3582 1.5311 15.14 2.15393L17.0839 0.209034C17.2791 0.0137236 17.5957 0.0136454 17.791 0.208859ZM14.7879 3.17643C14.145 2.54281 13.2783 2.18726 12.375 2.18726C11.4632 2.18726 10.5888 2.54944 9.94413 3.19414L9.17268 3.96558L14.0535 8.8464L14.797 8.06472L14.8057 8.05567L14.8058 8.05578C15.4505 7.41108 15.8127 6.53669 15.8127 5.62496C15.8127 4.72212 15.4575 3.85591 14.8246 3.21308C14.8183 3.20738 14.812 3.20148 14.806 3.19539C14.7998 3.18919 14.7937 3.18286 14.7879 3.17643ZM7.66505 8.79094C7.86024 8.59561 7.86014 8.27903 7.66481 8.08383C7.46948 7.88863 7.1529 7.88874 6.9577 8.08406L5.62486 9.4178L4.29101 8.08395C4.19571 7.98865 4.06597 7.93585 3.93121 7.93754C3.79644 7.93922 3.66807 7.99524 3.57518 8.09289L2.48248 9.24162C1.6531 10.0734 1.18726 11.2002 1.18726 12.375C1.18726 13.3838 1.53077 14.3572 2.15302 15.1389L0.208859 17.084C0.0136454 17.2793 0.0137235 17.5959 0.209034 17.7911C0.404344 17.9863 0.720927 17.9862 0.916141 17.7909L2.86002 15.8461C3.64182 16.4689 4.61566 16.8127 5.62496 16.8127C6.80191 16.8127 7.93066 16.3452 8.76289 15.5129L9.88789 14.3879C10.0831 14.1927 10.0831 13.8761 9.88789 13.6808L8.58209 12.375L9.91605 11.0411C10.1113 10.8458 10.1113 10.5292 9.91605 10.3339C9.72079 10.1387 9.40421 10.1387 9.20895 10.3339L7.87498 11.6679L6.33197 10.1249L7.66505 8.79094ZM3.21324 14.8248C3.85605 15.4576 4.7222 15.8127 5.62496 15.8127C6.53669 15.8127 7.41108 15.4505 8.05578 14.8058L8.82722 14.0344L3.94641 9.15356L3.20286 9.93523L3.19425 9.94429L3.19414 9.94418C2.54944 10.5889 2.18726 11.4633 2.18726 12.375C2.18726 13.2773 2.54198 14.143 3.17421 14.7857C3.18096 14.7918 3.18759 14.7981 3.19409 14.8046C3.2007 14.8112 3.20708 14.8179 3.21324 14.8248Z" fill="url(#paint0_linear_9309_36375)"/>
</g>
<defs>
<linearGradient id="paint0_linear_9309_36375" x1="9.00002" y1="0.0625" x2="9.00002" y2="17.9375" gradientUnits="userSpaceOnUse">
<stop stop-color="currentColor"/>
<stop offset="1" stop-color="currentColor"/>
</linearGradient>
<clipPath id="clip0_9309_36375">
<rect width="100%" height="100%" fill="currentColor"/>
</clipPath>
</defs>
</svg>
