<svg viewBox="0 0 18 18" fill="none" xmlns="http://www.w3.org/2000/svg">
    <g clip-path="url(#clip0_17614_128126)">
        <path fill-rule="evenodd" clip-rule="evenodd" d="M3.13333 1.5C2.70015 1.5 2.2847 1.67208 1.97839 1.97839C1.67208 2.2847 1.5 2.70015 1.5 3.13333V10H6.33333C6.60948 10 6.83333 10.2239 6.83333 10.5V13H11.1667V10.5C11.1667 10.2239 11.3905 10 11.6667 10H16.5V3.13333C16.5 2.70015 16.3279 2.2847 16.0216 1.97839C15.7153 1.67208 15.2999 1.5 14.8667 1.5H3.13333ZM0.5 3.13333V10.5V13.2998V15.4C0.5 15.4066 0.500126 15.4131 0.500377 15.4196C0.511 16.5703 1.44709 17.4998 2.60029 17.4998H15.4003C16.5601 17.4998 17.5003 16.5596 17.5003 15.3998V13.2998L17.5 13.3001V10.5V3.13333C17.5 2.43493 17.2226 1.76513 16.7287 1.27129C16.2349 0.77744 15.5651 0.5 14.8667 0.5H3.13333C2.43493 0.5 1.76513 0.77744 1.27129 1.27129C0.77744 1.76513 0.5 2.43493 0.5 3.13333ZM16.5002 15.4144C16.5001 15.4096 16.5 15.4048 16.5 15.4V14.2998V11H12.1667V13.5C12.1667 13.7761 11.9428 14 11.6667 14H6.33333C6.05719 14 5.83333 13.7761 5.83333 13.5V11H1.5V14.2995L1.50029 14.2998V15.3998C1.50029 16.0073 1.99277 16.4998 2.60029 16.4998H15.4003C16.0029 16.4998 16.4924 16.0152 16.5002 15.4144Z" fill="url(#paint0_linear_17614_128126)" />
    </g>
    <defs>
        <linearGradient id="paint0_linear_17614_128126" x1="9.00014" y1="0.5" x2="9.00014" y2="17.4998" gradientUnits="userSpaceOnUse">
            <stop stop-color="currentColor" style="stop-color:currentColor;stop-color:color(display-p3 0.9397 0.9397 0.9397);stop-opacity:1;"/>
            <stop offset="1" stop-color="currentColor" style="stop-color:currentColor;stop-color:color(display-p3 0.6132 0.6132 0.6132);stop-opacity:1;"/>
        </linearGradient>
        <clipPath id="clip0_17614_128126">
            <rect width="18" height="18" fill="currentColor" style="fill:currentColor;fill-opacity:1;"/>
        </clipPath>
    </defs>
</svg>
