<svg viewBox="0 0 12 12" fill="none" xmlns="http://www.w3.org/2000/svg">
<path fill-rule="evenodd" clip-rule="evenodd" d="M1 1.99991C1 1.44767 1.44767 1 1.99991 1H9.9994C10.5516 1 10.9993 1.44767 10.9993 1.99991V6.00026H8.49949C8.22335 6.00026 7.9995 6.22412 7.9995 6.50026V8.00013H3.99981V6.50026C3.99981 6.22412 3.77595 6.00026 3.49981 6.00026H1V1.99991ZM0 6.50026V1.99991C0 0.895388 0.895388 0 1.99991 0H9.9994C11.1039 0 11.9993 0.895388 11.9993 1.99991V6.50026V9.9994C11.9993 11.1039 11.1039 11.9993 9.9994 11.9993H1.99991C0.895388 11.9993 0 11.1039 0 9.9994V6.50026ZM10.9993 7.00026V9.9994C10.9993 10.5516 10.5516 10.9993 9.9994 10.9993H1.99991C1.44767 10.9993 1 10.5516 1 9.9994V7.00026H2.99981V8.50013C2.99981 8.77627 3.22367 9.00013 3.49981 9.00013H8.49949C8.77564 9.00013 8.99949 8.77627 8.99949 8.50013V7.00026H10.9993Z" fill="currentColor" />
</svg>
