<svg viewBox="0 0 18 18" fill="none" xmlns="http://www.w3.org/2000/svg">
<path fill-rule="evenodd" clip-rule="evenodd" d="M17.4956 1.02835C17.5037 0.886507 17.451 0.747939 17.3508 0.647254C17.2506 0.546569 17.1123 0.493274 16.9704 0.500681C13.9132 0.660298 11.4454 1.58908 9.49104 2.80822C8.14274 2.28858 6.65349 2.24844 5.27509 2.69961C3.81258 3.1783 2.57647 4.17682 1.80095 5.50597C1.68648 5.70217 1.71864 5.95088 1.87926 6.11151L4.08967 8.32191C4.0261 8.42568 3.9661 8.52614 3.90959 8.62289C3.66062 9.04911 3.47877 9.40429 3.35835 9.65493C3.29813 9.78028 3.25321 9.87959 3.22291 9.94867C3.20775 9.98322 3.19624 10.0102 3.1883 10.0292L3.17903 10.0515L3.17638 10.0579L3.17554 10.06L3.17525 10.0607C3.17513 10.061 3.17503 10.0613 3.63896 10.2477L3.17503 10.0613C3.10033 10.2471 3.14376 10.4596 3.28541 10.6013L7.39516 14.711C7.53756 14.8535 7.7515 14.8965 7.93792 14.8203L7.74871 14.3575C7.93792 14.8203 7.93817 14.8202 7.93845 14.8201L7.93917 14.8198L7.94122 14.819L7.94767 14.8163L7.96984 14.8069C7.98868 14.7989 8.01554 14.7872 8.04991 14.7719C8.11865 14.7413 8.21747 14.6959 8.34222 14.6352C8.59167 14.5136 8.94522 14.3303 9.36963 14.0797C9.46481 14.0235 9.56361 13.9638 9.66565 13.9007L11.8856 16.1207C12.0463 16.2813 12.295 16.3135 12.4912 16.199C13.8274 15.4194 14.8296 14.1749 15.3065 12.7032C15.7556 11.3172 15.7092 9.82107 15.1802 8.46942C16.3945 6.51934 17.3233 4.06297 17.4956 1.02835ZM14.4651 9.52024C13.8401 10.3635 13.1701 11.0939 12.5068 11.7192C11.8182 12.3684 11.1362 12.905 10.5179 13.3388L12.3101 15.131C13.2724 14.4721 13.9935 13.5112 14.3552 12.395C14.6583 11.4595 14.6931 10.4644 14.4651 9.52024ZM4.64866 7.46669C5.07992 6.84691 5.61388 6.16378 6.26041 5.47458C6.87955 4.81458 7.60254 4.14854 8.43744 3.52733C7.49959 3.30741 6.51307 3.34661 5.58616 3.64999C4.47776 4.01278 3.524 4.73063 2.86904 5.68707L4.64866 7.46669ZM7.85725 13.7589L4.23601 10.1377L4.25971 10.088C4.36974 9.859 4.53908 9.52785 4.77307 9.12727C5.24148 8.32539 5.96645 7.24958 6.98974 6.15875C8.0408 5.03831 9.40455 3.90352 11.1296 3.03175L14.9469 6.84905C14.0728 8.57211 12.939 9.93749 11.8208 10.9916C10.7322 12.0178 9.65999 12.7469 8.86114 13.2186C8.46207 13.4543 8.13229 13.6251 7.90426 13.7362L7.85725 13.7589ZM15.3932 5.88108C15.922 4.61059 16.3055 3.16815 16.4552 1.53882C14.8188 1.68162 13.3721 2.06081 12.0992 2.58709L15.3932 5.88108ZM1.56734 16.4332C1.84845 16.3934 2.19267 16.3364 2.54303 16.2585C2.88502 16.1824 3.20998 16.0914 3.4779 15.9867C3.76453 15.8747 3.89962 15.7797 3.94044 15.7389L3.94071 15.7386C4.16419 15.5153 4.28985 15.2124 4.29007 14.8965C4.29029 14.5809 4.16527 14.278 3.94247 14.0545C3.7195 13.8321 3.41744 13.7073 3.10253 13.7073C2.78748 13.7073 2.4853 13.8323 2.2623 14.0548L2.26249 14.0546L1.55541 13.3475L2.262 14.0551L2.2623 14.0548C2.221 14.0962 2.12603 14.2316 2.01422 14.5176C1.90949 14.7855 1.81853 15.1104 1.74258 15.4523C1.66424 15.8048 1.60712 16.1511 1.56734 16.4332ZM4.64967 13.3475C4.23915 12.9375 3.6827 12.7073 3.10253 12.7073C2.52236 12.7073 1.96591 12.9375 1.55539 13.3475C0.810287 14.0926 0.547374 16.4482 0.502668 16.9133C0.495243 16.9872 0.503357 17.0618 0.526488 17.1323C0.54962 17.2029 0.587257 17.2678 0.63698 17.323C0.686703 17.3781 0.747413 17.4222 0.815206 17.4525C0.883 17.4828 0.956378 17.4985 1.03062 17.4987C1.04764 17.4998 1.0647 17.4998 1.08172 17.4987C1.54687 17.454 3.90351 17.1901 4.64755 16.446C5.05856 16.0353 5.28967 15.4782 5.29007 14.8972C5.29047 14.3162 5.06013 13.7587 4.64967 13.3475ZM11.1429 7.91916C11.1429 8.50703 10.6664 8.98359 10.0785 8.98359C9.49063 8.98359 9.01407 8.50703 9.01407 7.91916C9.01407 7.33129 9.49063 6.85473 10.0785 6.85473C10.6664 6.85473 11.1429 7.33129 11.1429 7.91916Z" fill="url(#paint0_linear_9309_36360)"/>
<defs>
<linearGradient id="paint0_linear_9309_36360" x1="8.99823" y1="0.5" x2="8.99823" y2="17.4995" gradientUnits="userSpaceOnUse">
<stop stop-color="currentColor"/>
<stop offset="1" stop-color="currentColor"/>
</linearGradient>
</defs>
</svg>
