<svg viewBox="0 0 18 18" fill="none" xmlns="http://www.w3.org/2000/svg">
<g clip-path="url(#clip0_9309_36435)">
<path fill-rule="evenodd" clip-rule="evenodd" d="M8.84632 0.0243221C8.94646 -0.00810736 9.05428 -0.00810736 9.15442 0.0243221L16.1548 2.29138C16.361 2.35817 16.5007 2.55026 16.5007 2.76706V10.135C16.5007 12.9359 14.5788 14.9085 12.784 16.1437C11.8767 16.7681 10.9728 17.2251 10.2976 17.5257C9.95925 17.6764 9.67654 17.7886 9.4771 17.8636C9.37733 17.9011 9.29828 17.9293 9.24338 17.9484C9.21593 17.958 9.1945 17.9653 9.17953 17.9703L9.16198 17.9761L9.15693 17.9778L9.15535 17.9783L9.15481 17.9785C9.1546 17.9785 9.15442 17.9786 9.00037 17.5029C8.84632 17.9786 8.84614 17.9785 8.84594 17.9785L8.84539 17.9783L8.84382 17.9778L8.83877 17.9761L8.82121 17.9703C8.80624 17.9653 8.78482 17.958 8.75736 17.9484C8.70246 17.9293 8.62341 17.9011 8.52365 17.8636C8.32421 17.7886 8.04149 17.6764 7.70317 17.5257C7.02796 17.2251 6.12408 16.7681 5.21673 16.1437C3.42191 14.9085 1.5 12.9359 1.5 10.135V2.76706C1.5 2.55026 1.63971 2.35817 1.84595 2.29138L8.84632 0.0243221ZM9.00037 17.5029L9.15442 17.9786C9.05428 18.011 8.94646 18.011 8.84632 17.9786L9.00037 17.5029ZM9.00037 16.9736C9.03631 16.9606 9.07809 16.9452 9.12524 16.9275C9.30863 16.8586 9.57282 16.7538 9.89079 16.6122C10.5281 16.3284 11.3744 15.8998 12.2171 15.3199C13.9225 14.1463 15.5007 12.435 15.5007 10.135V3.1307L9.00037 1.02557L2.5 3.1307V10.135C2.5 12.435 4.07827 14.1463 5.78364 15.3199C6.62638 15.8998 7.4726 16.3284 8.10996 16.6122C8.42792 16.7538 8.69211 16.8586 8.8755 16.9275C8.92265 16.9452 8.96443 16.9606 9.00037 16.9736ZM6.61834 7.71167C6.56064 7.71167 6.43775 7.77769 6.43775 7.95741V10.9404C6.43775 11.1201 6.56064 11.1861 6.61834 11.1861H11.3825C11.4402 11.1861 11.5631 11.1201 11.5631 10.9404V7.95741C11.5631 7.77769 11.4402 7.71167 11.3825 7.71167H10.7603C10.7569 7.71174 10.7536 7.71177 10.7502 7.71177C10.7468 7.71177 10.7434 7.71174 10.7401 7.71167H7.26011C7.25675 7.71174 7.25338 7.71177 7.25 7.71177C7.24663 7.71177 7.24326 7.71174 7.2399 7.71167H6.61834ZM6.75 6.71167H6.61834C5.92428 6.71167 5.43775 7.31341 5.43775 7.95741V10.9404C5.43775 11.5844 5.92428 12.1861 6.61834 12.1861H11.3825C12.0765 12.1861 12.5631 11.5844 12.5631 10.9404V7.95741C12.5631 7.31341 12.0765 6.71167 11.3825 6.71167H11.2502V6.31688C11.2502 5.0629 10.2533 4.0271 9.0001 4.0271C7.7469 4.0271 6.75 5.0629 6.75 6.31688V6.71167ZM7.75 6.71167V6.31688C7.75 5.59392 8.3202 5.0271 9.0001 5.0271C9.67999 5.0271 10.2502 5.59392 10.2502 6.31688V6.71167H7.75Z" fill="url(#paint0_linear_9309_36435)"/>
</g>
<defs>
<linearGradient id="paint0_linear_9309_36435" x1="9.00037" y1="0" x2="9.00037" y2="18.0029" gradientUnits="userSpaceOnUse">
<stop stop-color="currentColor"/>
<stop offset="1" stop-color="currentColor"/>
</linearGradient>
<clipPath id="clip0_9309_36435">
<rect width="100%" height="100%" fill="currentColor"/>
</clipPath>
</defs>
</svg>
