<svg width="24" height="24" viewBox="0 0 24 24" fill="none" xmlns="http://www.w3.org/2000/svg">
	<rect width="24" height="24" rx="4" fill="white" style="fill:white;fill-opacity:1;" />
	<g clip-path="url(#clip0_25801_76589)">
		<path d="M7.82964 13.8758C7.82964 14.71 7.15536 15.3843 6.32107 15.3843C5.48679 15.3843 4.8125 14.71 4.8125 13.8758C4.8125 13.0415 5.48679 12.3672 6.32107 12.3672H7.82964V13.8758ZM8.58393 13.8758C8.58393 13.0415 9.25821 12.3672 10.0925 12.3672C10.9268 12.3672 11.6011 13.0415 11.6011 13.8758V17.6472C11.6011 18.4815 10.9268 19.1558 10.0925 19.1558C9.25821 19.1558 8.58393 18.4815 8.58393 17.6472V13.8758Z" fill="#E01E5A" style="fill:#E01E5A;fill:color(display-p3 0.8784 0.1176 0.3529);fill-opacity:1;" />
		<path d="M10.0883 7.81792C9.25402 7.81792 8.57973 7.14364 8.57973 6.30935C8.57973 5.47507 9.25402 4.80078 10.0883 4.80078C10.9226 4.80078 11.5969 5.47507 11.5969 6.30935V7.81792H10.0883ZM10.0883 8.58364C10.9226 8.58364 11.5969 9.25792 11.5969 10.0922C11.5969 10.9265 10.9226 11.6008 10.0883 11.6008H6.30545C5.47116 11.6008 4.79688 10.9265 4.79688 10.0922C4.79688 9.25792 5.47116 8.58364 6.30545 8.58364H10.0883Z" fill="#36C5F0" style="fill:#36C5F0;fill:color(display-p3 0.2118 0.7725 0.9412);fill-opacity:1;" />
		<path d="M16.1308 10.0922C16.1308 9.25792 16.8051 8.58364 17.6394 8.58364C18.4737 8.58364 19.1479 9.25792 19.1479 10.0922C19.1479 10.9265 18.4737 11.6008 17.6394 11.6008H16.1308V10.0922ZM15.3765 10.0922C15.3765 10.9265 14.7022 11.6008 13.8679 11.6008C13.0337 11.6008 12.3594 10.9265 12.3594 10.0922V6.30935C12.3594 5.47507 13.0337 4.80078 13.8679 4.80078C14.7022 4.80078 15.3765 5.47507 15.3765 6.30935V10.0922Z" fill="#2EB67D" style="fill:#2EB67D;fill:color(display-p3 0.1804 0.7137 0.4902);fill-opacity:1;" />
		<path d="M13.8679 16.1386C14.7022 16.1386 15.3765 16.8129 15.3765 17.6472C15.3765 18.4815 14.7022 19.1558 13.8679 19.1558C13.0337 19.1558 12.3594 18.4815 12.3594 17.6472V16.1386H13.8679ZM13.8679 15.3843C13.0337 15.3843 12.3594 14.71 12.3594 13.8758C12.3594 13.0415 13.0337 12.3672 13.8679 12.3672H17.6508C18.4851 12.3672 19.1594 13.0415 19.1594 13.8758C19.1594 14.71 18.4851 15.3843 17.6508 15.3843H13.8679Z" fill="#ECB22E" style="fill:#ECB22E;fill:color(display-p3 0.9255 0.6980 0.1804);fill-opacity:1;" />
	</g>
	<defs>
		<clipPath id="clip0_25801_76589">
			<rect width="14.4" height="14.4" fill="white" style="fill:white;fill-opacity:1;" transform="translate(4.79688 4.80078)" />
		</clipPath>
	</defs>
</svg>
