<svg width="32" height="32" viewBox="0 0 32 32" fill="none" xmlns="http://www.w3.org/2000/svg">
<rect x="0.5" y="0.5" width="31" height="31" rx="3.5" fill="#FAFAFA" style="fill:#FAFAFA;fill:color(display-p3 0.9804 0.9804 0.9804);fill-opacity:1;"/>
<rect x="0.5" y="0.5" width="31" height="31" rx="3.5" stroke="#D7D7DB" style="stroke:#D7D7DB;stroke:color(display-p3 0.8431 0.8431 0.8588);stroke-opacity:1;"/>
<g clip-path="url(#clip0_30138_114254)">
<path d="M10.791 18.3437C10.791 19.3866 9.9481 20.2294 8.90525 20.2294C7.86239 20.2294 7.01953 19.3866 7.01953 18.3437C7.01953 17.3009 7.86239 16.458 8.90525 16.458H10.791V18.3437ZM11.7338 18.3437C11.7338 17.3009 12.5767 16.458 13.6195 16.458C14.6624 16.458 15.5052 17.3009 15.5052 18.3437V23.058C15.5052 24.1009 14.6624 24.9437 13.6195 24.9437C12.5767 24.9437 11.7338 24.1009 11.7338 23.058V18.3437Z" fill="#E01E5A" style="fill:#E01E5A;fill:color(display-p3 0.8784 0.1176 0.3529);fill-opacity:1;"/>
<path d="M13.6143 10.7714C12.5714 10.7714 11.7286 9.92857 11.7286 8.88571C11.7286 7.84286 12.5714 7 13.6143 7C14.6571 7 15.5 7.84286 15.5 8.88571V10.7714H13.6143ZM13.6143 11.7286C14.6571 11.7286 15.5 12.5714 15.5 13.6143C15.5 14.6571 14.6571 15.5 13.6143 15.5H8.88571C7.84286 15.5 7 14.6571 7 13.6143C7 12.5714 7.84286 11.7286 8.88571 11.7286H13.6143Z" fill="#36C5F0" style="fill:#36C5F0;fill:color(display-p3 0.2118 0.7725 0.9412);fill-opacity:1;"/>
<path d="M21.1674 13.6143C21.1674 12.5714 22.0103 11.7286 23.0531 11.7286C24.096 11.7286 24.9388 12.5714 24.9388 13.6143C24.9388 14.6571 24.096 15.5 23.0531 15.5H21.1674V13.6143ZM20.2246 13.6143C20.2246 14.6571 19.3817 15.5 18.3388 15.5C17.296 15.5 16.4531 14.6571 16.4531 13.6143V8.88571C16.4531 7.84286 17.296 7 18.3388 7C19.3817 7 20.2246 7.84286 20.2246 8.88571V13.6143Z" fill="#2EB67D" style="fill:#2EB67D;fill:color(display-p3 0.1804 0.7137 0.4902);fill-opacity:1;"/>
<path d="M18.3388 21.1723C19.3817 21.1723 20.2246 22.0152 20.2246 23.058C20.2246 24.1009 19.3817 24.9437 18.3388 24.9437C17.296 24.9437 16.4531 24.1009 16.4531 23.058V21.1723H18.3388ZM18.3388 20.2294C17.296 20.2294 16.4531 19.3866 16.4531 18.3437C16.4531 17.3009 17.296 16.458 18.3388 16.458H23.0674C24.1103 16.458 24.9531 17.3009 24.9531 18.3437C24.9531 19.3866 24.1103 20.2294 23.0674 20.2294H18.3388Z" fill="#ECB22E" style="fill:#ECB22E;fill:color(display-p3 0.9255 0.6980 0.1804);fill-opacity:1;"/>
</g>
<defs>
<clipPath id="clip0_30138_114254">
<rect width="18" height="18" fill="white" style="fill:white;fill-opacity:1;" transform="translate(7 7)"/>
</clipPath>
</defs>
</svg>
