<svg width="24" height="24" viewBox="0 0 24 24" fill="none" xmlns="http://www.w3.org/2000/svg">
<g clip-path="url(#clip0_26477_87229)">
<path fill-rule="evenodd" clip-rule="evenodd" d="M16.1903 9.91906C16.3222 10.0509 16.501 10.125 16.6875 10.125C16.874 10.125 17.0528 10.0509 17.1847 9.91906C17.3165 9.7872 17.3906 9.60836 17.3906 9.42188C17.3906 9.04891 17.5388 8.69123 17.8025 8.42751C18.0662 8.16378 18.4239 8.01562 18.7969 8.01562C18.9834 8.01562 19.1622 7.94155 19.2941 7.80968C19.4259 7.67782 19.5 7.49898 19.5 7.3125C19.5 7.12602 19.4259 6.94718 19.2941 6.81532C19.1622 6.68345 18.9834 6.60938 18.7969 6.60938C18.4239 6.60938 18.0662 6.46122 17.8025 6.19749C17.5388 5.93377 17.3906 5.57609 17.3906 5.20312C17.3906 5.01664 17.3165 4.8378 17.1847 4.70594C17.0528 4.57408 16.874 4.5 16.6875 4.5C16.501 4.5 16.3222 4.57408 16.1903 4.70594C16.0585 4.8378 15.9844 5.01664 15.9844 5.20312C15.9844 5.57609 15.8362 5.93377 15.5725 6.19749C15.3088 6.46122 14.9511 6.60938 14.5781 6.60938C14.3916 6.60938 14.2128 6.68345 14.0809 6.81532C13.9491 6.94718 13.875 7.12602 13.875 7.3125C13.875 7.49898 13.9491 7.67782 14.0809 7.80968C14.2128 7.94155 14.3916 8.01562 14.5781 8.01562C14.9511 8.01562 15.3088 8.16378 15.5725 8.42751C15.8362 8.69123 15.9844 9.04891 15.9844 9.42188C15.9844 9.60836 16.0585 9.7872 16.1903 9.91906ZM9.46209 19.2254C9.6379 19.4012 9.87636 19.5 10.125 19.5C10.3736 19.5 10.6121 19.4012 10.7879 19.2254C10.9637 19.0496 11.0625 18.8111 11.0625 18.5625C11.0625 17.5679 11.4576 16.6141 12.1608 15.9108C12.8641 15.2076 13.8179 14.8125 14.8125 14.8125C15.0611 14.8125 15.2996 14.7137 15.4754 14.5379C15.6512 14.3621 15.75 14.1236 15.75 13.875C15.75 13.6264 15.6512 13.3879 15.4754 13.2121C15.2996 13.0363 15.0611 12.9375 14.8125 12.9375C13.8179 12.9375 12.8641 12.5424 12.1608 11.8392C11.4576 11.1359 11.0625 10.1821 11.0625 9.1875C11.0625 8.93886 10.9637 8.7004 10.7879 8.52459C10.6121 8.34877 10.3736 8.25 10.125 8.25C9.87636 8.25 9.6379 8.34877 9.46209 8.52459C9.28627 8.7004 9.1875 8.93886 9.1875 9.1875C9.1875 10.1821 8.79241 11.1359 8.08915 11.8392C7.38589 12.5424 6.43206 12.9375 5.4375 12.9375C5.18886 12.9375 4.9504 13.0363 4.77459 13.2121C4.59877 13.3879 4.5 13.6264 4.5 13.875C4.5 14.1236 4.59877 14.3621 4.77459 14.5379C4.9504 14.7137 5.18886 14.8125 5.4375 14.8125C6.43206 14.8125 7.38589 15.2076 8.08915 15.9108C8.79241 16.6141 9.1875 17.5679 9.1875 18.5625C9.1875 18.8111 9.28627 19.0496 9.46209 19.2254Z" fill="url(#paint0_radial_26477_87229)" style=""/>
</g>
<defs>
<radialGradient id="paint0_radial_26477_87229" cx="0" cy="0" r="1" gradientUnits="userSpaceOnUse" gradientTransform="translate(20 13) rotate(180) scale(16)">
<stop offset="0.270831" stop-color="#99D0EC" style="stop-color:#99D0EC;stop-color:color(display-p3 0.6000 0.8157 0.9255);stop-opacity:1;"/>
<stop offset="0.5776" stop-color="#859BFF" style="stop-color:#859BFF;stop-color:color(display-p3 0.5216 0.6078 1.0000);stop-opacity:1;"/>
<stop offset="0.772746" stop-color="#A794F2" style="stop-color:#A794F2;stop-color:color(display-p3 0.6549 0.5804 0.9490);stop-opacity:1;"/>
</radialGradient>
<clipPath id="clip0_26477_87229">
<rect width="16" height="16" fill="white" style="fill:white;fill-opacity:1;" transform="translate(4 4)"/>
</clipPath>
</defs>
</svg>
