
<svg viewBox="0 0 32 32" fill="none" xmlns="http://www.w3.org/2000/svg">
<rect width="32" height="32" rx="4" fill="inherit"/>
<g clip-path="url(#clip0_10525_144168)">
<path d="M13 20.5C13.8284 20.5 14.5 19.8284 14.5 19C14.5 18.1716 13.8284 17.5 13 17.5C12.1716 17.5 11.5 18.1716 11.5 19C11.5 19.8284 12.1716 20.5 13 20.5Z" stroke="currentColor" stroke-linecap="round" stroke-linejoin="round"/>
<path d="M23.5 8.5H20.5L14.29 14.71C13.879 14.587 13.451 14.5 13 14.5C10.515 14.5 8.5 16.515 8.5 19C8.5 21.485 10.515 23.5 13 23.5C15.485 23.5 17.5 21.485 17.5 19C17.5 18.549 17.413 18.121 17.29 17.71L19.5 15.5V12.5H22.5L23.5 11.5V8.5Z" stroke="currentColor" stroke-linecap="round" stroke-linejoin="round"/>
</g>
<defs>
<clipPath id="clip0_10525_144168">
<rect width="16" height="16" fill="white" transform="translate(8 8)"/>
</clipPath>
</defs>
</svg>
