<svg viewBox="0 0 14 13" fill="none" xmlns="http://www.w3.org/2000/svg">
<path d="M12.3603 4.79302C12.3598 4.79277 12.3592 4.7926 12.3587 4.79252L9.64234 4.39737C9.31647 4.34996 9.03482 4.14516 8.88927 3.84976L7.67652 1.38839C7.60785 1.27024 7.50936 1.17219 7.39091 1.10403C7.27245 1.03587 7.13819 1 7.00152 1C6.86486 1 6.73059 1.03587 6.61214 1.10403C6.49369 1.17219 6.3952 1.27024 6.32652 1.38839L5.11382 3.8503C4.96825 4.14582 4.68648 4.35068 4.36048 4.39803L1.64352 4.79264C1.50488 4.81253 1.37457 4.87084 1.26736 4.96098C1.16014 5.05111 1.08032 5.16947 1.03692 5.30264C0.993513 5.43582 0.988271 5.57848 1.02178 5.71448C1.05529 5.85048 1.12622 5.97438 1.22652 6.07214L3.19247 7.98898C3.42806 8.21869 3.53557 8.54959 3.47999 8.87391L3.01602 11.5809C2.99239 11.7188 3.00782 11.8606 3.06056 11.9902C3.1133 12.1198 3.20125 12.2321 3.31447 12.3144C3.42769 12.3966 3.56166 12.4455 3.70123 12.4556C3.8408 12.4657 3.98041 12.4365 4.10427 12.3714L6.53627 11.0927C6.82755 10.9396 7.17552 10.9396 7.46682 11.0927L9.89727 12.3699C10.0211 12.435 10.1607 12.4642 10.3003 12.4541C10.4399 12.444 10.5739 12.3951 10.6871 12.3129C10.8003 12.2306 10.8882 12.1183 10.941 11.9887C10.9937 11.8591 11.0092 11.7173 10.9855 11.5794L10.5216 8.87282C10.466 8.54828 10.5737 8.21715 10.8096 7.98744L12.7765 6.07214C12.8766 5.97445 12.9473 5.85073 12.9808 5.71495C13.0142 5.57917 13.0091 5.43674 12.9659 5.30374C12.9226 5.17074 12.8431 5.05248 12.7362 4.9623C12.6296 4.8723 12.4999 4.81385 12.3619 4.79351C12.3613 4.79343 12.3608 4.79326 12.3603 4.79302V4.79302Z" stroke="currentColor" style="stroke:currentColor;stroke-opacity:1;" stroke-linecap="round"/>
</svg>
