<svg viewBox="0 0 12 12" xmlns="http://www.w3.org/2000/svg" fill="currentColor">
    <path d="M11.3603 3.79302C11.3598 3.79277 11.3592 3.7926 11.3587 3.79252L8.64234 3.39737C8.31647 3.34996 8.03482 3.14516 7.88927 2.84976L6.67652 0.388391C6.60785 0.27024 6.50936 0.172185 6.39091 0.104028C6.27245 0.0358713 6.13819 0 6.00152 0C5.86486 0 5.73059 0.0358713 5.61214 0.104028C5.49369 0.172185 5.3952 0.27024 5.32652 0.388391L4.11382 2.8503C3.96825 3.14582 3.68648 3.35068 3.36048 3.39803L0.643524 3.79264C0.504876 3.81253 0.374566 3.87084 0.267355 3.96098C0.160145 4.05111 0.0803174 4.16947 0.0369152 4.30264C-0.00648701 4.43582 -0.0117295 4.57848 0.0217815 4.71448C0.0552926 4.85048 0.126218 4.97438 0.226524 5.07214L2.19247 6.98898C2.42806 7.21869 2.53557 7.54959 2.47999 7.87391L2.01602 10.5809C1.99239 10.7188 2.00782 10.8606 2.06056 10.9902C2.1133 11.1198 2.20125 11.2321 2.31447 11.3144C2.42769 11.3966 2.56166 11.4455 2.70123 11.4556C2.8408 11.4657 2.98041 11.4365 3.10427 11.3714L5.53627 10.0927C5.82755 9.93961 6.17552 9.93958 6.46682 10.0927L8.89727 11.3699C9.02113 11.435 9.16074 11.4642 9.30032 11.4541C9.43989 11.444 9.57386 11.3951 9.68708 11.3129C9.8003 11.2306 9.88825 11.1183 9.94099 10.9887C9.99373 10.8591 10.0092 10.7173 9.98552 10.5794L9.52163 7.87282C9.46601 7.54828 9.57371 7.21715 9.80961 6.98744L11.7765 5.07214C11.8766 4.97445 11.9473 4.85073 11.9808 4.71495C12.0142 4.57917 12.0091 4.43674 11.9659 4.30374C11.9226 4.17074 11.8431 4.05248 11.7362 3.9623C11.6296 3.8723 11.4999 3.81385 11.3619 3.79351C11.3613 3.79343 11.3608 3.79326 11.3603 3.79302Z"/>
</svg>
