<svg viewBox="0 0 18 18" fill="none" xmlns="http://www.w3.org/2000/svg">
    <path fill-rule="evenodd" clip-rule="evenodd" d="M15.3536 1.35355C15.5489 1.15829 15.5489 0.841709 15.3536 0.646447C15.1584 0.451184 14.8418 0.451184 14.6465 0.646447L9.26192 6.03106C9.06666 6.22632 9.06666 6.54291 9.26192 6.73817C9.45719 6.93343 9.77377 6.93343 9.96903 6.73817L15.3536 1.35355ZM10.7063 2.04038C10.8717 1.61018 10.8715 1.61011 10.8713 1.61004L10.8709 1.60988L10.8699 1.6095L10.8672 1.60849L10.8594 1.60555L10.8336 1.59621C10.8122 1.58855 10.7821 1.57814 10.7442 1.56579C10.6686 1.54111 10.5614 1.50856 10.4291 1.47473C10.1656 1.40738 9.79655 1.3334 9.37531 1.30865C8.54235 1.25971 7.43018 1.40111 6.56949 2.2618L2.2618 6.56949C1.40111 7.43018 1.25971 8.54235 1.30865 9.37531C1.3334 9.79655 1.40738 10.1656 1.47473 10.4291C1.50856 10.5614 1.54111 10.6686 1.56579 10.7442C1.57814 10.7821 1.58855 10.8122 1.59621 10.8336L1.60555 10.8594L1.60849 10.8672L1.6095 10.8699L1.60988 10.8709L1.61004 10.8713C1.61011 10.8715 1.61018 10.8717 2.04038 10.7063L1.61018 10.8717C1.70926 11.1294 1.99854 11.2581 2.25629 11.159C2.51394 11.0599 2.64257 10.7709 2.54371 10.5132L2.54359 10.5129L2.54317 10.5117L2.53812 10.4978C2.53334 10.4844 2.52588 10.4629 2.5165 10.4342C2.49773 10.3766 2.47141 10.2903 2.44357 10.1814C2.38758 9.96235 2.327 9.65828 2.30693 9.31665C2.26622 8.62388 2.39405 7.85144 2.9689 7.27659L7.27659 2.9689C7.85144 2.39405 8.62388 2.26622 9.31665 2.30693C9.62188 2.32487 9.89712 2.37513 10.1085 2.42557C10.1337 2.43158 10.158 2.4376 10.1814 2.44357C10.2903 2.47141 10.3766 2.49773 10.4342 2.5165C10.4629 2.52588 10.4844 2.53334 10.4978 2.53812L10.5117 2.54317L10.5129 2.54359L10.5132 2.54371L10.5132 2.54374L10.5134 2.54381L10.5138 2.54395L10.5139 2.54398C10.7714 2.64234 11.06 2.51371 11.159 2.25629C11.2581 1.99854 11.1294 1.70926 10.8717 1.61018L10.7063 2.04038ZM14.3897 5.12834C14.2906 4.87058 14.0014 4.74195 13.7436 4.84103C13.4859 4.94007 13.3573 5.22915 13.4562 5.48683L13.4563 5.48714L13.4567 5.48831L13.4618 5.50223C13.4666 5.51564 13.474 5.5371 13.4834 5.56585C13.5022 5.62343 13.5285 5.70975 13.5563 5.81866C13.6123 6.03766 13.6729 6.34173 13.693 6.68336C13.7337 7.37613 13.6058 8.14857 13.031 8.72342L8.72329 13.0311C8.14845 13.606 7.37601 13.7338 6.68324 13.6931C6.34161 13.673 6.03754 13.6124 5.81854 13.5564C5.70962 13.5286 5.6233 13.5023 5.56573 13.4835C5.53698 13.4741 5.51551 13.4667 5.50211 13.4619L5.48819 13.4568L5.48702 13.4564L5.48671 13.4563L5.48645 13.4562L5.48608 13.4561L5.48605 13.456C5.22854 13.3577 4.93987 13.4863 4.84091 13.7437C4.74183 14.0015 4.87046 14.2907 5.12821 14.3898L5.30762 13.9231C5.12821 14.3898 5.12839 14.3899 5.12858 14.39L5.129 14.3901L5.13 14.3905L5.13266 14.3915L5.14052 14.3945L5.16624 14.4038C5.18772 14.4115 5.2178 14.4219 5.25567 14.4342C5.33132 14.4589 5.43854 14.4915 5.57084 14.5253C5.83427 14.5926 6.20334 14.6666 6.62458 14.6914C7.45753 14.7403 8.56971 14.5989 9.4304 13.7382L13.7381 9.43052C14.5988 8.56983 14.7402 7.45766 14.6912 6.6247C14.6665 6.20346 14.5925 5.83439 14.5252 5.57096C14.4913 5.43866 14.4588 5.33144 14.4341 5.25579C14.4218 5.21792 14.4113 5.18785 14.4037 5.16636L14.3943 5.14064L14.3914 5.13278L14.3904 5.13012L14.39 5.12912L14.3898 5.1287C14.3898 5.12851 14.3897 5.12834 13.923 5.30774L14.3897 5.12834ZM6.73817 9.2618C6.93343 9.45707 6.93343 9.77365 6.73817 9.96891L1.35355 15.3535C1.15829 15.5488 0.841709 15.5488 0.646447 15.3535C0.451184 15.1583 0.451184 14.8417 0.646447 14.6464L6.03106 9.2618C6.22632 9.06654 6.54291 9.06654 6.73817 9.2618Z" fill="url(#paint0_linear_24792_78567)" />
    <defs>
        <linearGradient id="paint0_linear_24792_78567" x1="8.00005" y1="0.5" x2="8.00005" y2="15.5" gradientUnits="userSpaceOnUse">
            <stop style="stop-opacity:1;"/>
            <stop offset="1" style="stop-opacity:1;"/>
        </linearGradient>
    </defs>
</svg>
