<svg viewBox="0 0 12 13" fill="none" xmlns="http://www.w3.org/2000/svg">
<g clip-path="url(#clip0_16179_126538)">
<path fill-rule="evenodd" clip-rule="evenodd" d="M4 1C4 0.723858 4.22386 0.5 4.5 0.5H7.5C7.77614 0.5 8 0.723858 8 1V2.5H11.5C11.7761 2.5 12 2.72386 12 3C12 3.27614 11.7761 3.5 11.5 3.5H7.5H4.5H0.5C0.223858 3.5 0 3.27614 0 3C0 2.72386 0.223858 2.5 0.5 2.5H4V1ZM7 1.5V2.5H5V1.5H7ZM10.4987 5.03567C10.5184 4.76023 10.3111 4.52097 10.0357 4.50127C9.76023 4.48158 9.52097 4.68889 9.50127 4.96433L9.10027 10.5713L9.10027 10.5714C9.06294 11.0947 8.6277 11.5 8.103 11.5H3.894C3.36981 11.5 2.93419 11.0943 2.89674 10.5706L2.89674 10.5705L2.89673 10.5704L2.49874 4.96459C2.47919 4.68914 2.24004 4.4817 1.96459 4.50126C1.68914 4.52081 1.4817 4.75996 1.50126 5.03541L1.89926 10.6414L1.89927 10.6416C1.9739 11.6878 2.84425 12.5 3.894 12.5H8.103C9.1523 12.5 10.0231 11.6893 10.0977 10.6426L10.4987 5.03567Z" fill="currentColor"/>
</g>
<defs>
<clipPath id="clip0_16179_126538">
<rect width="12" height="12" fill="white" transform="translate(0 0.5)"/>
</clipPath>
</defs>
</svg>
