<svg width="30" height="30" viewBox="0 0 30 30" fill="none" xmlns="http://www.w3.org/2000/svg">
<path d="M0 15C0 6.71573 6.71573 0 15 0H18C19.1046 0 20 0.895431 20 2V8C20 9.10457 19.1046 10 18 10L15.0001 10C14.9569 10 14.9139 10.0005 14.871 10.0016C14.8281 10.0027 14.7853 10.0043 14.7427 10.0065C12.1009 10.1404 10 12.3249 10 15C10 17.4095 11.7044 19.421 13.9733 19.8945C14.3047 19.9636 14.6481 20 15 20H20L25 20C22.2386 20 20 22.2386 20 25C20 25.0051 20 25.0102 20 25.0153V28C20 29.1046 19.1046 30 18 30H15C6.71573 30 0 23.2843 0 15Z" fill="url(#paint0_linear_134_323)"/>
<path d="M20 20H15C17.7614 20 20.0001 17.7614 20.0001 15C20.0001 14.9902 20 14.9804 20 14.9706V12C20 10.8954 20.8954 10 22 10H28C29.1046 10 30 10.8954 30 12V18C30 19.1046 29.1046 20 28 20L20 20Z" fill="url(#paint1_linear_134_323)"/>
<defs>
<linearGradient id="paint0_linear_134_323" x1="11.5" y1="-2" x2="19.5" y2="30" gradientUnits="userSpaceOnUse">
<stop stop-color="#FEFEFE"/>
<stop offset="0.500906" stop-color="#C0BDC2"/>
<stop offset="1" stop-color="#99959D"/>
</linearGradient>
<linearGradient id="paint1_linear_134_323" x1="11.5" y1="-2" x2="19.5" y2="30" gradientUnits="userSpaceOnUse">
<stop stop-color="#FEFEFE"/>
<stop offset="0.500906" stop-color="#C0BDC2"/>
<stop offset="1" stop-color="#99959D"/>
</linearGradient>
</defs>
</svg>
