<svg width="24" height="24" viewBox="0 0 24 24" fill="none" xmlns="http://www.w3.org/2000/svg">
<circle cx="12" cy="12" r="12" fill="#242429"/>
<g clip-path="url(#clip0_3592_246789)">
<path fill-rule="evenodd" clip-rule="evenodd" d="M10.2323 7.6108C9.95615 7.6108 9.73229 7.83466 9.73229 8.1108C9.73229 8.38694 9.95615 8.6108 10.2323 8.6108L14.682 8.6108L7.75742 15.5354C7.56216 15.7307 7.56216 16.0473 7.75742 16.2425C7.95268 16.4378 8.26926 16.4378 8.46453 16.2425L15.3891 9.31791L15.3891 13.7677C15.3891 14.0438 15.613 14.2677 15.8891 14.2677C16.1653 14.2677 16.3891 14.0438 16.3891 13.7677V8.1108C16.3891 8.043 16.3757 7.97836 16.3512 7.91941C16.329 7.8658 16.2977 7.8169 16.2593 7.77461C16.2539 7.76869 16.2484 7.7629 16.2427 7.75725M16.0805 7.64874C16.0216 7.62429 15.9569 7.6108 15.8891 7.6108L10.2323 7.6108M16.0805 7.64874C16.1386 7.67278 16.1931 7.70824 16.2406 7.75513L16.0805 7.64874Z" fill="#C9C9CF"/>
</g>
<defs>
<clipPath id="clip0_3592_246789">
<rect width="12" height="12" fill="white" transform="translate(6 6)"/>
</clipPath>
</defs>
</svg>
