<svg width="168" height="72" viewBox="0 0 168 72" fill="none" xmlns="http://www.w3.org/2000/svg">
<mask id="mask0_3592_246752" style="mask-type:luminance" maskUnits="userSpaceOnUse" x="-1" y="0" width="65" height="72">
<path d="M29.9231 0.455452L1.70479 16.7427C0.647862 17.3522 -0.000488281 18.4775 -0.000488281 19.6938V52.2912C-0.000488281 53.5082 0.647862 54.6328 1.70479 55.2423L29.9251 71.5423C30.98 72.1498 32.2807 72.1498 33.3343 71.5423L61.5499 55.2423C62.6015 54.6328 63.2512 53.5075 63.2512 52.2912V19.6938C63.2512 18.4775 62.6015 17.3522 61.5432 16.7427L33.3316 0.455452C32.8025 0.152037 32.2131 0 31.6237 0C31.0342 0 30.4448 0.152037 29.9157 0.455452" fill="white"/>
</mask>
<g mask="url(#mask0_3592_246752)">
<path d="M91.7648 13.9766L12.2506 -24.9985L-28.5195 58.172L50.9926 97.1491L91.7648 13.9766Z" fill="url(#paint0_linear_3592_246752)"/>
</g>
<mask id="mask1_3592_246752" style="mask-type:luminance" maskUnits="userSpaceOnUse" x="0" y="0" width="63" height="72">
<path d="M0.689697 54.364C0.959623 54.7143 1.2972 55.0177 1.69438 55.2454L25.9006 69.2273L29.9327 71.5448C30.5355 71.8931 31.2228 72.0404 31.8979 71.9902C32.123 71.9721 32.348 71.9299 32.5677 71.8676L62.3291 17.3735C62.1014 17.1257 61.8348 16.918 61.5361 16.7439L43.0593 6.07414L33.2924 0.454597C33.0151 0.293848 32.7144 0.179984 32.4083 0.0996094L0.689697 54.364Z" fill="white"/>
</mask>
<g mask="url(#mask1_3592_246752)">
<path d="M-33.6877 25.5043L22.4574 101.494L96.7104 46.6342L40.5619 -29.3535L-33.6877 25.5043Z" fill="url(#paint1_linear_3592_246752)"/>
</g>
<mask id="mask2_3592_246752" style="mask-type:luminance" maskUnits="userSpaceOnUse" x="1" y="0" width="63" height="72">
<path d="M31.2831 0.0200484C30.8096 0.0669337 30.3468 0.214283 29.9201 0.456747L1.78223 16.6972L32.1237 71.9615C32.5457 71.9013 32.961 71.7606 33.336 71.5436L61.5543 55.2436C62.425 54.7386 63.0211 53.8839 63.202 52.9154L32.2711 0.075636C32.0433 0.03076 31.8156 0.00732422 31.5812 0.00732422C31.4874 0.00732422 31.3936 0.0120054 31.2999 0.0207127" fill="white"/>
</mask>
<g mask="url(#mask2_3592_246752)">
<path d="M1.78174 0.00732422V71.9629H63.1901V0.00732422H1.78174Z" fill="url(#paint2_linear_3592_246752)"/>
</g>
<path d="M131.239 0.000588916C128.304 0.0142331 125.502 0.264668 123.035 0.701279C115.77 1.98543 114.451 4.67326 114.451 9.63007V16.1765H131.619V18.3587H114.451H108.008C103.019 18.3587 98.6498 21.3592 97.2833 27.0673C95.707 33.61 95.6371 37.6928 97.2833 44.5244C98.5037 49.6097 101.418 53.233 106.408 53.233H112.31V45.3853C112.31 39.7158 117.213 34.7148 123.035 34.7148H140.183C144.957 34.7148 148.767 30.7825 148.767 25.9862V9.63007C148.767 4.97503 144.842 1.47819 140.183 0.701279C137.234 0.210091 134.174 -0.0130554 131.239 0.000588916ZM121.955 5.26578C123.728 5.26578 125.176 6.73836 125.176 8.54901C125.176 10.3532 123.728 11.8122 121.955 11.8122C120.175 11.8122 118.733 10.3532 118.733 8.54901C118.733 6.73836 120.175 5.26578 121.955 5.26578Z" fill="url(#paint3_linear_3592_246752)"/>
<path d="M150.909 18.3589V25.9864C150.909 31.8999 145.898 36.8771 140.184 36.8771H123.036C118.339 36.8771 114.452 40.8993 114.452 45.6057V61.9619C114.452 66.6169 118.497 69.355 123.036 70.6905C128.47 72.2892 133.681 72.5782 140.184 70.6905C144.506 69.4384 148.768 66.9187 148.768 61.9619V55.4154H131.62V53.2333H148.768H157.352C162.341 53.2333 164.201 49.7512 165.936 44.5247C167.728 39.1441 167.652 33.9698 165.936 27.0675C164.703 22.0978 162.348 18.3589 157.352 18.3589H150.909ZM141.264 59.7797C143.044 59.7797 144.486 61.2387 144.486 63.0429C144.486 64.8536 143.044 66.3262 141.264 66.3262C139.491 66.3262 138.043 64.8536 138.043 63.0429C138.043 61.2387 139.491 59.7797 141.264 59.7797Z" fill="url(#paint4_linear_3592_246752)"/>
<defs>
<linearGradient id="paint0_linear_3592_246752" x1="51.9838" y1="-5.57228" x2="11.2165" y2="77.5927" gradientUnits="userSpaceOnUse">
<stop offset="0.3" stop-color="#3E863D"/>
<stop offset="0.5" stop-color="#55934F"/>
<stop offset="0.8" stop-color="#5AAD45"/>
</linearGradient>
<linearGradient id="paint1_linear_3592_246752" x1="-5.2787" y1="63.9347" x2="68.9771" y2="9.06846" gradientUnits="userSpaceOnUse">
<stop offset="0.57" stop-color="#3E863D"/>
<stop offset="0.72" stop-color="#619857"/>
<stop offset="1" stop-color="#76AC64"/>
</linearGradient>
<linearGradient id="paint2_linear_3592_246752" x1="1.80246" y1="35.9871" x2="63.2017" y2="35.9871" gradientUnits="userSpaceOnUse">
<stop offset="0.16" stop-color="#6BBF47"/>
<stop offset="0.38" stop-color="#79B461"/>
<stop offset="0.47" stop-color="#75AC64"/>
<stop offset="0.7" stop-color="#659E5A"/>
<stop offset="0.9" stop-color="#3E863D"/>
</linearGradient>
<linearGradient id="paint3_linear_3592_246752" x1="96.0747" y1="-1.85806e-07" x2="135.68" y2="33.7314" gradientUnits="userSpaceOnUse">
<stop stop-color="#5A9FD4"/>
<stop offset="1" stop-color="#306998"/>
</linearGradient>
<linearGradient id="paint4_linear_3592_246752" x1="140.852" y1="62.4926" x2="126.639" y2="42.5872" gradientUnits="userSpaceOnUse">
<stop stop-color="#FFD43B"/>
<stop offset="1" stop-color="#FFE873"/>
</linearGradient>
</defs>
</svg>
