<svg width="93" height="95" viewBox="0 0 93 95" fill="none" xmlns="http://www.w3.org/2000/svg">
<path d="M45.9774 0.0417845C42.1457 0.0595977 38.4865 0.386555 35.2669 0.956573C25.7821 2.6331 24.06 6.14221 24.06 12.6136V21.1603H46.4737V24.0093H24.06H15.6483C9.13424 24.0093 3.43034 27.9266 1.64623 35.3788C-0.41171 43.9207 -0.502991 49.251 1.64623 58.1701C3.23948 64.8091 7.04438 69.5396 13.5584 69.5396H21.2648V59.294C21.2648 51.8921 27.6657 45.363 35.2669 45.363H57.6545C63.8864 45.363 68.8614 40.2292 68.8614 33.9674V12.6136C68.8614 6.53619 63.737 1.97087 57.6545 0.956573C53.8041 0.315301 49.8091 0.023971 45.9774 0.0417845ZM33.8562 6.91577C36.1714 6.91577 38.062 8.83831 38.062 11.2022C38.062 13.5577 36.1714 15.4625 33.8562 15.4625C31.5327 15.4625 29.6504 13.5577 29.6504 11.2022C29.6504 8.83831 31.5327 6.91577 33.8562 6.91577Z" fill="url(#paint0_linear_3592_246732)"/>
<path d="M71.6571 24.0093V33.9674C71.6571 41.6878 65.1151 48.1859 57.6551 48.1859H35.2674C29.1351 48.1859 24.0605 53.4371 24.0605 59.5815V80.9353C24.0605 87.0128 29.3425 90.5874 35.2674 92.331C42.3624 94.4183 49.166 94.7955 57.6551 92.331C63.2978 90.6964 68.8619 87.4067 68.8619 80.9353V72.3886H46.4743V69.5397H68.8619H80.0688C86.5829 69.5397 89.0103 64.9936 91.2757 58.1701C93.6158 51.1455 93.5162 44.3901 91.2757 35.3788C89.6658 28.8906 86.5912 24.0093 80.0688 24.0093H71.6571ZM59.0657 78.0864C61.3892 78.0864 63.2716 79.9912 63.2716 82.3467C63.2716 84.7106 61.3892 86.6332 59.0657 86.6332C56.7505 86.6332 54.8599 84.7106 54.8599 82.3467C54.8599 79.9912 56.7505 78.0864 59.0657 78.0864Z" fill="url(#paint1_linear_3592_246732)"/>
<defs>
<linearGradient id="paint0_linear_3592_246732" x1="0.0683591" y1="0.0410154" x2="51.7746" y2="44.079" gradientUnits="userSpaceOnUse">
<stop stop-color="#5A9FD4"/>
<stop offset="1" stop-color="#306998"/>
</linearGradient>
<linearGradient id="paint1_linear_3592_246732" x1="58.5271" y1="81.6282" x2="39.9722" y2="55.6407" gradientUnits="userSpaceOnUse">
<stop stop-color="#FFD43B"/>
<stop offset="1" stop-color="#FFE873"/>
</linearGradient>
</defs>
</svg>
