<svg width="22" height="22" viewBox="0 0 22 22" fill="none" xmlns="http://www.w3.org/2000/svg">
<g filter="url(#filter0_d_3592_246685)">
<path fill-rule="evenodd" clip-rule="evenodd" d="M15 5.5C15 5.22386 14.7761 5 14.5 5C14.2239 5 14 5.22386 14 5.5C14 6.32886 13.3289 7 12.5 7C12.2239 7 12 7.22386 12 7.5C12 7.77614 12.2239 8 12.5 8C13.3289 8 14 8.67114 14 9.5C14 9.77614 14.2239 10 14.5 10C14.7761 10 15 9.77614 15 9.5C15 8.67114 15.6711 8 16.5 8C16.7761 8 17 7.77614 17 7.5C17 7.22386 16.7761 7 16.5 7C15.6711 7 15 6.32886 15 5.5ZM14.0006 7.5C14.1897 7.35794 14.3579 7.18967 14.5 7.0006C14.6421 7.18967 14.8103 7.35794 14.9994 7.5C14.8103 7.64206 14.6421 7.81033 14.5 7.9994C14.3579 7.81033 14.1897 7.64206 14.0006 7.5ZM10 8.5C10 8.22386 9.77614 8 9.5 8C9.22386 8 9 8.22386 9 8.5C9 10.4329 7.43286 12 5.5 12C5.22386 12 5 12.2239 5 12.5C5 12.7761 5.22386 13 5.5 13C7.43286 13 9 14.5671 9 16.5C9 16.7761 9.22386 17 9.5 17C9.77614 17 10 16.7761 10 16.5C10 14.5671 11.5671 13 13.5 13C13.7761 13 14 12.7761 14 12.5C14 12.2239 13.7761 12 13.5 12C11.5671 12 10 10.4329 10 8.5ZM7.56349 12.5C8.39258 12.0714 9.0714 11.3926 9.5 10.5635C9.9286 11.3926 10.6074 12.0714 11.4365 12.5C10.6074 12.9286 9.9286 13.6074 9.5 14.4365C9.0714 13.6074 8.39258 12.9286 7.56349 12.5Z" fill="white"/>
</g>
<defs>
<filter id="filter0_d_3592_246685" x="0" y="0" width="22" height="22" filterUnits="userSpaceOnUse" color-interpolation-filters="sRGB">
<feFlood flood-opacity="0" result="BackgroundImageFix"/>
<feColorMatrix in="SourceAlpha" type="matrix" values="0 0 0 0 0 0 0 0 0 0 0 0 0 0 0 0 0 0 127 0" result="hardAlpha"/>
<feOffset/>
<feGaussianBlur stdDeviation="2.5"/>
<feComposite in2="hardAlpha" operator="out"/>
<feColorMatrix type="matrix" values="0 0 0 0 1 0 0 0 0 1 0 0 0 0 1 0 0 0 0.4 0"/>
<feBlend mode="normal" in2="BackgroundImageFix" result="effect1_dropShadow_3592_246685"/>
<feBlend mode="normal" in="SourceGraphic" in2="effect1_dropShadow_3592_246685" result="shape"/>
</filter>
</defs>
</svg>
